<mxfile host="Electron" agent="Mozilla/5.0 (Windows NT 10.0; Win64; x64) AppleWebKit/537.36 (KHTML, like Gecko) draw.io/28.0.6 Chrome/138.0.7204.100 Electron/37.2.3 Safari/537.36" version="28.0.6">
  <diagram name="Page-1" id="JVlVY00qk1BuIKrLJi-z">
    <mxGraphModel dx="872" dy="529" grid="1" gridSize="10" guides="1" tooltips="1" connect="1" arrows="1" fold="1" page="1" pageScale="1" pageWidth="827" pageHeight="1169" math="0" shadow="0">
      <root>
        <mxCell id="0" />
        <mxCell id="1" parent="0" />
        <mxCell id="Zq0cCl1Xw0VO6npBKItH-1" value="" style="shape=image;verticalLabelPosition=bottom;labelBackgroundColor=default;verticalAlign=top;aspect=fixed;imageAspect=0;editableCssRules=.*;image=data:image/svg+xml,PHN2ZyB4bWxuczp4bGluaz0iaHR0cDovL3d3dy53My5vcmcvMTk5OS94bGluayIgeG1sbnM9Imh0dHA6Ly93d3cudzMub3JnLzIwMDAvc3ZnIiBzdHlsZT0iY29sb3I6IHJnYigwLCAwLCAwKTsgZm9udC1zaXplOiBtZWRpdW07IGZvbnQtc3R5bGU6IG5vcm1hbDsgZm9udC12YXJpYW50LWxpZ2F0dXJlczogbm9ybWFsOyBmb250LXZhcmlhbnQtY2Fwczogbm9ybWFsOyBmb250LXdlaWdodDogNDAwOyBsZXR0ZXItc3BhY2luZzogbm9ybWFsOyBvcnBoYW5zOiAyOyB0ZXh0LWFsaWduOiBzdGFydDsgdGV4dC1pbmRlbnQ6IDBweDsgdGV4dC10cmFuc2Zvcm06IG5vbmU7IHdpZG93czogMjsgd29yZC1zcGFjaW5nOiAwcHg7IC13ZWJraXQtdGV4dC1zdHJva2Utd2lkdGg6IDBweDsgd2hpdGUtc3BhY2U6IG5vcm1hbDsgdGV4dC1kZWNvcmF0aW9uLXRoaWNrbmVzczogaW5pdGlhbDsgdGV4dC1kZWNvcmF0aW9uLXN0eWxlOiBpbml0aWFsOyB0ZXh0LWRlY29yYXRpb24tY29sb3I6IGluaXRpYWw7IiBvdmVyZmxvdz0iaGlkZGVuIiB4bWw6c3BhY2U9InByZXNlcnZlIiBoZWlnaHQ9IjM1OC45OTg5NjI0MDIzNDM3NSIgd2lkdGg9IjQ2OS4wMDA1Nzk4MzM5ODQ0IiB2aWV3Qm94PSIwIDAgNDY5LjAwMDU3OTgzMzk4NDQgMzU4Ljk5ODk2MjQwMjM0Mzc1Ij48ZGVmcz48aW1hZ2UgaWQ9ImltZzAiIHByZXNlcnZlQXNwZWN0UmF0aW89Im5vbmUiIHhsaW5rOmhyZWY9ImRhdGE6aW1hZ2UvanBlZztiYXNlNjQsLzlqLzRBQVFTa1pKUmdBQkFRRUFZQUJnQUFELzJ3QkRBQU1DQWdNQ0FnTURBd01FQXdNRUJRZ0ZCUVFFQlFvSEJ3WUlEQW9NREFzS0N3c05EaElRRFE0UkRnc0xFQllRRVJNVUZSVVZEQThYR0JZVUdCSVVGUlQvMndCREFRTUVCQVVFQlFrRkJRa1VEUXNORkJRVUZCUVVGQlFVRkJRVUZCUVVGQlFVRkJRVUZCUVVGQlFVRkJRVUZCUVVGQlFVRkJRVUZCUVVGQlFVRkJRVUZCVC93QUFSQ0FKakF4OERBU0lBQWhFQkF4RUIvOFFBSHdBQUFRVUJBUUVCQVFFQUFBQUFBQUFBQUFFQ0F3UUZCZ2NJQ1FvTC84UUF0UkFBQWdFREF3SUVBd1VGQkFRQUFBRjlBUUlEQUFRUkJSSWhNVUVHRTFGaEJ5SnhGREtCa2FFSUkwS3h3UlZTMGZBa00ySnlnZ2tLRmhjWUdSb2xKaWNvS1NvME5UWTNPRGs2UTBSRlJrZElTVXBUVkZWV1YxaFpXbU5rWldabmFHbHFjM1IxZG5kNGVYcURoSVdHaDRpSmlwS1RsSldXbDVpWm1xS2pwS1dtcDZpcHFyS3p0TFcydDdpNXVzTER4TVhHeDhqSnl0TFQxTlhXMTlqWjJ1SGk0K1RsNXVmbzZlcng4dlAwOWZiMytQbjYvOFFBSHdFQUF3RUJBUUVCQVFFQkFRQUFBQUFBQUFFQ0F3UUZCZ2NJQ1FvTC84UUF0UkVBQWdFQ0JBUURCQWNGQkFRQUFRSjNBQUVDQXhFRUJTRXhCaEpCVVFkaGNSTWlNb0VJRkVLUm9iSEJDU016VXZBVlluTFJDaFlrTk9FbDhSY1lHUm9tSnlncEtqVTJOemc1T2tORVJVWkhTRWxLVTFSVlZsZFlXVnBqWkdWbVoyaHBhbk4wZFhaM2VIbDZnb09FaFlhSGlJbUtrcE9VbFphWG1KbWFvcU9rcGFhbnFLbXFzck8wdGJhM3VMbTZ3c1BFeGNiSHlNbkswdFBVMWRiWDJObmE0dVBrNWVibjZPbnE4dlAwOWZiMytQbjYvOW9BREFNQkFBSVJBeEVBUHdEOVU2S0tLQUNpaWlnQW9vb29BS0tLS0FDaWlpZ0Fvb29vQUtLS0tBQ2lpaWdBb29vb0FLS0tLQUNpaWlnQW9vb29BS0tLS0FDaWlpZ0FvcjVzK0pmeHMxK0Q0MjZ6NFMwUHhKcCtsV3VsV09uQnJXWnJXT2VXNnVXdVdadDg1KzRrY01Jd3FrN3BoV2Y0dStMZnhIcy9HR2crRjdiVTdHeHZuMHk1MVM1VzNpZ3U1N2lKSkxPMmh3U1ZqVXRMTGN5TmdZVkk4ZHEzalJsSmN5dHI1cjh2NlJtNmlUcy95UHFPaXZsM3g3OFhQaU40SFR3cnBXcDZucHVrM3VyM3NrY2QzUDhBWm5tbmhndExxNG5JQWJ5bFpuRnJDZzU1TEU5ZU9pK0RmeG84VTYvNDFsMERXeFphM3BsMU1ScGV0V0NLbm5SSmJDU2QyMk15T3NjNThqekUycXpFZ0FGR0ZOMEozYVZuYnMwK2wzOXd2YVJ0ZC8xclkrZ0tLS0s1elVLS0tLQUNpaWlnQW9vb29BS0tLS0FDaWlpZ0Fvb29vQUtLS0tBQ2lpaWdBb29vb0FLS0tLQUNpaWlnQW9vb29BS0tLS0FDaWlpZ0Fvb29vQUtLS0tBQ2lpaWdBb29vb0FLS0tLQUNpaWlnQW9vb29BS0tLS0FDaXF1bzZuWjZQYVNYZC9kd1dWckdOenpYRWdqUlI2a2s0SFVWRm8ydjZaNGpzaGVhVnFGcnFkb1NRSjdTWlpVSkhVWlVrVUFYNkt4eDR3MEU2MGRIR3RhZWRXQUxHeCsxSjU0R001Mlp6MDU2VkpybmlqUnZES1F2cStyV1dsck0yeU0zdHdrUWR2UWJpTW42VUFhbEZaK3NlSWRMOFBXSnZkVTFLMDA2ekJDbTR1NTFpanllZzNNUU0xYXRMeURVTGFLNHRabzdpM2xVUEhMRXdaWFVqSUlJNElJSU5BRTFGRkZBQlJSUlFBVVVVVUFGRkZGQUJSUlJRQVVVVVVBRkZGRkFCUlJSUUFVVVVVQUZGRkZBQlJSUlFBVVVVVUFGRkZGQUJSUlJRQVVVVVVBRkZGRkFCUlJSUUFVVVVVQUZGRkZBQlJSUlFBVVVVVUFGRkZGQUh5blkrRHZFVnY4QUZ6eG5yR3VlR2RZYTIxYlgzblc4MGFSMDMyaVFXMXZibHlxYno1WWdrY0twT2ZOUGVxVVB3VS80U2o0c1dVMG5odTcwM1FidXdzTEcwbXV0UE0wOWphUnczZHpjQ1NTZUpsU1NTNXVZMU9jc1RHYSt1YUs3SVlua2lvMnZiN3I2NjJ0cnYxT2VWTG1kL3dDdW4rUjhwL0VYNFBhdDRmOEFpTG9qNlRvK3FhM29WbnBWMkJmd3lBM2EzZHpjMnpTdDhzZTFSNUZvSWhnRGFyOEthMXYyY3ZBL2lEUVBIdXQzamFYUG9tajNGemRYMDFyNUUwTnJFMHFXOGFRUUNaSTJrUDhBbzVtbGxDS3BkeUFNRExmUzFGSDFoMmZNcnQzL0FCMGZUdHQySDdMVlcwWCtRVVVVVnhtNFVVVVVBRkZGRkFCUlJSUUFVVVVVQUZGRkZBQlJSUlFBVVVVVUFGRkZGQUJSUlJRQVVVVVVBRkZGRkFCUlJSUUFVVVVVQUZGRkZBQlJSUlFBVVVVVUFGRkZGQUJSUlJRQVVVVVVBRkZGRkFCUlJSUUFVVVVVQWZIUGlnM1h4aStNSGpLNXZYa21zUERWOWRhYlpXenhvVFp3MmxyYVNUeVFyS3JSclBQTGZLb21aU1ZqaXd2VTdzTFZ2Rkduand2Y3Q0UWkxandoNG92ZGZUd241MHh0U1VtbXZsc0pib3pRcUdrS0Q3UUl5ekVCaGtBYlJYMFQ0ay9aN3ROVDhkYWw0cjBQeEJxZmhIVk5VUkYxQjlJbFpmdGJJdTFXa1ZtS1pDZ0tHQ0I4Wkc3R0FNWFRQMlV0Rmc4STYzNGQxQzkrM1dGNmtLMmhSSjQ1TE40N21XNkUzbW1kcFdsTTh6eWw5Ni9OMEFIRmVoQ3JGVXVXNlZsMjNiZnAwVDcraHl5ZytlOXI2L2RiNTl6dy93Q0lmd28wdlNQMlkwMXl4aFd3OFJhdmZXSytGN0MzampRMlZ4SmVSaTFhSnRva2FmYmgzbExibXkrU1J1SnMrSzVqby9qeGZpUnJ0aGQ2bDhOOWROcnBTM2xxd0Z4bzhNZHpQYXhJd2RTSkxTYVNhS1JnaERaMjVSaGpQdEYzK3pQY1grcDZUZDNualcvMU50T08yQ1hVSVBPbGdRamE0Zy9lQ0tObVVsVElZbWZhU0F3eTJiUGluOW5hKzhTcDVjbmpmVWJpMml2UHQxcFphb3IzZHRiU2g5OGI3UE5VeWxHd3lpWm5VRlZPM2dZdVZTRXBjeWFUYjg3UlhiYlhmOFBNVVlTUzVXbTBsOTcrODhqK00zZzZUd1hOb1B4RzAzKzBmRm5nZlM5T3Z2N1N0NG5qVFVOUFZycGJpNXU3YzdCRnVDUk5DNmZJM2xxUXJINXEraC9nN3B2aDJIUnIzVWZEZDljWHRwZnlvekxPVkFoMnhJRVJGVkYycnMydHlNbmRrK2c1ZnhMK3p0UDRqMG03MG1ieG5xczJpM1VhUnk2UmVQSkxhU2hVVkNIVlpFY28yM0xScTZ4bkpCVWdrSHZ2aHg0RmorSDNoc2FiOXNiVWJxV2FTNnU3MTR4R1o1bk9XWUlPRVVBQlFvNktvSGFzNTFFNFQ5L2Q3ZCt1dW5rdm1WR0xVbys3c3Y2NitwMU5GRkZjQjBoUlJSUUFVVVVVQUZGRkZBQlJSUlFBVVVVVUFGRkZGQUJSUlJRQVY4OStKL2pEOFZ0TThTNnRaNmQ0SSsxNmZiM2MwTnRjZjJUZHY1c1N1UWpibGZCeUFEa2NIUEZmUWxGZG1HcndvTnVkTlR2M09URVVaMWtsQ2JqNkh6Ui93dS80eGY4QVFnZitVYTgvK0xvLzRYZjhZdjhBb1FQL0FDalhuL3hkZlM5RmQvMStoLzBEUi9FNGZxTmYvb0lsK0I4MGY4THYrTVgvQUVJSC9sR3ZQL2k2UCtGMy9HTC9BS0VEL3dBbzE1LzhYWDB2UlI5Zm9mOEFRTkg4UStvMS93RG9JbCtCODBmOEx2OEFqRi8wSUgvbEd2UC9BSXVqL2hkL3hpLzZFRC95alhuL0FNWFgwdlJSOWZvZjlBMGZ4RDZqWC82Q0pmZ2ZOSC9DNy9qRi93QkNCLzVScnovNHVqL2hkL3hpL3dDaEEvOEFLTmVmL0YxOUwwVWZYNkgvQUVEUi9FUHFOZjhBNkNKZmdmTkgvQzcvQUl4ZjlDQi81UnJ6L3dDTG8vNFhmOFl2K2hBLzhvMTUvd0RGMTlMMFVmWDZIL1FOSDhRK28xLytnaVg0SHpSL3d1LzR4ZjhBUWdmK1VhOC8rTG8vNFhmOFl2OEFvUVAvQUNqWG4veGRmUzlGSDEraC93QkEwZnhENmpYL0FPZ2lYNEh6Ui93dS93Q01YL1FnZitVYTgvOEFpNlArRjMvR0wvb1FQL0tOZWY4QXhkZlM5RkgxK2gvMERSL0VQcU5mL29JbCtCODBmOEx2K01YL0FFSUgvbEd2UC9pNlArRjMvR0wvQUtFRC93QW8xNS84WFgwdlJSOWZvZjhBUU5IOFErbzEvd0RvSWwrQjgwZjhMdjhBakYvMElIL2xHdlAvQUl1ai9oZC94aS82RUQveWpYbi9BTVhYMHZSUjlmb2Y5QTBmeEQ2algvNkNKZmdmTkgvQzcvakYvd0JDQi81UnJ6LzR1ai9oZC94aS93Q2hBLzhBS05lZi9GMTlMMFVmWDZIL0FFRFIvRVBxTmY4QTZDSmZnZk5IL0M3L0FJeGY5Q0IvNVJyei93Q0xvLzRYZjhZditoQS84bzE1L3dERjE5TDBVZlg2SC9RTkg4UStvMS8rZ2lYNEh6Ui93dS80eGY4QVFnZitVYTgvK0xvLzRYZjhZdjhBb1FQL0FDalhuL3hkZlM5RkgxK2gvd0JBMGZ4RDZqWC9BT2dpWDRIelIvd3Uvd0NNWC9RZ2YrVWE4LzhBaTZQK0YzL0dML29RUC9LTmVmOEF4ZGZTOUZIMStoLzBEUi9FUHFOZi9vSWwrQjgwZjhMditNWC9BRUlIL2xHdlAvaTZQK0YzL0dML0FLRUQvd0FvMTUvOFhYMHZSUjlmb2Y4QVFOSDhRK28xL3dEb0lsK0I4MGY4THY4QWpGLzBJSC9sR3ZQL0FJdWovaGQveGkvNkVEL3lqWG4vQU1YWDB2UlI5Zm9mOUEwZnhENmpYLzZDSmZnZk5IL0M3L2pGL3dCQ0IvNVJyei80dWovaGQveGkvd0NoQS84QUtOZWYvRjE5TDBVZlg2SC9BRURSL0VQcU5mOEE2Q0pmZ2ZOSC9DNy9BSXhmOUNCLzVScnovd0NMby80WGY4WXYraEEvOG8xNS93REYxOUwwVWZYNkgvUU5IOFErbzEvK2dpWDRIelIvd3UvNHhmOEFRZ2YrVWE4LytMby80WGY4WXY4QW9RUC9BQ2pYbi94ZGZTOUZIMStoL3dCQTBmeEQ2algvQU9naVg0SHpSL3d1L3dDTVgvUWdmK1VhOC84QWk2UCtGMy9HTC9vUVAvS05lZjhBeGRmUzlGSDEraC8wRFIvRVBxTmYvb0lsK0I4MGY4THYrTVgvQUVJSC9sR3ZQL2k2UCtGMy9HTC9BS0VEL3dBbzE1LzhYWDB2UlI5Zm9mOEFRTkg4UStvMS93RG9JbCtCODBmOEx2OEFqRi8wSUgvbEd2UC9BSXVqL2hkL3hpLzZFRC95alhuL0FNWFgwdlJSOWZvZjlBMGZ4RDZqWC82Q0pmZ2ZOSC9DNy9qRi93QkNCLzVScnovNHVqL2hkL3hpL3dDaEEvOEFLTmVmL0YxOUwwVWZYNkgvQUVEUi9FUHFOZjhBNkNKZmdmTkgvQzcvQUl4ZjlDQi81UnJ6L3dDTG8vNFhmOFl2K2hBLzhvMTUvd0RGMTlMMFVmWDZIL1FOSDhRK28xLytnaVg0SHpSL3d1LzR4ZjhBUWdmK1VhOC8rTG8vNFhmOFl2OEFvUVAvQUNqWG4veGRmUzlGSDEraC93QkEwZnhENmpYL0FPZ2lYNEh6Ui93dS93Q01YL1FnZitVYTgvOEFpNlArRjMvR0wvb1FQL0tOZWY4QXhkZlM5RkgxK2gvMERSL0VQcU5mL29JbCtCODBmOEx2K01YL0FFSUgvbEd2UC9pNlArRjMvR0wvQUtFRC93QW8xNS84WFgwdlJSOWZvZjhBUU5IOFErbzEvd0RvSWwrQjgwZjhMdjhBakYvMElIL2xHdlAvQUl1ai9oZC94aS82RUQveWpYbi9BTVhYMHZSUjlmb2Y5QTBmeEQ2algvNkNKZmdmTkgvQzcvakYvd0JDQi81UnJ6LzR1ai9oZC94aS93Q2hBLzhBS05lZi9GMTlMMFVmWDZIL0FFRFIvRVBxTmY4QTZDSmZnZk5IL0M3L0FJeGY5Q0IvNVJyei93Q0xvLzRYZjhZditoQS84bzE1L3dERjE5TDB5YWVPM1F2TElzU0QrSjJBRkgxK2gvMERSL0VQcU5mL0FLQ0pmZ2ZOZi9DNy9qRi8wSUgvQUpScnovNHVqL2hkL3dBWXYraEEvd0RLTmVmL0FCZGZROC9pSFNyWGI1MnAyY083cDVrNkxuOHpWT2Z4MzRhdG4yVGVJZEtpYkdkcjNzUU9QeGFqNi9RLzZCby9pSDFHdi8wRVMvQThFLzRYZjhZditoQS84bzE1L3dERjBmOEFDNy9qRi8wSUgvbEd2UDhBNHV2YnBQaXI0SmhjcEo0dzBCSFhncTJwd0FqL0FNZXFqSjhjZmh4Q3JNL3hBOExJcThzVzFxMkFIMStlajYvUS93Q2dhUDRoOVJyL0FQUVJMOER4L3dENFhmOEFHTC9vUVA4QXlqWG4vd0FYVDRmamI4WVhtUlg4QmJWTEFFLzJOZWNEL3Z1dlVadjJqUGhQYnB2bCtKL2cySk9tNS9FRm9CK3NsYlBndjRzZUNQaVBjWHR2NFM4WmVIL0ZFOWtxTmRSYUxxa0Y0MEFiTzB1STJZcURnNHpqT0RTK3YwUCtnZVA0aDlSci93RFFSTDhEcXFLS0s4VTlrS0tLS0FNVHhwNHVzdkF2aHE4MXpVVW1lenRkbm1MYnFHYzduVkJnRWdkV0hldkx2K0d0L0JmL0FENjZ4LzREeC84QXh5dll0UzB1ejFteWtzOVF0SUw2MGt4dnQ3bU5aSTN3UVJsV0JCd1FEOVJXQS93czhHeUVaOEthS01mM2RQaUg4bHIwTVBQQ1JqYkVRYmZrN2FIQmlJWXFVcjBKcEx6VjlUZ0YvYXo4RXNvSmgxWlQ2RzJUL3dDTHB5ZnRZZUNHT0N1cUw3bTJYK2pWM2JmQ2Z3V3dJUGhUUitmU3hqSDlLai80VkQ0Si93Q2hWMG4vQU1CVS93QUs2dmFaYi96N2w5Nk9iMmVZL3dBOGZ1WnhmL0RWbmdiKzlxWC9BSUNqL3dDS3FRZnRVZUJDQWZQdmg3RzFQK05kWS93YThEdXhKOExhWmsra0FBL1NtUDhBQlR3SzR3ZkMrbmo2UjQvbFJ6NVovSlA3MEhKbVA4OFB1WnpLZnRTZUFtem03dlUrdG8zOUtkL3cxRjRCL3dDZjY3LzhCSC93cm9mK0ZJZUJQK2hZc2Y4QXZrLzQxSC93b2Z3RC93QkN6YWY5OVA4QS9GVStiSy81Wi9lZzVjeS9taDl6TWY4QTRhYitIMy9RVm4vOEE1Zi9BSW1ucCswejhQV3puV1pVL3dCNnltL290YVQvQUFEOEFQalBocTJHUFNTUWZ5YW1OK3o5OFAyQkgvQ053RFBwTkwvOFZTdmxmYXAvNUtGc3k3dy84bUtRL2FWK0haSS80bnJqMyt4VC93RHhGU2Y4TkkvRG4vb1l2L0pHNS84QWpkVGY4TThmRDMvb1hJLy9BQUptL3dEaTZqZjluSDRkT3hKOE9qSjlMeTRBL0lTVWY4SlgvVHovQU1sRi93QUtmL1R2L3dBbUhSL3RGL0R1UVpIaU5BT256V2s0L25IVDEvYUYrSHJNQVBFa1dmZTNtSC9zbFYzL0FHYlBoMHd3UEQ1UStvdmJqK3NsTS80WnArSG4vUURmL3dBRFovOEE0dWkyVjk2bi9rby8rRlAvQUtkLytURjcvaGYvQU1QL0FQb1piZjhBNzlTLy9FMUl2eDU4QXNvSThUV3VQZEhIL3N0WkgvRE1udysvNkJVLy9nWkwvd0RGVXgvMllQQURuSTA2NVQyVzhrL3FhZkxsZmVmL0FKS0srWmRvZitURzRueDA4Qk9jRHhOWmo2N2gvTVUvL2hkL2dUL29aN0gvQUw2UCtGYzYzN0xuZ0lnZ1dWMlBjWGIwei9obGp3SC9BTSs5OS80Rm4vQ2pseXorYWYzSWZObVg4c1B2WjFJK05QZ1lnSC9oS05PNTlaYWVueGs4RHlIQThVNllQOTY0QS9uWEh0K3lwNEZaaVFtb3FQUVhYLzFxWS83S1BnZGh3ZFRUM0Z5UDZyUnlaWi9QUDdrTG56SCtTSDNzN2IvaGIzZ24vb2F0Si84QUFwUDhhNjRFTUFRY2c5RFhqUDhBd3lkNEkvNTZhci80RXIvOFJYc3FJSTBWUjBVWUZjV0pqaG8yK3J5YjczUjJZZVdKbGY2eEZMdFpqcUtLSzRUdENpaWlnQW9vb29BS0tLS0FDaWlpZ0Fvb29vQUs0M3h2OFdmRDN3OTFuUzlNMW1hZUs1MUczdUxxSHlvVElvamdNUWtac2NqbWFJRGprc0FLN0t2a2Y0eFFhcDQzL2FlbHRkRTFXZTNtMG5SN1BSNDdXTzN0NVZsdUxxU2U4a3o1Nk9vQ0pwOXU1SUdjbGVjY0hXbERubW8yL1RUcnY1RVRseXhiUG9YVmZpem9HaitPaDRSdUpMaisyVEJiVGhVaExSNHVKSlk0UVdIUWxvSmVPd1VrOFZKOFAvaVhZZkVLSzgreldWN3B0MVplVUxxMHZoR1pJSGRTd2pab25kTjRBNUFZNHlNODE4VGF4ckd2YWZxZnhhMXk3OFIzT3MrSWJhYTVzTEs4YU9PS1F6VzFqSFoyeWp5bFZRRnU5WGxBSUFKTVpQQk5lbWVLTk0xdndwNGk4TTNPcVJTMy9oYTh1Ylh3N2JSdk9yWE5uY0pkVHh4M2dTUlhSL01qTURTdGxabzBoREtTQklLNlBZeFVFM3UxMzIxZlMydWkvRXk5bzNKcGJML0pmNW4wL3J2ampRL0RPcTZmcHVwNmpGWjN1b0pMSmJSU1p6SXNRVXlOd09BdTVjay8zaFc3WHhWZmFIQjR3L2FCOEozVmxmUzYzcXRqNFkwMjZndnI1MlNWSTd1NWxra25FSWZhUExodGRwd0NQM3loczhWeWJhenIzanI0WlgzaXNhemRRZUxkUmRZTkNoaXVwQlBIcVQza2lKYlFqZVBLaXRZWWxFeUJmbUFsZVFuSkltV0g1VS9lV2wvdzAyODMvU3NOVmJ0YWIyUDBCb3I0dDEveDAzajM0bGFyL2FtdTNDK0dQRDBWcmNSUmk2bFJsdEpiZVc4YTRXT0tSSGxuY2VSYlJ0a2xURzVVYm1Kcmp0RzhjZUo3VHdYNEVrbjhTYXM5MWNNdXQzaGE1THl5UkpaWE9veXhNM1FGMzFLeWgzQVpVS01ZS3JockN5azdKNjl2bnkvTFVIV1MxZTMvQUFMbjZCZGFXdmlhNGE2SHhCdS9ER3UzNXNiRHdqQlpMUGFXbDNjNC9lVzh0M2NYRWFMS0pwcHBIOHUzaVlzektVa0tqY3hybDlEOGNlS0xUd2Q0RWVieEhxcjNkd1YxdThaN2d5U3lSSlkzV295eE1Ua1plVFVyR0RJR1Z3TVkycmdqaHBTMGkwMy9BTUZSL0YvZ0RxcGJyK3JYUDBCb3I0R3VMUy8wZy9GbXd2dFZ1NS9EMXI1MTFmMlVHcFhCaXQ1YkxTWUpyNldKeko1bVh1TGlKRkRNVkJSbTJsZ0N2MDcrekpjNjdMOFBtdE5mdXA3eTgwMlMzMDB6WERsM2VTR3l0bzUyTEhrbHAxbVk1NTNNMVJMRHlqRnpiVnQveHQvbjhocXFtK1grdHJucmxGRkZjeHNGRkZGQUJYei9BUEd2OXNuUS9ndDhVN1g0ZS84QUNBZkVEeDM0a3VORlRYdkk4RmFNbW8rWGF0UEpCdWRmT1Z4aDQ4RTdkbzNwems0cjZBcjVWLzV5bS84QWRHZi9BSE9VQUgvRGZYL1Z1WDdRSC9oRGYvYjZQK0crdityY3YyZ1AvQ0cvKzMxOVZVVUFmS3YvQUEzMS93Qlc1ZnRBZitFTi93RGI2UDhBaHZyL0FLdHkvYUEvOEliL0FPMzE5VlVVQWZLdi9EZlgvVnVYN1FIL0FJUTMvd0J2by80YjYvNnR5L2FBL3dEQ0cvOEF0OWZWVkZBSHlyL3czMS8xYmwrMEIvNFEzLzIrai9odnIvcTNMOW9EL3dBSWIvN2ZYMVZSUUI4cS93RERmWC9WdVg3UUgvaERmL2I2UCtHK3YrcmN2MmdQL0NHLyszMTlWVVVBZkt2L0FBMzEvd0JXNWZ0QWYrRU4vd0RiNlA4QWh2ci9BS3R5L2FBLzhJYi9BTzMxOVZVVUFmS3YvRGZYL1Z1WDdRSC9BSVEzL3dCdm8vNGI2LzZ0eS9hQS93RENHLzhBdDlmVlZGQUh5ci93MzEvMWJsKzBCLzRRMy8yK2ovaHZyL3EzTDlvRC93QUliLzdmWDFWUlFCOHEvd0REZlgvVnVYN1FIL2hEZi9iNlArRyt2K3JjdjJnUC9DRy8rMzE5VlVVQWZLdi9BQTMxL3dCVzVmdEFmK0VOL3dEYjZQOEFodnIvQUt0eS9hQS84SWIvQU8zMTlWVVVBZkt2L0RmWC9WdVg3UUgvQUlRMy93QnZyMHI5bkg5cHJRLzJtTks4U1h1aWVHdkZIaHIvQUlSL1UyMGUrdHZGRmdscE1sMGlneVJiVWtmREprQmxiREtTTWptdllLK1ZmMkJmK2JqZit5emVJLzhBMjNvQStxcUtLS0FDaWlpZ0Fvb29vQUtLS0tBQ3ZtZi9BSUtSK0o5WThIZnNXZkViVnRBMWErMFBWWUYwOVlyN1RibDdlZU1QcU5zamhYUWhnR1JtVTRQSVlnOEUxOU1WOHEvOEZSLytURS9pYi8zRFAvVHBhVUFIL0R1L3drL0Uvd0FUL2kzZFI5NDV2R014VS9rb29QOEF3VGorSFVveGMrTHZpUmVZKzc1L2kyNU8zNll4WDFWUlFCOHEvd0REdG40U1NBZmFMN3hyZE9PUE1tOFZYaGJIcHc0cHgvNEpvZkF4M0R5Nlo0aW5mamMwbmlhL0piNi92YStxS0tBUGxkZitDWWY3T2VUNXZnaTl1RVlFTWt2aUxVdHJaOWNYQXA4SC9CTUw5bVcyM2JQaGpHZDNYek5hMUYvNTNCeFgxTFJRQjh6dy93REJOajlteUJOcS9DNnlJNi9QcUY0eC9NekUxZGovQU9DZUg3T2NRVUw4S3RITzNHTjBrN2ZubVRuOGEraTZLQVBBb2YyQ1AyZW9KQTYvQ2J3NlNPendNdy9JdGlyc0g3RC9BTUFyYmRzK0VmaE01NitacHFQL0FEQnIzQ2lnRHh5SDlqWDRFUUp0WDRQK0NpT3Z6Nkhic2Z6S0UxNVIreXg0SThPK0F2MnlmMm45SThOYUZwdmgvU3JPMzhLcmIyV21Xa2R2RENIc3JoMzJvZ0FHNXZtT09wNU9UWDExWHkvOEJQOEFrK1A5cXIvcmo0Uy85SUxpZ0Q2Z29vb29BS0tLS0FDaWlpZ0Fvb29vQUtLS0tBQ2lpaWdBb29vb0FLS0tLQUNpaWlnQW9vb29BS0tLS0FDaWlpZ0Fvb29vQUtLS0tBQ2lpaWdBb29vb0FLS0tLQUNpaXVFVDQxK0Y1dkg5NzRNdHhybDVyZGpkUjJWMjFwNGMxR2V5dHBuZ2p1RlNTOVNBMjZIeXBvbk82UVlEcm5CTkFIZDBWeW1uL0V2U05TOFpYUGhpR3o4UUpxVnZ1M3ozSGh6VVliRTdSazdiMTRCYnYxNDJ5SFBiTlJlSHZpcm92aWU2MWEzczdMeEpESnBpTkpPZFI4TDZuWkk0VWtIeVhudDBXYzhjQ0l1VHdRRGtVQWRoV0JKNEYwT1h4UkQ0aWF5enE4TE15VGlhUUFNWS9MTGJOMjBuWjh1U01nRStwckkwZjR2YUZybmh6Vk5jdHJEeFJIWmFiano0cnp3bnF0cmRQbi9uamJTMnl6VC9BUGJKR28vNFc5b1gvQ0cvOEpQOWc4VWYyYjUzMmZ5UCtFVDFYN2R1empQMkw3TjlvMi83Zmw3ZmVxaktVZmhkaE5KN2x4L2hkNFlrMUc5dmpwcCsxWGd4TklMaVVaL2ZDWWxRR3doOHdCc3JnNUE5S3pMbjRGZUI3dEpoSm9mNzZlRVc4MTJsM09sek5GamJzZWNPSkhYSEdHWTVIRlQ2eDhYdEMwUHc1cGV1WE5oNG9rc3RTejVFVm40VDFXNnVreC96MnRvclpwb1ArMnFMVTNpSDRxNkw0WXV0SnQ3eXk4U1RTYW1peVFIVHZDK3AzcUlHSUE4NTRMZDFnUFBJbEtFY2tnWU5hS3RWVnJTZW5tUjdPRDZJTmQrRVhoRHhKRkRIZmFKQ3dodEJZUk5CSThEUjI0QkhsSzBiS1FtQ1JnSGtIQjRxdnFmd1Q4RmF2Y1g5eGNhR2kzTi91KzF6Mjl4TEJKY0Jqa3JJMGJxV1UvM1NjZTFYZFErSmVrYWI0eXR2REUxbjRnZlVyamJzbnQvRG1veldJM0RJM1hxUUczVHB6dWtHTytLTFA0bDZSZmVOSi9DMGRuNGdYVTRkMjZlYnc1cU1WZ2NMdU8yOWFBV3pjSGpiSWNuZ1pQRkpWcWtiV2s5UE1iaEI3b1RWL2hUNFQxd045cTBTMzNOcHo2U0pJQzBMcGFNakkwS3NoQlZkckVmS1JqZ2pCQU5WditGTStEaFlpekdqaGJZVGVmNWEzTXdHNzkwTWNQeXVJSVJ0KzdoQU1WTjRlK0tXamVKOVMxV3hzN0x4SERQcHF1ODc2aDRZMUt5aWNLMkQ1TXM5dWlUblBRUk14STVHUnpVT2lmRjdRdkVIaC9WdFp0YkR4UkZaNllvYWVPOThKNnJhWExqR2YzTnZMYkxMT2VPa1NQU2pWcVJkNHlhZnFEaEZxelJwNng4UGZEK3U2MG1zWG1uaHRWU0lRTGZSU3lSVENQT2ZMM293TzA1T1Z6ZzU1QnJNUHdhOElHMGEyT2xPMExYRFhUQnJ5Y2xwRDVXY25ma3IrNGkrVDd1RUF4aWhQaTlvVW5nMlR4T0xEeFFOTlNiN09ZRzhKNnFMNHRrRElzamJmYUN2UDN4SHQ2ODhHalZmaTlvV2plR05NMSs0c1BGRWxqcUxGWVlyVHducXR4ZG9Sbi9XMnNkczAwSTRQTWlMMjlSVGpWcVEwakpyNWc0Umx1aTdKOE0vRFV1cDM5KyttQjdtK3Q1TFc0TFRTRkdqa1pYa1VKdTJydVpWSklBSjJpdGJ3LzRkMC93dHB2MkRUWVdodHZObG5JZVY1V2FTUjJrZG1keVdKTE14NVBlc0R4RjhWOUU4THZwQzNsajRsbU9xUnJMQi9aM2hiVTcwSURqQW1NRnUva0g1aGxaZGhIT1J3Y1RhcDhTOUkwanhoYWVHWjdQeEJKcU4xczh1ZTE4T2FqY1dLN3M0MzNrY0RXOGZUbmZJTWNaeGtVblVuSmNyYnNOUmluZEk2dWl1VXMvaVhwRjk0MG44TFIyZmlCZFRoM2JwNXZEbW94V0J3dTQ3YjFvQmJOd2VOc2h5ZUJrOFZINGUrS1dqZUo5UzFXeHM3THhIRFBwcXU4NzZoNFkxS3lpY0syRDVNczl1aVRuUFFSTXhJNUdSeldaUjE5RmNWb254ZTBMeEI0ZjFiV2JXdzhVUldlbUtHbmp2ZkNlcTJseTR4bjl6YnkyeXl6bmpwRWowSjhYdENrOEd5ZUp4WWVLQnBxVGZaekEzaFBWUmZGc2daRmtiYjdRVjUrK0k5dlhuZzBBZHJYeE9maTk0RVgvZ3BtZFlQalh3Nk5JSHdrK3dHL09xd2VSOXAvdG5mNUhtYjl2bWJmbTJaempuRmZVZXEvRjdRdEc4TWFacjl4WWVLSkxIVVdLd3hXbmhQVmJpN1FqUCt0dFk3WnBvUndlWkVYdDZpdnpzOFQvc1c2SjRkLzRLSGFUNDZ2TkIxK2I0V2FvcWVMWW85TzhNNmhlcW1vczR4YVRKQkE1aC9mZnZ5c3FxQW1VT0tBUDFJb3JsTlUrSmVrYVI0d3RQRE05bjRnazFHNjJlWFBhK0hOUnVMRmQyY2I3eU9CcmVQcHp2a0dPTTR5S0xQNGw2UmZlTkovQzBkbjRnWFU0ZDI2ZWJ3NXFNVmdjTHVPMjlhQVd6Y0hqYkljbmdaUEZBSFYwVnlYaHY0b2FQNHExWFU5UHNyUHhGQmNhY3JOTStwZUdkU3NZWEN0dFBsU3oyNkpNYzlCR3pFamtaSE5WOUIrTDJoZUk5RDFmVnJTdzhVUTJ1bHA1bHhIZitFOVZzN2h4Z245ekJOYkpMT2ZsUEVTdWM0R01rWkFPMW9yaW9maTlvVS9nMmZ4T3RoNG9HbXd6QzNhQi9DZXFyZkZzcU1yWkcyRnd5L01QbldNcjE1NE9EVXZpOW9XaytGTk44UlQySGloN0RVSE1jTU50NFQxV2U4VWpkL3JiU08yYWVFZktlWkkxSFRuNWhrQTdXaXVNOFIvRm5SUEMwV2p5WGxqNG1tWFZZaE5ialR2Q3VxWHhSVHQ0bkVGdTV0MitZZkxOc1BYajVUaXhxL3dBUzlJMFB4ZFplRzdpejhRU2FqZWJQTG1zL0RtbzNOa3U4a0R6THlLQnJlUGtjNzVGMmpCT0FRYUFPcm9ybExmNGw2UmMrTjVQQ2lXZmlBYXBIbk54SjRjMUZOUE9FMzhYelFDMlBIcEtjbjVmdmNVM3cvd0RGRFIvRTJ0YXBwZG5aK0lvYm5UbGRwcE5ROE02bFpRT0ViYWZLbm50MGptT2VnaVppdzVHUnpRQjF0RmNWb1B4ZTBMeEhvZXI2dGFXSGlpRzEwdFBNdUk3L0FNSjZyWjNEakJQN21DYTJTV2MvS2VJbGM1d01aSXlRL0Y3UXAvQnMvaWRiRHhRTk5obUZ1MEQrRTlWVytMWlVaV3lOc0xobCtZZk9zWlhyendjQUhhMFZ4V3BmRjdRdEo4S2FiNGluc1BGRDJHb09ZNFliYnducXM5NHBHNy9XMmtkczA4SStVOHlScU9uUHpETHZFZnhaMFR3dEZvOGw1WStKcGwxV0lUVzQwN3dycWw4VVU3ZUp4QmJ1YmR2bUh5emJEMTQrVTRBT3pvcmxOWCtKZWthSDR1c3ZEZHhaK0lKTlJ2Tm5seldmaHpVYm15WGVTQjVsNUZBMXZIeU9kOGk3UmduQUlORnY4UzlJdWZHOG5oUkxQeEFOVWp6bTRrOE9haW1ubkNiK0w1b0JiSGowbE9UOHYzdUtBT3Jvcmt2RC93QVVOSDhUYTFxbWwyZG40aWh1ZE9WMm1rMUR3enFWbEE0UnRwOHFlZTNTT1k1NkNKbUxEa1pITlY5QitMMmhlSTlEMWZWclN3OFVRMnVscDVseEhmOEFoUFZiTzRjWUovY3dUV3lTem41VHhFcm5PQmpKR1FEdGFLNHUzK0xlaDNQZ3k1OFVKWStKeHBsdk1JSGdrOEthb2wrV0pVWlN5YTJGdzYvT1BtV01yZ01jNFZzSmYvRjdRdE44SWFmNGxtc1BGRDZkZlNtR0tHMzhKNnJOZXF3M2N5V2FXeHVJbCtRL05KR29PVjUrWmNnSGExOHEvc0MvODNHLzlsbThSLzhBdHZYMUJwV294YXhwbG5md0pQSEJkUXBQR2wxYnlXOHlxeWhnSGlrVlhqYkI1UjFES2NnZ0VFVjh2L3NKY2E1KzBtQndQK0Z0YTBjZSsyRE5BSDFWUlJSUUFVVjVwcTM3VGZ3ZTBEVmIzVE5UK0svZ2ZUdFNzcG50cnF6dS9FZG5GTkJLakZYamRHa0JWbFlFRlNBUVFRYXEvd0REV1B3US93Q2l5ZkQvQVA4QUNvc2YvanRBSHF0RmVWZjhOWS9CRC9vc253Ly9BUENvc2Y4QTQ3Ui93MWo4RVA4QW9zbncvd0QvQUFxTEgvNDdRQjZyUlhsWC9EV1B3US82TEo4UC93RHdxTEgvQU9PMGY4TlkvQkQvQUtMSjhQOEEvd0FLaXgvK08wQWVxMThxL3dEQlVmOEE1TVQrSnY4QTNEUC9BRTZXbGVxLzhOWS9CRC9vc253Ly93RENvc2YvQUk3WHdYL3dWazhVZUFmaXg4TDlJOFNlQmZpLzRiMWZVdExtV3oxTHc3cEhpaTNtL3RDMGR3eVA5bmpsUG1ORktGUENraFhaandnd0FmcVRSWHlOK3lMOFZmaFA4RmZnSDRaOFBlSS9qeDRNMWp4UThQMjdWN3EvOFpXbHcvMnFYRFBHR2FZL0xHTnNZeHdRbWVwTmV5ZjhOWS9CRC9vc253Ly9BUENvc2Y4QTQ3UUI2clJYbFgvRFdQd1Evd0NpeWZEL0FQOEFDb3NmL2p0SC9EV1B3US82TEo4UC93RHdxTEgvQU9PMEFlcTBWNVYvdzFqOEVQOEFvc253L3dEL0FBcUxILzQ3Ui93MWo4RVAraXlmRC84QThLaXgvd0RqdEFIcXRGZWYrRnYyaGZoWjQ1MTIxMFR3MzhTL0IvaURXcnJkOW4wN1M5ZXRibTRtMnFYYlpHa2hac0tyTWNEZ0tUMEZlZ1VBRkZGRkFCWHkvd0RBVC9rK1A5cXIvcmo0Uy84QVNDNHI2Z3I1ZitBbi9KOGY3VlgvQUZ4OEpmOEFwQmNVQWZVRkZGRkFCUlJSUUFVVVVVQUZGWVd1YTVxRm5yTmhwdW0yRnRlVDNOdlBjTTExZHRBcUxHMFM0RzJOeVNUTU93Nkd1ZDhPL0VtNjhXNnJybW02TXZodlVyL1E3a1dtcFc5dnJrck5iU2xjN1dIMlg2akk0M0k2NTNJd0FCMzlGWjNoelYvN2Y4UGFYcW5sZVI5dHRZcm55dDI3WnZRTnR6Z1p4bkdjQ3RHZ0FyekQ0My9IN1NQZ0ZiNkRmK0l0RTFxNjBIVTc1YkdmV3RPamdrdHRMTGMrYmRCNWxrRVFRU096eG80VlluSng4b2IwK3ZIL0FOb0tYUk5TdVBCdmgzeEJvbXM2M28rcVg5MURmeGFib043cU1LMjBtbjNWczNuUGJ3eUxFQzF6R3VYSzhFdDBSaUFEby9qWDhaZEcrQlhnbi9oSk5hdEwvVWtrdkxld3R0TzBwSTN1cnFlYVFJcVJpUjBUZ2JuWXM2Z0tqSFBHS3FmRkg0MEg0VWZEL1R2RmVwZUMvRWVvUTNNbHJCYzZkcDcyRFhWaExjT2tVYVRlWmRKR3g4MlZJeVlua0FKemtvQzFmTDNqSFIvRzlqOEJienc5NHcwRHhIcStwZUViMjE4TDZIUHB1ajNlb1NheERGZndUblVXanQ0NU1BMlVGdW9sYmJpUVhTZFhBUHMzN1grcVJlS1AyZDF0clBTZkZHcEhYYjdTSm9iYlI5RDFKNzVJVXZyYTRsWjQ0SXZPdG1XRkhQemlOMVpkb3crQlFCNmg0RThmNnA0dnY3KzAxVHdCNG04RlBheFJ5cEpycldFa2R5SExqRWIybDFPdTVkbnpLeFVnTXBHYzEyZGZMUHhzK0VuOW1mQTZPTHdZZkdkOTRmMW54RFk2ejRpdFpQTjFmV0p0T2FDT0dhUHlOU2pubG53c2NETmJ6cEkyMUhUWndJeDQ1NDIrRnVqNkw4TGJMd2hwbnc3OFIrTC9BQS9mSFhialJOYzhaZUZieStUU0dsVzFMUnc2SFkyVUgyVjVaak9zTFNwYmlBTExLanNyK1M0Qjk2Vy9pclNicnhSZStISWI2T1RXN0swaHZyaXpYTytLQ1o1RWljOFl3elF5Z2M1K1ExcTErYitvZkE5dmlEb0h4QWx2dmhOZmFoNHI4U2ZDTFRvdE52OEFXUERMTE9OWHRvYjZPY3lUelJqeXJscEk3UEFaaEsrWUd4dFFzalBqdHBiK09OWDhYYWhwUHd2K0lTNmZyZmg3d2xETHFGaDRZMUd5ZTZ2clBVNXpjQ2VLTkV1SkN0cUFBenhzbzhpTGtmNk9YQVAwam9yNFErTXZ3QjBuVXZpWk5wemFCNHYwTHdndWpXVS9nTzI4QStHTFQ3Tlkzd21sbG5pV1Z0UG1mUjUzbmVDUXo1dDFZY3lPZkt3dmYvQ1R3OXFHaWZ0UjZ2TkRvRi9mMjE1TnJFMS9xK3FhQmY2WmRXVEdaUEwzWDJmc1dxd3ZnckJnQ2VDRmtVWVZaVlVBK3NLS0tLQUNpaWlnQW9vb29BS0tLS0FDaWlpZ0Fvb29vQUtLS0tBQ3VVOEc2L3JtcytJL0hkcHEybS9ZYkRTZGFqc3RJbjhoNC90bHFkT3M1MmwzTVNKTVhFOXpIdVRDL3V0dU55c1QxZGNwNE4vNFNmOEE0U1B4My9iL0FQeUN2N2FqL3dDRWUvMVgvSGgvWjFudis1ODMvSDM5dC8xbnplbnliS0FPcm9vb29BS0tLS0FDaWlpZ0Fvb29vQUtLS0tBQ2lpaWdBb29vb0FLS0tLQUNpaWlnQW9vb29BS0tLS0FDaWlpZ0Fvb29vQUtLS0tBQ2lpaWdBb29vb0FLNVQ0c2VPdjhBaFYvd3M4WmVNdnNQOXAvOEk3b3Q3cS8yTHpmSyswZlo0SGw4dmZ0YmJ1MlkzYlRqT2NIcFhWMTVWKzFqL3dBbXNmR1Qvc1ROWi84QVNHYWdBLzRTUDQzL0FQUlBQaC8vQU9GNWZmOEF5bW8vNFNQNDMvOEFSUFBoL3dEK0Y1ZmYvS2F2VmFLQVBDdkRQeForTVBpcld2Rm1tV253MzhEeDNIaHJVMDBxOGFieDFlQlpKV3NyYThEUmthT1NWOHU3akdTQWR5dU1ZQUo2RC9oSS9qZi9BTkU4K0gvL0FJWGw5LzhBS2FqNE4vOEFKUmZqdC8yT2R0LzZqMmpWNnJRQjRwNGkrS254VDhEUmFWZitKUGgvNFBoMFc2MXJTOUl1SnRMOFpYVnpjUS9iYjZDeldSSW4wcUpYMnRjS3hVeUxrS2VjMTdYWGxYN1MzL0pPdEkvN0hQd24vd0NwRHAxZXEwQWNwOEo0L0UwWHdzOEdwNDBiZjR4WFJiSmRiYk1aemZDQlB0QnpIOG4rczMvYytYMDR4WGdIN0NmL0FDSHYyay8reXM2ei93Q2d3Vjc5OEpQRCtyK0UvaFQ0TDBQWDlUR3RhN3BtaTJWbHFHcENaNWhkM0VjQ0pMTjVqNFo5N3F6Ym01T2NubXZBZjJFLytROSswbi8yVm5XZi9RWUtBUHFxaWlpZ0Q4VVBpUi95VnY0bC93RFk1Ni8vQU9uUzVyQXJmK0pIL0pXL2lYLzJPZXYvQVBwMHVhd0sraHBmdzQraVBJbjhiOVQxajlrSC9rN2I0Uy85aERVUC9UUGYxK3UxZmtUK3lEL3lkdDhKZit3aHFIL3BudjYvWGF2S3hYOFE3Nkh3Qlg1a1JmOEFJeCtPZit4ejhTZitubThyOU42L01pTC9BSkdQeHovMk9maVQvd0JQTjVYdWNPLzcxTC9DL3dBMGVGbi9BUHVzZjhTL0psbXZKLzJobERhWjRRQkFJT3VFRUh2L0FLRGQxNnhYbEg3UXYvSU84SC85aHovMnh1Nit6eC8rN1QvcnFmSVlEL2VZSG0xRkZGZkVuM0orbi84QXdUeC81Tko4Si84QVlRMXYvd0JQRjdYMGZYemgvd0FFOGY4QWswbnduLzJFTmIvOVBGN1gwZlh6a3ZpWjdNZGtmUDN4dC81T0srR3YvWXErSlA4QTByMFNyZFZQamIveWNWOE5mK3hWOFNmK2xlaVZicjV6Ry94ano2L3huTGEzL3dBbGkrQ0gvWTFYZi9wZzFldnArdm1EVy84QWtzWHdRLzdHcTcvOU1HcjE5UDE2V0MvZ25WUStBS0tLSzd6b0N2bGY0RHlzUDI4djJwSWdma2EwOEtzUjdpeGx4L00xOVVWOHEvQW4vay9qOXFML0FLOHZDLzhBNlF5VUFmVlZGRkZBQlJSUlFBVVVVVUFjQjhTZkR0OTR0MUJkRzAzWEx2dzFmM3VoYWpERHExaXFtYTJZeTJtR1hQNUhCVnNFN1dSc01PQStIbnc4OFgzSHhIOFVYZDM0bzhaYVRZNmY0b2l2ZitKaEJwcXdhOUNOTmlnUE1NWUpVbFZ5Y0JBaW9BcXpxN3hlMjZ2NGMwblgvSy90VFM3TFV2Sno1ZjJ1M1NYWm5HY2JnY1p3T25vS3p2OEFoWFhoUC9vV05HLzhGOFgvQU1UVEFQaDEvd0FrKzhNZjlndTEvd0RSUzEwVmZPSHdjK0RtaStQdkRHczZ4ckdzK05mdGYvQ1ZlSTdOSTdEeHhyVmpid3dXK3RYdHZCRkZCQmRwRkdpUlJSb3Fvb0FDamlvZmpoOEV0RjhIK0M5TnY5SThRL0VDMHU1dkUzaDdUM2svNFdIcjc1Z3VkWnNyYWRNTmVrZk5ETkl1ZW8zWkJCQUlRSDByUlh6ViswTDhFdEY4RGZBTDRsK0pORThRL0VDeTFyUi9ET3A2aFkzUC9DdzlmazhtZUsxa2tqZmE5NlZiREtEaGdRY2NnaXZRUCtHYWZDUC9BRUYvaUIvNGNmeEQvd0RKMUFIcXRGZVZmOE0wK0VmK2d2OEFFRC93NC9pSC93Q1RxOC8wWDRKYUxkL0gzeGw0Ymw4US9FQjlGMC93em9lb1cxdC93c1BYeDVjOXhkYXRITSs0WHU0N2x0WUJna2diT0FDV3lBZlN0RmVWZjhNMCtFZitndjhBRUQvdzQvaUgvd0NUcVA4QWhtbndqLzBGL2lCLzRjZnhELzhBSjFBSHF0RmZOWDdQWHdTMFh4ejhBdmhwNGsxdnhEOFFMM1d0WThNNlpxRjljLzhBQ3c5Zmo4NmVXMWpra2ZhbDZGWExNVGhRQU04QUN2UVArR2FmQ1A4QTBGL2lCLzRjZnhEL0FQSjFBSHF0RmZOWHhMK0NXaStIL0dud25zTER4RDhRTGUwMXp4TlBwK29SL3dEQ3c5ZmJ6NEYwYlU3a0prM3BLL3ZyYUZzcmcvSmpPQ1FmUVA4QWhtbndqLzBGL2lCLzRjZnhELzhBSjFBSHF0RmVWZjhBRE5QaEgvb0wvRUQvQU1PUDRoLytUcTgvL1o2K0NXaStPZmdGOE5QRW10K0lmaUJlNjFySGhuVE5RdnJuL2hZZXZ4K2RQTGF4eVNQdFM5Q3JsbUp3b0FHZUFCUUI5SzBWNVYvd3pUNFIvd0NndjhRUC9EaitJZjhBNU9vL1ptZTQvd0NGWFhGdmNYK29hbjloOFRlSk5QaHVOVXZwcjI0OGkzMXUrZ2hSNXBtZVI5a1VhSUM3RTRVYzBBZXEwVVVVQUZGRkZBQlJSUlFBVVVVVUFGRkZGQUJYS2VEZEExelJ2RWZqdTcxYlV2dDFocTJ0UjN1a1FlZThuMk8xR25XY0RSYldBRWViaUM1azJwbGYzdTdPNW1BNnV1SzhBZUc3SFEvRmZ4S3ZiVFdyZlZMaldmRUVOOWVXa08zZHBzcTZWcDl1TGVUREU3akhieHpjaFR0dUU0eGhtQU8xcHJ1STFMTjBIb00wNm9iei9qM2I4UDUxTW5aTmpXckQ3WEY2dC8zeWY4S1B0Y1hxMy9mSi93QUs1N3cvZnlhbnBNTnpLQUhjdURqcHd4SDlLMGE0YWVKZFNDbkhaNm0wcWZLM0Y5RFErMXhlcmY4QWZKL3dvKzF4ZXJmOThuL0NzK2l0UGJTSjVVYUgydUwxYi92ay93Q0ZIMnVMMWIvdmsvNFZuMFVlMmtIS2pRKzF4ZXJmOThuL0FBbysxeGVyZjk4bi9DcytpajIwZzVVYUgydUwxYi92ay80VWZhNHZWdjhBdmsvNFZuMFVlMmtIS2pRVzZqWmdBVGs4ZmROVFZtUS82MVA5NFZwMXZUazVyVWlTc0ZNa2xTSUF1Nm9DY0FzY1Urc254UGVIVDlJbXVRdTd5VmFUYjY0VmpqOUt1VHNya04yVnpRKzJRZjhBUGVQL0FMN0ZIMnlEL252SC93QjlpdWEwaS9PcDZWWjNoWFliaUZKZHVlbTRBNC9XcmVUNm1zMU82dWlVN20xOXNnLzU3eC85OWlqN1pCL3ozai83N0ZZdVQ2bWpKOVRUNW1PN05yN1pCL3ozai83N0ZIMnlEL252SC8zMkt4Y24xTkdUNm1qbVlYWnRmYklQK2U4Zi9mWW8rMlFmODk0LysreFdMaytwb3lmVTBjekM3TnI3WkIvejNqLzc3RkgyeUQvbnZILzMyS3hjbjFOR1Q2bWptWVhadGZiSVArZThmL2ZZcDhjMGMyZkxkWHgxMm5PS3dzbjFOWHRJT1huL0FPQS8xcHFWM1lMbWxSUlJXaFFVVVVVQUZlVmZ0WS84bXNmR1Qvc1ROWi85SVpxOVZyeXI5ckgvQUpOWStNbi9BR0ptcy84QXBETlFCNnJSUlJRQjVWOEcvd0Rrb3Z4Mi93Q3h6dHYvQUZIdEdyMVd2S3ZnMy95VVg0N2Y5am5iZitvOW8xZXEwQWVWZnRMZjhrNjBqL3NjL0NmL0FLa09uVjZyWGxYN1MzL0pPdEkvN0hQd24vNmtPblY2clFCeFh3UThQYWY0UytDL2dIUXRJMW1IeEZwV21lSDlQc3JQV0xjQVIzME1kdEdrYzZiV1liWFZRNHd4R0c2bnJYaFg3Q2YvQUNIdjJrLyt5czZ6L3dDZ3dWN3I4RUxidzdaZkJmd0RiK0VMdTR2L0FBbkQ0ZjArUFI3dTdCRTAxa0xhTVFPNEtxUXpSN0NmbFhrbmdkSzhLL1ljL2MrTVAybHJkZVVYNG82bktDZXVYamhKL0RpZ0Q2cW9vb29BL0ZENGtmOEFKVy9pWC8yT2V2OEEvcDB1YXdLdGZGWHhKYVdIeGsrSjBFc04renA0ejE3SmcwNjRsVG5VN2s4TWlGVDE3R3VhL3dDRXdzUCtmZlZmL0JSZC93RHhxdmZwU2p5UjE2SThtY1h6UFE5ei9aQi81TzIrRXY4QTJFTlEvd0RUUGYxK3UxZmpIK3l6OFJOSzBQOEFhZjhBaGhxVnphYTdKYjJ0OWZOSWxuNGZ2N21kZzJsWHFEWkRGQzBraHl3SkNLU0FHWTRWV0kvVWYvaHBid2ovQU5BajRnZitHNDhRL3dEeURYbDRwcDFORHVvSzBEMVd2eklpL3dDUmo4Yy85am40ay84QVR6ZVY5eGY4TkxlRWYrZ1I4UVAvQUEzSGlILzVCcjg3NHZpam93MS94ay8yTHhIdG04VzYvY0tQK0VaMUxJV1RWcnAxREQ3UGxXQVlCa2JES2Nxd0RBZ2Uza0U0d3hVbkoyOTEvbWp4TTlqS2VHaW9xL3ZMOG1kdlhsSDdRdjhBeUR2Qi93RDJIUDhBMnh1NjZqL2hhbWkvOCtYaVQvd21OVC8rUjY4eitPbnhBMHZWTER3cXNOcnJhR0xXZk1iN1JvTjlBQ1BzZDB2eWw0UnVPV0h5akp4azR3Q1I5aGpxMU40ZWFVbDkvbWZLWUdsVVdJZzNGL2NjMVJXSi93QUpoWWY4KytxLytDaTcvd0RqVkgvQ1lXSC9BRDc2ci80S0x2OEErTlY4WnpSN24ydksreCtyWC9CUEgvazBud24vQU5oRFcvOEEwOFh0ZlI5ZkZ2N0NmeDM4TitGLzJZUERHbTNtbWVNcHJpSysxaG1mVHZBK3RYc0JENnJkdU5zMEZvOGJIREFFQmlWT1ZPR0JBOTkvNGFXOEkvOEFRSStJSC9odVBFUC9BTWcxODlMNG1ldkhaSEovRzMvazRyNGEvd0RZcStKUC9TdlJLdDE1ZjhYL0FJOWVHdFErUFB3K3ZvdE04YUpEYitHdGZoZFovQTJ0eFNscExyUnlwU043TU82Z1J0dVpRVlVsQXhCZEExci9BSVg1NFovNkJualgvd0FJVFhQL0FKRHI1N0dSazZ1aU9DdW01Nkc3cmY4QXlXTDRJZjhBWTFYZi9wZzFldnArdmpUVGZpZG8valQ0NS9CV3gwK3o4UTI4MGZpVzhtTGF0NGExSFRZaW8wSFZSZ1NYTUVhRnNzUGxCTEVaT01Ba2ZaZGVqZ2sxU3N6cG9LMEFvb29ydU9nSytWZmdUL3lmeCsxRi93QmVYaGYvQU5JWksrcXErVmZnVC95ZngrMUYvd0JlWGhmL0FOSVpLQVBxcWlpaWdBb29vb0FLS0tLQUNpaWlnRHlyOW1uL0FKSjFxLzhBMk9maXovMUlkUm8vYVcvNUoxcEgvWTUrRS84QTFJZE9yei80SmExOFU3VHd2NGhpOE4rRGZCK3E2S3ZqUHhWOW52TlU4VzNWamNTZjhUKy9MYjRVMHlaVXcyNERFalpBQjRKMmpWK0pla2ZHL3dDSW5oeXowci9oQ3ZoL3AvMmZXdEoxZnp2K0UzdnBkMzJMVWJlOTh2SDlqcmpmOW4yYnMvTHYzWWJHQ0FkWCsxai9BTW1zZkdUL0FMRXpXZjhBMGhtcjFXdmwvd0RhYjEvNHd6ZnMyL0ZlUFUvQXZnZXowMS9DV3JMZFhGcDQwdko1b29qWnk3M1NOdEpRT3dYSkNsMEJJQUxMbkk5TC93Q0VqK04vL1JQUGgvOEErRjVmZi9LYWdEMVd2S3ZEbi9KMC93QVEvd0RzVFBEWC9wZHJ0SC9DUi9HLy9vbm53LzhBL0M4dnYvbE5YbW1nYS84QUdFZnRKZU9wSS9BdmdkdFNid2w0ZVdlM2J4cGVDRkloZWExNWJySi9aSkxNekdVTXBSUW9SQ0dmZVFnQjlRVVY1Vi93a2Z4di93Q2llZkQvQVA4QUM4dnYvbE5SL3dBSkg4Yi9BUG9ubncvL0FQQzh2djhBNVRVQUg3SjMvSnJId2IvN0V6UnYvU0dHdlZhK1gvMlpOZjhBakREK3piOEtJOU04QytCN3pUVThKYVN0cmNYZmpTOGdtbGlGbkZzZDQxMGx3akZjRXFIY0FrZ00yTW4wdi9oSS9qZi9BTkU4K0gvL0FJWGw5LzhBS2FnQStNbi9BQ1VYNEUvOWpuYy8rbzlyTmVxMTh2OEF4WTEvNHd2NDgrRERYZmdYd1BCY0o0dHVHczBoOGFYa2l6Uy8yRnF3S1NNZEpVeHI1WmtiY0E1M0tpN1FHTHA2WC93a2Z4di9BT2llZkQvL0FNTHkrLzhBbE5RQjZyWGxYN0ozL0pySHdiLzdFelJ2L1NHR2ovaEkvamYvQU5FOCtILy9BSVhsOS84QUthdk5QMlpOZitNTVA3TnZ3b2owendMNEh2Tk5Ud2xwSzJ0eGQrTkx5Q2FXSVdjV3gzalhTWENNVndTb2R3Q1NBell5UUQ2Z3J5cjltbi9rbldyL0FQWTUrTFAvQUZJZFJvLzRTUDQzL3dEUlBQaC8vd0NGNWZmL0FDbXFwK3luSmZUZkNXN2sxTzN0N1BVbjhXK0tXdXJlMHVHbmhpbFBpRFVONkpJeUlYVU5rQmlpRWdBbFZ6Z0FIc0ZGRkZBQlJSUlFBVVVVVUFGRkZGQUJSUlJRQVZ4WGdDeThPMnZpdjRsUzZMZjNGNXFWejRnaGwxeUdaU0Z0YjBhVnA2SkhIOGk1VTJ5V2ttUVgrYVJ4dUdOcTlyWEZlQUwzdzdkZUsvaVZGb3RoY1dlcFczaUNHTFhKcG1KVzZ2VHBXbnVra2Z6dGhSYlBhUjRBVDVvM08wNTNNQWRyVU41emJ0K0g4Nm1xRzcvNDkyL0QrZFJQNFdOYm81WHdkL3lMMXQvdlNmOEFvYlZ0VmkrRHYrUmV0djhBZWsvOURhdHF2RnduKzcwLzhLL0k3YTM4U1hxd29vb3JxTVFvb29vQUtLS0tBQ2lpaWdCOFArdFQvZUZhZFprUCt0VC9BSGhXblhYUjJabk1Ld2ZISFBoalVQOEFyaEovNkxhdDZzSHh2L3lMR29mOWNKUC9BRVcxYVZQZ1pqTFptUDRUL3dDUlcwZi9BSzg0di9RQld0V1Q0Uy81RmJSLyt2T0gvd0JBRmExWVErRkV4MlFVVVVWWXdvb29vQUtLS0tBQ2lpaWdBcTlwSDM1LytBLzFxalY3U1B2ei93REFmNjFVZHc2bWxSUlJXeFlVVVVVQUZlVmZ0WS84bXNmR1Qvc1ROWi85SVpxOVZyeXI5ckgvQUpOWStNbi9BR0ptcy84QXBETlFBZjhBQ09mRy93RDZLSDhQL3dEd2c3Ny9BT1hOSC9DT2ZHLy9BS0tIOFA4QS93QUlPKy8rWE5lcTBVQWZML3duMEQ0d3Y0OCtNNjJuanJ3UEJjSjR0dDF2SG04RjNraXpTLzJGcEpEeHFOV1V4cjVaalhhUzUzSzdiZ0dDSjZYL0FNSTU4Yi8raWgvRC93RDhJTysvK1hOSHdiLzVLTDhkdit4enR2OEExSHRHcjFXZ0Q1cStOdWkvRk8wOEwrSHBmRW5qTHdmcXVpcjR6OEsvYUxQUy9DVjFZM0VuL0Uvc0F1eVo5VG1WTU50SnpHMlFDT0NkdytsYThxL2FXLzVKMXBIL0FHT2ZoUDhBOVNIVHE5Vm9BNHI0SVgrZ2FyOEYvQU43NFUwK2JTZkMxejRmMCtiU2RQdUczU1d0bTF0R1lJbk81c3NzWlZTZHpjanFldGVGZnNSZjhqMysweC8yVXkvL0FQUlVWZTdmQlB4SGJlTWZnejRDMSt6MGFEdzVhYXJvRmhmUTZQYWdDS3dTVzNqZFlFd3FqYWdZSU1Lb3dvNEhTdkNmMkl2K1I3L2FZLzdLWmY4QS9vcUtnRDZxb29vb0EvRkQ0a2Y4bGIrSmYvWTU2LzhBK25TNXJBcmYrSkgvQUNWdjRsLzlqbnIvQVA2ZExtc0N2b2FYOE9Qb2p5Si9HL1U5WS9aQi93Q1R0dmhML3dCaERVUC9BRXozOWZydFg1RS9zZy84bmJmQ1gvc0lhaC82WjcrdjEycnlzVi9FTytoOEFWK1pFWC9JeCtPZit4ejhTZjhBcDV2Sy9UZXZ6SWkvNUdQeHovMk9maVQvQU5QTjVYdWNPLzcxTC9DL3pSNFdmLzdySC9FdnlaWnJ5ajlvWC9rSGVELyt3NS83WTNkZXIxNVIrMEwvQU1nN3dmOEE5aHovQU5zYnV2czhmL3UwL3dDdXA4aGdQOTVnZWJVVVVWOFNmY242Zi84QUJQSC9BSk5KOEovOWhEVy8vVHhlMTlIMTg0ZjhFOGYrVFNmQ2YvWVExdjhBOVBGN1gwZlh6a3ZpWjdNZGtmUDN4dC81T0srR3YvWXErSlAvQUVyMFNyZFZQamIvQU1uRmZEWC9BTEZYeEovNlY2SlZ1dm5NYi9HUFByL0djdHJmL0pZdmdoLzJOVjMvQU9tRFY2K242K1lOYi81TEY4RVAreHF1L3dEMHdhdlgwL1hwWUwrQ2RWRDRBb29vcnZPZ0srVmZnVC95ZngrMUYvMTVlRi8vQUVoa3I2cXI1YytDTUt4ZnQ1ZnRNTU01bDA3d3U3Wjlmc2t3L2tCUUI5UjBVVVVBRkZGRkFCUldkY2VJdE50UEVGam9jMTdGSHE5OWJ6M2R0WnMySkpvWVdpV1YxSGNLWjRRZjk4VkZyUGluUy9EK282RllYOTE5bnU5Y3ZXMC9UNC9MWnZQblczbXVTbVFDRi9jMjB6WmJBK1RHY2tBZ0d0UlJSUUI1Vit6VC93QWs2MWYvQUxIUHhaLzZrT28xNnJYelY4RXZqaDRjOEgrRi9FT2tYK20rTUxpN3QvR2ZpcmZKcGZncldkUXR6dTErL1liSjdlMGtpZmhobmF4d2NnNElJSG9IL0RTM2hIL29FZkVEL3dBTng0aC8rUWFBRDlySC9rMWo0eWY5aVpyUC9wRE5YcXRmTC83VGY3UWZoZld2MmJmaXZwOXZwWGppTzR1L0NXclc4YjNmZ0hYYmFGV2F6bFVGNVpMSlVqWEo1ZDJDcU1ra0FFMTZYL3cwdDRSLzZCSHhBLzhBRGNlSWYva0dnRDFXdkt2RG4vSjAvd0FRL3dEc1RQRFgvcGRydEgvRFMzaEgvb0VmRUQvdzNIaUgvd0NRYTgwMEQ5b1B3dkYrMGw0NjFCdEs4Y0czbjhKZUhyZEVYd0RyclRCbzd6V21ZdEVMTGVpa1NydGRsQ3NRNFVrbzRVQStvS0s4cS80YVc4SS85QWo0Z2Y4QWh1UEVQL3lEUi93MHQ0Ui82Qkh4QS84QURjZUlmL2tHZ0EvWk8vNU5ZK0RmL1ltYU4vNlF3MTZyWHkvK3pKKzBINFgwWDltMzRVYWZjYVY0NGt1TFR3bHBOdkk5cDRCMTI1aFpsczRsSlNXT3laSkZ5T0hSaXJEQkJJSU5lbC84TkxlRWYrZ1I4UVAvQUEzSGlILzVCb0FQakoveVVYNEUvd0RZNTNQL0FLajJzMTZyWHkvOFdQMmcvQzkvNDgrREU4V2xlT0ZTeThXM0Z4S0p2QU91eE15blF0V2p4R3IyUU1yYnBGT3hBekJRNzQyb3pEMHYvaHBid2ovMENQaUIvd0NHNDhRLy9JTkFIcXRlVmZzbmY4bXNmQnYvQUxFelJ2OEEwaGhvL3dDR2x2Q1AvUUkrSUgvaHVQRVAvd0FnMTVwK3pKKzBINFgwWDltMzRVYWZjYVY0NGt1TFR3bHBOdkk5cDRCMTI1aFpsczRsSlNXT3laSkZ5T0hSaXJEQkJJSU5BSDFCWGxYN05QOEF5VHJWL3dEc2MvRm4vcVE2alIvdzB0NFIvd0NnUjhRUC9EY2VJZjhBNUJxcCt5bnFjT3RmQ1c3MUMzUzRqdDd2eGI0cHVJMHU3YVMybVZXOFFhZ3dEeFNLcnh0ZzhvNmhsT1FRQ0NLQVBZS0tLS0FDaWlpZ0Fvb29vQUtLS0tBQ2lpaWdBcml2QUhpU3gxenhYOFNySzAwVzMwdTQwYnhCRFkzbDNEdDNhbEsybGFmY0M0a3dvTzRSM0VjUEpZN2JkT2NZVmUxcmxQQnV2NjVyUGlQeDNhYXRwdjJHdzBuV283TFNKL0llUDdaYW5Uck9kcGR6RWlURnhQY3g3a3d2N3JiamNyRWdIVjFEZC84QUh1MzRmenFhb2J2L0FJOTIvRCtkUlA0V05ibzVYd2QveUwxdC92U2YraHRXMVdMNE8vNUY2Mi8zcFA4QTBOcTJxOFhDZjd2VC93QUsvSTdhMzhTWHF3b29yamZpQnBzdXVhaDRlMHlPK3VOUFM0bm1MeVd6WVloWW1JSDUwWXFzOFBTZFNNZVozU1N2YTdiU1d2ekZTZ3FrK1Z1eTEvQlhPeW9yenIvaFVMLzlEUHF2L2ZZcVhSZkNrM2hIeGJwWUdzWG1vUjNVYzZ2SGN0a0Rhb0lJcnpsamNYR1VmYTRmbGkybGZtVHRkcGJmTTZYUW90UGtxWGZvK2g2QlJSUlh0bkNGRkZGQUQ0Zjlhbis4SzA2eklmOEFXcC92Q3RPdXVqc3pPWVZnK04vK1JZMUQvcmhKL3dDaTJyZXJCOGIvQVBJc2FoLzF3ay85RnRXbFQ0R1l5MlpqK0V2K1JXMGYvcnpoL3dEUUJXdFdUNFMvNUZiUi93RHJ6aC85QUZhMVlRK0ZFeDJRVW1UbWxyelA0aTN2aks4OFo2ZG92aE8vdExET255M3M3WFNiZzJKVVFBY2Y3VlRVcWV6anpXdjZFemx5SzlqMHZtam12Ry8rRWY4QWpMLzBNT2ovQVBmbi93Q3RXNThQYnJ4bFplSzc3U1BGbC9hWCtiRkx1QnJWTnUzOTRVSU5ZUnhEY2xGd2F2M3QvbVpxcmRwT0xSNlRSUlJYWWJoUlJSUUFWZTBqNzgvL0FBSCt0VWF2YVI5K2YvZ1A5YXFPNGRUU29vb3JZc0tLS0tBQ3ZLdjJzZjhBazFqNHlmOEFZbWF6L3dDa00xZXExNVYrMWoveWF4OFpQK3hNMW4vMGhtb0E5Vm9vb29BOHErRGYvSlJmanQvMk9kdC82ajJqVjZyWGxYd2Ivd0NTaS9IYi9zYzdiLzFIdEdyMVdnRHlyOXBiL2tuV2tmOEFZNStFL3dEMUlkT3IxV3ZLdjJsditTZGFSLzJPZmhQL0FOU0hUcTlWb0E1VDRUNjNydmliNFdlRGRZOFUySDlsZUp0UTBXeXU5VnNQSmFIN05keVFJMDBYbHVTeWJYTEx0WWtqR0R6WGdIN0VYL0k5L3RNZjlsTXYvd0QwVkZYdi93QUo0L0UwWHdzOEdwNDBiZjR4WFJiSmRiYk1aemZDQlB0QnpIOG4rczMvQUhQbDlPTVY0Qit4Tis2K0luN1RVRGNTRDRrM2twSCt5ME1SWCtWQUgxVlJSUlFCK0tIeEkvNUszOFMvK3h6MS93RDlPbHpXQlZyNHEzT3R4L0dUNG5MYWFmWVQyNDhaNjl0a252bmpjLzhBRXp1YzVVUXNCem51ZjZWelgydnhKLzBDdEsvOEdjbi9BTWoxNzlLUzVJK2lQSm12ZVo3bit5RC9BTW5iZkNYL0FMQ0dvZjhBcG52Ni9YYXZ4ai9aWjFEeGxCKzAvd0REQ1RTdEIwSzgxUmI2K050YlhtdHpXOEVqZjJWZWhnOHEya2pJQWhjZ2hHeVZWY0FNV1g5Ui93RGhJL2pmL3dCRTgrSC9BUDRYbDkvOHBxOHZGTzlRN3FHa0QxV3Z6SWkvNUdQeHovMk9maVQvQU5QTjVYM0Yvd0FKSDhiL0FQb25udy8vQVBDOHZ2OEE1VFYrZDhXcCtQUDdmOFpFZUcvRG5tSHhicjdUTC93a00rRWxPclhSa1JUOWgrWlZmY3FzUUN3QVlxcE8wZTNrRWxIRlNiL2xmUy9WZGp4TTlpNVlhS1g4eTh1ajduYjE1UiswTC95RHZCLy9BR0hQL2JHN3JxUDdVOGZmOUMxNGIvOEFDaHVQL2tHdk0vanBmK01KYkR3cjl1MExSTFpSck9ZamI2MU5NV2Y3SGRjTm0wVGFOdTQ1R2VRQmpuSSt3eDFXTHc4MVovYysvb2ZLWUdsSllpRDArOWY1bk5VVmlmYS9Fbi9RSzByL0FNR2NuL3lQUjlyOFNmOEFRSzByL3dBR2NuL3lQWHhuTWo3V3pQMWEvd0NDZVA4QXlhVDRULzdDR3QvK25pOXI2UHI0dC9ZVDF6NHNXMzdNSGhpUFF2QlhnM1V0TEY5ckJqdWRSOFgzZHBPekhWYnN1R2lUUzVWVUI5d0JEbmNBR0lVa3FQZmYrRWorTi84QTBUejRmLzhBaGVYMy93QXBxK2VsOFRQWGpzamsvamIvQU1uRmZEWC9BTEZYeEovNlY2SlZ1dkwvQUl2Njc4V3BQano4UG52UEJQZ3VDL1h3MXI0Z2dnOFkzY3NVa1p1dEg4eG5rT2xxVVpTSWdxaEdEQjNKWmRnRDJ2N2QrTG4vQUVKSGdyL3dzcnYvQU9WVmZQWXlMZFU0SzZ2TTNkYi9BT1N4ZkJEL0FMR3E3LzhBVEJxOWZUOWZHbW02bDQ1dlBqbjhGVThUZUhQRDJrV0E4UzNoU2ZTZGZudjVXay9zSFZjS1k1TEtBQmNianUzazVBRzA1eVBzdXZSd1N0U09taHBBS0tLSzdqb0N2bC80Sy84QUo5LzdTZjhBMkRQREgvcE5QWDFCWHkvOEZmOEFrKy85cFA4QTdCbmhqLzBtbm9BK29LS0tLQUNpaWlnRHdqOXFUVWZBdmhlMTBUeEg0aytIRTN4TzhUVzBkeHAraDZURnByWHFBM0RRR1V5WlZvb0V6QkRtYVFaVlZZSm5jeXQ1SjhEL0FBTjhQdkNmeGw4SmVMUEVsalpYWHhSOFIzTnhwbWtXbmgzdysrbTZSNGZUN0ZjM0VpUmI0NHpJVEZCSWpUdHVrWXVBRlJDMlBxenhQNDVqOE5lSXZEbWpEU05SMVc2MXVhU05Hc0JDVnRVUUtYbW1EeUt3alVNTXNvYmtxdjNtUU53M2huOW9md0o4UlBpREY0ZXRMTy91WmJUVkxyVDlNMTY2MDQvMmZjNmpid3lmYVliVzRPY3lwRjlvQklBREtrd1ZtQWFnRDEraWlpZ0R5cjltbi9rbldyLzlqbjRzL3dEVWgxR3ZWYThxL1pwLzVKMXEvd0QyT2Zpei93QlNIVWE5Vm9BOHEvYXgvd0NUV1BqSi93QmlaclAvQUtRelY2clhsWDdXUC9Kckh4ay83RXpXZi9TR2F2VmFBQ3ZLdkRuL0FDZFA4US8reE04TmYrbDJ1MTZyWGxYaHovazZmNGgvOWlaNGEvOEFTN1hhQVBWYUtLS0FQS3YyVHY4QWsxajROLzhBWW1hTi93Q2tNTmVxMTVWK3lkL3lheDhHL3dEc1RORy85SVlhOVZvQThxK01uL0pSZmdUL0FOam5jLzhBcVBhelhxdGVWZkdUL2tvdndKLzdITzUvOVI3V2E5Vm9BSzhxL1pPLzVOWStEZjhBMkptamYra01OZXExNVYreWQveWF4OEcvK3hNMGIvMGhob0E5VnJ5cjltbi9BSkoxcS84QTJPZml6LzFJZFJyMVd2S3YyYWYrU2Rhdi93QmpuNHMvOVNIVWFBUFZhS0tLQUNpaWlnQW9vb29BS0tLS0FDaWlpZ0Fyay9CYmVKMjhTZVBScjJmN0tYV29oNGZ5SXgvb1A5bldSZkd6ay82V2J6L1dmTjZmTHNycks1VHdib211NlQ0ajhkM1dyMy8yelQ5VDFxTzcwZUh6bWY3SmFEVHJPRm90cEdFemNRM01tMWNqOTd1NnNRQURxNmh1L3dEajNiOFA1MU5VTjMveDd0K0g4Nmlmd3NhM1J5dmc3L2tYcmIvZWsvOEFRMnJhckY4SGY4aTliZjcwbi9vYlZ0VjR1RS8zZW4vaFg1SGJXL2lTOVdGYzVyLy9BQ05uaFgvcnJjLytpR3JvNjV6eEIveU5uaFgvQUs3WFAvb2hxenh2OEpmNG9mOEFwY1IwUGpmcEw4bWRIaXNIVi84QWtiZkQzKzdjL3dEb0FyZXJCMWYvQUpHM3c5L3UzUDhBNkFLckYvdzEvaWgvNlhFVkg0bjZQOG1iMU1rbVNIbVIxUWRNc1FCVDY1THgxb1Z0NGx1OUYwNjhNdjJhU1oyWVJPVUpJWGprVldKcXpvMG5PbXJ2U3lidHEybHZyMzdDcFFVNXFNblpIVC9icmIvbjRpLzc3Rk9TNWhsYmFrcU8zb3JBbXVGLzRVbjRhL3Uzbi9nVS93RGpUdEk4QzZaNFE4WDZaSnAzMmhUUEJjSzRsbVp3UU5tT0Q5YTg1WWpIeGxIMjFHS2kyazJwdHZWcGJjcTc5enBkTER0UGttMjllbmI1bmZ3LzYxUDk0VnAxbVEvNjFQOEFlRmFkZlRVZG1lYk1Ld2ZHL3dEeUxHb2Y5Y0pQL1JiVnZWZytOLzhBa1dOUS93Q3VFbi9vdHEwcWZBekdXek1md2wveUsyai9BUFhuRC82QUsxcXlmQ1gvQUNLMmovOEFYbkQvQU9nQ3Rhc0lmQ2lZN0lLNDJZZjhYanRmK3hmbS93RFNtS3V5cmpaditTeDJuL1lBbS84QVNtS3M2dXk5VVJQcDZuWTRyazEvNUt0SVArb0l2L3BRYTYydVRYL2txOG4vQUdCRi93RFNnMDZuMmZVY3VoMWxOenpUcTgxK0l1bmVKZkVYaXZUdEswRHhDZEFWYlI3bVYxaUVubUhkdEE1cDFKdW5HNlYvSUp5NVZkSzU2VG4ycE0xNDcvd3EzNGovQVBSU1gvOEFBTmEydmgzcG5pYnc3NHYxTFRQRUhpTnZFRWJXTVZ6Q3pSQ1B5eVpIVWpqL0FIUldFYTgzSlJsVGF2MTAvd0F6SlZKTnBPTFgzSHBWWHRJKy9QOEE4Qi9yVkdyMmtmZm4vd0NBL3dCYTdvN25SMU5LaWlpdGl3b29vb0FLOHEvYXgvNU5ZK01uL1ltYXovNlF6VjZyWGxYN1dQOEF5YXg4WlA4QXNUTlovd0RTR2FnQS93Q0dhZkNQL1FYK0lIL2h4L0VQL3dBblVmOEFETlBoSC9vTC9FRC9BTU9QNGgvK1RxOVZvb0ErWC9oUCt6NTRYdjhBeDU4WjRKZFY4Y0tsbDR0dDdlSXcrUHRkaVpsT2hhVEptUmt2UVpXM1NNTjdsbUNoRXp0UlZIcGYvRE5QaEgvb0wvRUQvd0FPUDRoLytUcVBnMy95VVg0N2Y5am5iZjhBcVBhTlhxdEFIelY4YmZnZjRjOEgrRi9EMnIyR3BlTUxpN3QvR2ZoWFpIcW5qWFdkUXR6dTErd1U3NExpN2tpZmhqamNwd2NFWUlCSDByWGxYN1MzL0pPdEkvN0hQd24vQU9wRHAxZXEwQWNuOEpQRCtyK0UvaFQ0TDBQWDlUR3RhN3BtaTJWbHFHcENaNWhkM0VjQ0pMTjVqNFo5N3F6Ym01T2NubXZBZjJNUCtTcy90UGY5bEFsLzlFSlh1dndROFBhZjRTK0MvZ0hRdEkxbUh4RnBXbWVIOVBzclBXTGNBUjMwTWR0R2tjNmJXWWJYVlE0d3hHRzZuclhoWDdHSC9KV2YybnYreWdTLytpRW9BK3FxS0tLQVB4UStKSC9KVy9pWC93Qmpuci8vQUtkTG1zQ3Qvd0NKSC9KVy9pWC9BTmpuci84QTZkTG1zQ3ZvYVg4T1BvanlKL0cvVTlZL1pCLzVPMitFdi9ZUTFELzB6MzlmcnRYNUUvc2cvd0RKMjN3bC93Q3docUgvQUtaNyt2MTJyeXNWL0VPK2g4QVYrWkVYL0l4K09mOEFzYy9Fbi9wNXZLL1RldnpJaS81R1B4ei9BTmpuNGsvOVBONVh1Y08vNzFML0FBdjgwZUZuL3dEdXNmOEFFdnlaWnJ5ajlvWC9BSkIzZy84QTdEbi9BTFkzZGVyMTVSKzBML3lEdkIvL0FHSFAvYkc3cjdQSC93QzdUL3JxZklZRC9lWUhtMUZGRmZFbjNKK24vd0R3VHgvNU5KOEovd0RZUTF2L0FOUEY3WDBmWHpoL3dUeC81Tko4Si84QVlRMXYvd0JQRjdYMGZYemt2aVo3TWRrZlAzeHQvd0NUaXZoci93QmlyNGsvOUs5RXEzVlQ0Mi84bkZmRFgvc1ZmRW4vQUtWNkpWdXZuTWIvQUJqejYveG5MYTMvQU1saStDSC9BR05WMy82WU5YcjZmcjVnMXY4QTVMRjhFUDhBc2Fydi93Qk1HcjE5UDE2V0MvZ25WUStBS0tLSzd6b0N2bC80Sy84QUo5LzdTZjhBMkRQREgvcE5QWDFCWHlyOEdXUC9BQThEL2FMR1RnNk40Y09QKzNlU2dENnFvb29vQUtLS0tBUG5mOXFTOHQ3THhaNEgreGVJdGY4QUIvaWk1dE5Tc28vRUdrYVpGZlFXR215dlpwZFNYSWtaUkd2bkd3MnlMbGtZQmlOZ2tJdi9BQVorR1hoaXdrOFBhUjRZMURWTExSZmhaY1hHaEh3L3FGcENOMStZTXRmUEp0M21TV0M3RWl1ckFNdDAyVkJjZ2MxKzE3NEIxYjRvZU5mQVhodTE4TTNuaXpSNXRNMW1mVU5PdFBGMDJnZ3FHc1kxTG1NL3ZoaVoxMmxTQUdQSTNZUFUvc2hhVU5BOEVlS2RKdVBEbHY0WTF1eDhTWFVXcDJjV3VUYXpNOHBpZ2VHU2U2bVpuZVUyelcyY25HQXVGVVlWUUQzV2lpaWdENXErQ1h3UDhPZU1QQy9pSFY3L0FGTHhoYjNkeDR6OFZiNDlMOGE2enA5dU51djM2alpCYjNjY1NjS003VkdUa25KSko5QS80WnA4SS84QVFYK0lIL2h4L0VQL0FNblVmczAvOGs2MWYvc2MvRm4vQUtrT28xNnJRQjh2L3ROL3MrZUY5Ri9adCtLK29XK3ErT0pMaTA4SmF0Y1JwZCtQdGR1WVdaYk9WZ0hpa3ZXU1JjamxIVXF3eUNDQ1JYcGYvRE5QaEgvb0wvRUQvd0FPUDRoLytUcVAyc2YrVFdQakovMkptcy8ra00xZXEwQWVWZjhBRE5QaEgvb0wvRUQvQU1PUDRoLytUcTgwMEQ5bnp3dkwrMGw0NjA5dFY4Y0MzZzhKZUhyaEhYeDlycXpGcEx6V2xZTktMM2U2Z1JMdFJtS3FTNVVBdTViNmdyeXJ3NS95ZFA4QUVQOEE3RXp3MS82WGE3UUFmOE0wK0VmK2d2OEFFRC93NC9pSC93Q1RxUDhBaG1ud2ovMEYvaUIvNGNmeEQvOEFKMWVxMFVBZkwvN01uN1BuaGZXdjJiZmhScUZ4cXZqaU80dS9DV2szRWlXbmo3WGJhRldhemlZaElvNzFValhKNFJGQ3FNQUFBQVY2WC93elQ0Ui82Qy94QS84QURqK0lmL2s2ajlrNy9rMWo0Ti85aVpvMy9wRERYcXRBSHkvOFdQMmZQQzloNDgrREVFV3ErT0dTOThXM0Z2S1p2SDJ1eXNxalF0V2t6R3ozcE1UYm8xRzlDckZTNloydXluMHYvaG1ud2ovMEYvaUIvd0NISDhRLy9KMUh4ay81S0w4Q2YreHp1ZjhBMUh0WnIxV2dEeXIvQUlacDhJLzlCZjRnZitISDhRLy9BQ2RYbW43TW43UG5oZld2MmJmaFJxRnhxdmppTzR1L0NXazNFaVduajdYYmFGV2F6aVloSW83MVVqWEo0UkZDcU1BQUFBVjlRVjVWK3lkL3lheDhHLzhBc1RORy93RFNHR2dBL3dDR2FmQ1AvUVgrSUgvaHgvRVAvd0FuVlUvWlQweUhSZmhMZDZmYnZjU1c5cDR0OFUyOGIzZHpKY3pNcStJTlFVRjVaR1o1R3dPWGRpekhKSkpKTmV3VjVWK3pUL3lUclYvK3h6OFdmK3BEcU5BSHF0RkZGQUJSUlJRQVVVVVVBRkZGRkFCUlJSUUFWeGZnTHc1YmFINHErSkY3QnJNR3FTNnhyOFY5UGF4RWJ0T2RkTHNMY1FTWVkvTVZ0MG01Q25iT3ZHTU0zYVZ4WGdDdzBDejhWL0VxYlI5UW12ZFJ1L0VFTTJ0UVNyaGJTOEdsYWVpeEo4b3lwdGt0Wk01Ym1WdWVOcWdIYTFEZC93REh1MzRmenFhb2J2OEE0OTIvRCtkUlA0V05ibzVYd2QveUwxdC92U2YraHRXMVdMNE8vd0NSZXR2OTZULzBOcXl2RitqZjhKRnIybDJMM2x4YVErVE5LVGJ1VkxFRlFNL21hK2JqV2xSd2RPVUk4enRGSlh0dlpibnBPQ25Xa203TFU2K3VkMS8vQUpHdndyLzEydWVQKzJEVmovOEFDcDdiL29NNm4vMy9BRFZTSHdiRjRaOGJlR3BZNzY3dXpLMXloVzRrTEFmdVNjajNyaXhGZkZ5akdOU2p5cm1ocnpKL2JqMHNiVTZkRk51TTd1MHVua3owV3NIVi93RGtiZkQzKzdjLytnTFc5V0RxL3dEeU52aDcvZHVmL1FGcjFjWC9BQTEvaWgvNlhFNWFQeGZKL2t6ZXJEMXYva1lOQi8zNWYvUUszS3c5Yi81R0RRZjkrWC8wQ25pdjRmemovd0NsSVZINHZrL3ladVZpYWwveU5XaWY5Y3JuK1NWdDFpYWwvd0FqVm9uL0FGeXVmNUpSaXZnWCtLUC9BS1VoVXZpZm8veVp2US82MVA4QWVGYWRaa1ArdFQvZUZhZGV0UjJaelRDc0h4di9BTWl4cUgvWENULzBXMWIxWVBqZi9rV05RLzY0U2Y4QW90cTBxZkF6R1d6TWZ3bC95SzJqL3dEWG5ELzZBSzFjNHJLOEpmOEFJcmFQL3dCZWNQOEE2QUs0L3dBWWFsNDF2UEZ6Nlo0WHVOUHQ0TGUwam5sTjVIdUpaMllESC9mTmNqbjdPbW5hL29aT1hMRmFIb3VSWEhTLzhsanRQK3hmbS84QVNtS3VhK3hmRi84QTZDT2gvd0RmaW1lQzQvRlVYeGQyK0twN0tlYit3WkRBYk5Ob0MvYUk5MmYwcm5sV2MzRmNqV3EzUms1OHpTczl6MXF1VFgva3E4bi9BR0JGL3dEU2cxMWxjbXYvQUNWZVQvc0NMLzZVR3VtcDluMU5wZFBVNnl1Vm4vNUtiYmY5Z3R2L0FFWlhWVnlzL3dEeVUyMi83QmJmK2pLZFRwNm9KOURxYTVpSC9rcGx6LzJDSWY4QTBkSlhVVnk4UC9KUzduL3NFUS8ranBLS204ZlVKZERxS3ZhU1FHbkpPQU52OWFvMUJxWGhmU3ZHM2gvVjlCMXl5ajFIU05RaCt6M1ZyTG5iTEdjNVU0SVA1VnZIY3ZxZVpTZnRxL0NPWDQxNko4TE5OOFUyK3QrS2RTZWRIT21zc3RwWkdLQ1NadlBueUVCeEV5N1ZMTUdJQkE2MTZvZmlENFdVa0h4TG80STRJTi9GL3dERlY4VHkvd0RCSC80VzZmOEFHWFJQRkdsM054UDRMamxsYlUvQnVyTTgwVXF0RklxQ0c0VmxrVUs1UnRybGlkcCtidFh0NmY4QUJQTDluU05sSStGT2pFcWNqYzg1SDQ1azVyWXM5ZFB4YjhES0NUNHo4UEFEcVRxc0gveGRWSCtPUHc0alJtYjRnZUZsVlJrc2RhdGdBUDhBdnV2T1lmMkNQMmVvSkE2L0NidzZTT3p3TXcvSXRpcmtIN0R2d0J0MkxMOEkvQ2hKR1BuMDVISDVITkFIWHlmdEUvQ21GQzhueE44SElnNUxOcjlvQVA4QXlKWG1uN1J2eDArRzNqTDluTDR1YVBvSHhDOEs2NXExejRNMXZ5TERUZGF0cmllWGJwODdOdGpSeXpZVldZNEhBQlBhdW9nL1l5K0E5dnUyZkIvd1djOWZNMFMzZithbXVML2FDL1owK0ZYdy93RDJjL2kxclBobjRhK0V0QTFtMThHYTRiZlV0TzBTMmd1WWQybnpvMnlWVURMbFdaVGc4aGlPaG9BK21hS0tLQVBLdmczL0FNbEYrTzMvQUdPZHQvNmoyalY2clhsWHdiLzVLTDhkdit4enR2OEExSHRHcjFXZ0R5cjlwYi9rbldrZjlqbjRULzhBVWgwNnZWYThxL2FXL3dDU2RhUi8yT2ZoUC8xSWRPcjFXZ0RpdmdoYmVIYkw0TCtBYmZ3aGQzRi80VGg4UDZmSG85M2RnaWFheUZ0R0lIY0ZWSVpvOWhQeXJ5VHdPbGVGZnNZZjhsWi9hZS83S0JML0FPaUVyM1g0SVgrZ2FyOEYvQU43NFUwK2JTZkMxejRmMCtiU2RQdUczU1d0bTF0R1lJbk81c3NzWlZTZHpjanFldGVGZnNZZjhsWi9hZS83S0JML0FPaUVvQStxcUtLS0FQeFErSkgvQUNWdjRsLzlqbnIvQVA2ZExtc0NyWHhWdHRiaytNbnhPYTAxQ3dndHo0ejE3YkhQWXZJNC93Q0puYzV5d21VSG5QWWYxcm12c25pVC9vSzZWLzRMSlA4QTVJcjM2VGZKSFRvanlacjNucWU1L3NnLzhuYmZDWC9zSWFoLzZaNyt2MTJyOFkvMldkUDhaVC90UC9EQ1BTdGUwS3oxUnI2K0Z0YzNtaVRYRUViZjJWZWxpOFMzY2JPQ2djQUIxd1dWc2tLVmI5Ui8rRWMrTi84QTBVUDRmLzhBaEIzMy93QXVhOHZGYTFEdW9mQWVxMStaRVgvSXgrT2YreHo4U2Y4QXA1dksrNHYrRWMrTi93RDBVUDRmL3dEaEIzMy9BTXVhL08rTFRQSG45djhBaklEeEo0Yzh3ZUxkZldaditFZW53OG8xYTZFanFQdDN5cXo3bVZTU1ZCQ2xtSTNIMjhnYmppcE5LL3V2ODEzUEV6MUtXR2pkMjk1ZmsreDI5ZVVmdEMvOGc3d2Yvd0Joei8yeHU2NmoreS9IMy9ReStHLy9BQW5yai81T3J6UDQ2V0hqQ0t3OEsvYnRkMFM1VTZ6aUlXK2l6UWxYK3gzWExadTMzRGJ1R0Jqa2c1NHdmc01kT1R3OC9jZjRkL1UrVXdNSXJFUTk1ZmovQUpITlVWaWZaUEVuL1FWMHIvd1dTZjhBeVJSOWs4U2Y5QlhTdi9CWkovOEFKRmZHWGZZKzFzdTUrclgvQUFUeC93Q1RTZkNmL1lRMXYvMDhYdGZSOWZGdjdDZWgvRmk1L1pnOE1TYUY0MThHNmJwWnZ0WUVkdHFQaEM3dTUxWWFyZGh5MHFhcEVyQXZ1SUFRYlFRcExFRmo3Ny93am54di93Q2loL0QvQVA4QUNEdnYvbHpYejB2aVo2OGRrY244YmY4QWs0cjRhLzhBWXErSlAvU3ZSS3QxNWY4QUYvUXZpMUg4ZWZoOGw1NDI4RnozN2VHdGZNRThIZzY3aWlqakYxby9tSzhaMVJpN01URVZZT29VSTRLdHZCUzEvWVh4Yy82SGZ3Vi80UnQzL3dETFd2bnNZazZ1NXdWMTcrNXU2My95V0w0SWY5alZkLzhBcGcxZXZwK3ZqVFRkTjhjMmZ4eitDcitKdkVmaDdWN0ErSmJ3SkJwT2dUMkVxeWYyRHF1R01rbDdPQ3VOdzI3QWNrSGNNWVAyWFhvNEpXcEhUUStBS0tLSzdqb0N2bFg0TmY4QUtRVDlvci9zQytIUC9TZDYrcXErVmZnMS93QXBCUDJpdit3TDRjLzlKM29BK3FxS0tLQUNpaWlnRDVYL0FHamJIUmZpaDhRL0ExM1plQ05DK0tkaHBWcHIxamROZCtJbDA2UFRicGJteGpaQzNJYVF0Qk1oUXJrR0p1UmdnOTEreVZwRU9rZUFOZFd5MHJ3MW9PbHkrSUx0clRTZkROOHQ4bG1GRWNjMGM5eXFMNXMvbnh6a2tqNVZaRXlRZ05lVGZ0Qi9CcjRSZkRuNGllR2RkUGduNFo2anFlcHRyZC9mYU40MGUzdEcxbVdlZTNsbXV4ZTNFVWdlU0dTVWhZWE8zWmRQczJpSlFPdC9abzhiZUFQaDdwVStpdnJYdzY4TVgvaXZ4SEpOcFhoRHdacU50UERabDdlTlZnM1JLdm1TTjlua2tMN1FvTWdqVTRWQVFENmFvb29vQSthdmdsb3Z4VHUvQy9pR1h3MzR5OEg2Vm9yZU0vRlgyZXoxVHdsZFgxeEgvd0FUKy9EYjVrMU9GWHkyNGpFYTRCQTVJM0gwRC9oSFBqZi9BTkZEK0gvL0FJUWQ5LzhBTG1qOW1uL2tuV3IvQVBZNStMUC9BRklkUnIxV2dENWYvYWIwRDR3dy9zMi9GZVRVL0hYZ2U4MDFQQ1dyTmRXOXA0THZJSnBZaFp5NzBTUnRXY0l4WElERkhBSkJLdGpCOUwvNFJ6NDMvd0RSUS9oLy93Q0VIZmYvQUM1by9heC81TlkrTW4vWW1hei9BT2tNMWVxMEFlVmY4STU4Yi84QW9vZncvd0QvQUFnNzcvNWMxNXBvR2dmR0UvdEplT280L0hYZ2RkU1h3bDRlYWU0YndYZUdGNGplYTE1YUxIL2F3S3NyQ1VzeGRnd2RBRlRZUy8xQlhsWGh6L2s2ZjRoLzlpWjRhLzhBUzdYYUFEL2hIUGpmL3dCRkQrSC9BUDRRZDkvOHVhUCtFYytOL3dEMFVQNGYvd0RoQjMzL0FNdWE5Vm9vQStYL0FObVRRUGpETit6YjhLSk5NOGRlQjdQVFg4SmFTMXJiM2ZndThubWlpTm5Gc1I1RjFaQTdCY0FzRVFFZ2tLdWNEMHYvQUlSejQzLzlGRCtIL3dENFFkOS84dWFQMlR2K1RXUGczLzJKbWpmK2tNTmVxMEFmTC94WTBENHdwNDgrREMzZmpyd1BQY1A0dHVGczNoOEYza2F3eS8yRnF4THlLZFdZeUw1WWtYYUNoM01qYmlGS1A2WC9BTUk1OGIvK2loL0Qvd0Q4SU8rLytYTkh4ay81S0w4Q2YreHp1ZjhBMUh0WnIxV2dEeXIvQUlSejQzLzlGRCtIL3dENFFkOS84dWE4MC9aazBENHd6ZnMyL0NpVFRQSFhnZXowMS9DV2t0YTI5MzRMdko1b29qWnhiRWVSZFdRT3dYQUxCRUJJSkNybkErb0s4cS9aTy81TlkrRGYvWW1hTi82UXcwQUgvQ09mRy84QTZLSDhQLzhBd2c3Ny93Q1hOVlAyVTQ3Nkg0UzNjZXAzRnZlYWtuaTN4U3QxY1dsdTBFTXNvOFFhaHZkSTJkeWlsc2tLWGNnRUFzMk1uMkN2S3YyYWYrU2RhdjhBOWpuNHMvOEFVaDFHZ0QxV2lpaWdBb29vb0FLS0tLQUNpaWlnQW9vb29BSzRyd0JjK0haL0ZmeEtUUmJTNHR0U2c4UVF4NjVMTVNWdUwzK3l0UFpIaitZNFVXeldpY0JmbVIrUDRtN1d1SzhBZUlkUDFyeFg4U3JPeTBhSFRMblNQRUVObGZYVVJHN1VabTByVDV4TytGSHpDS2VLSGtzY1FMempBQUIydFEzZi9IdTM0ZnpxYW9idi9qM2I4UDUxRS9oWTF1amxmQjMvQUNMMXQvdlNmK2h0VEwwZjhWbHBuL1hwUC82RWxQOEFCMy9JdlczKzlKLzZHMU12ZitSejB2OEE2OUovL1FrcjVsZjdwUi83Yy9OSHAvOEFMNmYvQUc5K3B1MXpmaUQvQUpHN3dyLzExdWYvQUVRMWRKWE4rSVArUnU4Sy93RFhXNS85RU5YUmpmNFMvd0FVUC9TNG1kRDQzNlMvSm5TVnoydVRSd2VLdkR6U3lMR3VMa2JuSUErNEs2R3VSOFo2RFplSXRmOEFEOXBmeG1XRC9TRzJoaXZJUWR4VTQ5elZEOTJydm1oYStpK0tQcVBEMjlwNzIxbitUT2wvdE96L0FPZnVEL3Y0ditOWTJxM2tGeDRoMEpZcDQ1V0R5a2hIQi9nclAvNFZMNFovNThwUCsvemY0MVZUd1hwWGhqeGJvTTJud1BESklaMVltUXRrYkI2MXdWcW1PNVkrMXB4VWVhTjdTYmZ4THB5bzNoR2hkOHNuZXo2ZVQ4enZLeE5TL3dDUnEwVC9BSzVYUDhrcmJyRTFML2thdEUvNjVYUDhrcjFNVjhDL3hSLzlLUnlVdmlmby93QW1iMFArdFQvZUZhZFprUDhBclUvM2hXblhyVWRtYzB3ckI4Yi9BUElzYWgvMXdrLzlGdFc5V0Q0My93Q1JZMUQvQUs0U2YraTJyU3A4RE1aYk14L0NYL0lxNlA4QTllY1Avb0FyS3NCL3hjdldQYlRiYi8wT1d0WHdsL3lLMmovOWVjUC9BS0FLeXJEL0FKS1hySC9ZT3R2L0FFT1d1SjdRL3JvekhwRTZyRmNYSi95V2UyLzdGK1gvQU5LWTY3V3VLay81TFBiL0FQWXZ5LzhBcFRIVlZkbytxSFBwNm5hMXlTLzhsV2svN0FpLytsQnJyYThzOGJhSjRoMXY0blFwb0d1Sm9zaWFNREt6UmI5NDg4NC9LbFhrNHBOSytvcWpzazBqMUxKOUs1YWIva3BsdC8yQzIvOEFSbGNuL3dBSUI4Ui8raDhoL3dEQVUwdmd6UnZFT2lmRTVvdGYxdGRiWjlLM1JNc1d6eS8zcEJGWXVyS1RpbkJyVmR2OHpOemsyazR0ZmNlcTF5OFAvSlM3bi9zRVEvOEFvNlN1b3JsNGYrU2wzUDhBMkNJZi9SMGxkTlRlUHFiUzZIVVZlMGo3OC84QXdIK3RVYXZhUjkrZi9nUDlhM2p1WDFOS2lpaXRpd29vb29BSzhxL2F4LzVOWStNbi9ZbWF6LzZRelY2clhsWDdXUDhBeWF4OFpQOEFzVE5aL3dEU0dhZ0Evd0NHVHZnaC93QkViK0gvQVA0UzlqLzhhby80Wk8rQ0gvUkcvaC8vQU9FdlkvOEF4cXZWYUtBUGwvNFQvc3lmQjdVZkhueG50N3Y0VWVCN3Ezc1BGdHZiV2NVM2h5emRiYUk2RnBNcGpqQmp3aW1TV1I5b3dOMGpucXhKOUwvNFpPK0NIL1JHL2gvL0FPRXZZLzhBeHFqNE4vOEFKUmZqdC8yT2R0LzZqMmpWNnJRQjgxZkczOW5yNFdlQnZDL2g3Vy9EZncwOEgrSDlhdGZHZmhYN1BxT2w2RGEyMXhEdTErd1J0a2lSaGx5ck1wd2VReEhRMTlLMTVWKzB0L3lUclNQK3h6OEovd0RxUTZkWHF0QUhGL0JQeEhiZU1mZ3o0QzErejBhRHc1YWFyb0ZoZlE2UGFnQ0t3U1czamRZRXdxamFnWUlNS293bzRIU3ZDUDJQZVBqcisxR08zL0NhUkhIL0FHN0xYdjhBOEpOZTEzeFQ4S2ZCZXRlS05QT2srSmRSMFd5dk5VMDh3UEFiYTdrZ1I1b3ZMY2xrMnVXWGF4eU1ZUElyd0Q5ajMva3UzN1VuL1k1eGYra3kwQWZWZEZGRkFING9mRWovQUpLMzhTLyt4ejEvL3dCT2x6V0JXLzhBRWova3JmeEwvd0N4ejEvL0FOT2x6V0JYME5MK0hIMFI1RS9qZnFlc2ZzZy84bmJmQ1gvc0lhaC82WjcrdjEycjhpZjJRZjhBazdiNFMvOEFZUTFEL3dCTTkvWDY3VjVXSy9pSGZRK0FLL01pTC9rWS9IUC9BR09maVQvMDgzbGZwdlg1a1JmOGpINDUvd0N4ejhTZitubThyM09IZjk2bC9oZjVvOExQL3dEZFkvNGwrVExOZVVmdEMvOEFJTzhIL3dEWWMvOEFiRzdyMWV2S1AyaGYrUWQ0UC83RG4vdGpkMTluai84QWRwLzExUGtNQi92TUR6YWlpaXZpVDdrL1QvOEE0SjQvOG1rK0UvOEFzSWEzL3dDbmk5cjZQcjV3L3dDQ2VQOEF5YVQ0VC83Q0d0LytuaTlyNlByNXlYeE05bU95UG43NDIvOEFKeFh3MS83Rlh4Si82VjZKVnVxbnh0LzVPSytHdi9ZcStKUC9BRXIwU3JkZk9ZMytNZWZYK001YlcvOEFrc1h3US83R3E3LzlNR3IxOVAxOHdhMy9BTWxpK0NIL0FHTlYzLzZZTlhyNmZyMHNGL0JPcWg4QVVVVVYzblFGZkt2d2EvNVNDZnRGZjlnWHc1LzZUdlgxVlh5cjhHditVZ243UlgvWUY4T2YrazcwQWZWVkZGRkFCUlJSUUI0SCswYjRkdlBGZnhBK0hlbFdaMERRbnVZdFJqUGl6WGRLaTFCclRMV21MRzFqbElqOCs1YmF3TForVzFrd0Nhd3YySk5kdGZqTjhHTkk4WDY3NFMwR1BWa2UzTUdyV2VocFpwZHNiVzNuZVdKU3VWOHFlV2EzM0tjTTFzekxnRUFkcCswSjRYK0puaUNYUjMrSE41RFozSDJLL3NIbm0xR1cyV3l1TGdRcERmTkd1VXVWZ2pGeVJFNm5MdkV5a2JTYTZuNFArQmRYK0h1aTZycG1wNnhmYXpiblVYazA1OVMxU2JVcmlLMThxSkFIbm1Ba0xPNlNTbFNXQ0dZb3JGRlVBQTd5aWlpZ0R5cjltbi9rbldyL0FQWTUrTFAvQUZJZFJyMVd2bXI0SmExOFU3VHd2NGhpOE4rRGZCK3E2S3ZqUHhWOW52TlU4VzNWamNTZjhUKy9MYjRVMHlaVXcyNERFalpBQjRKMmowRC9BSVNQNDMvOUU4K0gvd0Q0WGw5LzhwcUFEOXJIL2sxajR5ZjlpWnJQL3BETlhxdGZMLzdUZXY4QXhobS9adCtLOGVwK0JmQTlucHIrRXRXVzZ1TFR4cGVUelJSR3psM3VrYmFTZ2RndVNGTG9DUUFXWE9SNlgvd2tmeHYvQU9pZWZELy9BTUx5Ky84QWxOUUI2clhsWGh6L0FKT24rSWYvQUdKbmhyLzB1MTJqL2hJL2pmOEE5RTgrSC84QTRYbDkvd0RLYXZOTkExLzR3ajlwTHgxSkg0RjhEdHFUZUV2RHl6MjdlTkx3UXBFTHpXdkxkWlA3SkpabVl5aGxLS0ZDSVF6N3lFQVBxQ2l2S3Y4QWhJL2pmLzBUejRmL0FQaGVYMy95bW8vNFNQNDMvd0RSUFBoLy93Q0Y1ZmYvQUNtb0FQMlR2K1RXUGczL0FOaVpvMy9wRERYcXRmTC9BT3pKci94aGgvWnQrRkVlbWVCZkE5NXBxZUV0SlcxdUx2eHBlUVRTeEN6aTJPOGE2UzRSaXVDVkR1QVNRR2JHVDZYL0FNSkg4Yi8raWVmRC93RDhMeSsvK1UxQUI4WlArU2kvQW4vc2M3bi9BTlI3V2E5VnI1ZitMR3YvQUJoZng1OEdHdS9BdmdlQzRUeGJjTlpwRDQwdkpGbWwvc0xWZ1VrWTZTcGpYeXpJMjRCenVWRjJnTVhUMHY4QTRTUDQzLzhBUlBQaC93RCtGNWZmL0thZ0QxV3ZLdjJUditUV1BnMy9BTmlabzMvcEREUi93a2Z4di82SjU4UC9BUHd2TDcvNVRWNXArekpyL3dBWVlmMmJmaFJIcG5nWHdQZWFhbmhMU1Z0Ymk3OGFYa0Uwc1FzNHRqdkd1a3VFWXJnbFE3Z0VrQm14a2dIMUJYbFg3TlAvQUNUclYvOEFzYy9Gbi9xUTZqUi93a2Z4di82SjU4UC9BUHd2TDcvNVRWVS9aVGt2cHZoTGR5YW5iMjlucVQrTGZGTFhWdmFYRFR3eFNueEJxRzlFa1pFTHFHeUF4UkNRQVNxNXdBRDJDaWlpZ0Fvb29vQUtLS0tBQ2lpaWdBb29vb0FLNVB3WDRnMWZXZkVuajIwMUxUQllXZWs2MUZaYVpjQ0YwKzIyNTA2eW5hWXMzRDRtbm5pM0x4KzUyL2VWcTZ5dVU4R3llSm44UitPeHJ5N2RMVFdvMTBBNGpHNngvczZ6TG41ZWYrUHMzZytmNXVQN3UyZ0RxNmh1L3dEajNiOFA1MU5VTjMveDd0K0g4Nmlmd3NhM1J5dmc3L2tYcmIvZWsvOEFRMnBsNy95T2VsLzllay8vQUtFbFA4SGY4aTliZjcwbi9vYlV5OS81SFBTLyt2U2Yvd0JDU3ZtVi91bEgvdHo4MGVuL0FNdnAvd0RiMzZtN1hOK0lQK1J1OEsvOWRibi9BTkVOWFNWemZpRC9BSkc3d3IvMTF1Zi9BRVExZEdOL2hML0ZELzB1Sm5RK04ra3Z5WjBsWU9yL0FQSTIrSHY5MjUvOUFXdDZzSFYvK1J0OFBmN3R6LzZBdFBGL3cxL2loLzZYRVZING42UDhtYjFjL3J2L0FDTTNoMy9mbi84QVFCWFFWeit1L3dESXplSGY5K2YvQU5BRkdNL2hML0ZIL3dCS1FVZmorVC9KblFWaWFsL3lOV2lmOWNybitTVnQxaWFsL3dBalZvbi9BRnl1ZjVKVllyNEYvaWovQU9sSW1sOFQ5SCtUTjZIL0FGcWY3d3JUck1oLzFxZjd3clRyMXFPek9hWVZnK04vK1JZMUQvcmhKLzZMYXQ2c0h4di9BTWl4cUgvWENULzBXMWFWUGdaakxabVA0Uy81RmJSLyt2T0gvd0JBRlpWaC93QWxMMWovQUxCMXQvNkhMV3I0Uy81RmJSLyt2T0gvQU5BRlpWaC95VXZXUCt3ZGJmOEFvY3RjVDJoL1hSbVBTSjFkY1ZKL3lXZTMvd0N4ZmwvOUtZNjdXdUtrL3dDU3oyLy9BR0w4di9wVEhWVmRsNm9jK25xZHJYSkovd0FsWGsvN0FpLytsQnJyYTVKUCtTclNmOWdSZi9TZzA2bjJmVUo5UFU2ekFya1pSL3hkZUQvc0RuLzBhYTYrdVFsLzVLdkQvd0JnZy84QW80MFZQcytxQ2ZUMU92cmw0ZjhBa3Bkei93QmdpSC8wZEpYVVZ5OFAvSlM3bi9zRVEvOEFvNlNuVTNqNmpsME9vcTlwSDM1LytBLzFxalY3U1B2ei93REFmNjF2SGN2cWFWRkZGYkZoUlJSUUFWNVYrMWovQU1tc2ZHVC9BTEV6V2Y4QTBobXIxV3ZLdjJzZitUV1BqSi8ySm1zLytrTTFBSHF0RmVWZjhOWS9CRC9vc253Ly93RENvc2YvQUk3Ui93QU5ZL0JEL29zbncvOEEvQ29zZi9qdEFCOEcvd0Rrb3Z4Mi93Q3h6dHYvQUZIdEdyMVd2bC80VC90Ti9CN1R2SG54bnVMdjRyK0I3VzN2L0Z0dmMyY3MzaU96UmJtSWFGcE1Sa2pKa3c2aVNLUk53eU4wYmpxcEE5TC9BT0dzZmdoLzBXVDRmLzhBaFVXUC93QWRvQVAybHY4QWtuV2tmOWpuNFQvOVNIVHE5VnI1cStOdjdRdndzOGMrRi9EMmllRy9pWDRQOFFhMWRlTS9DdjJmVHRMMTYxdWJpYmJyOWc3Ykkwa0xOaFZaamdjQlNlZ3I2Vm9BNVQ0VC93RENULzhBQ3JQQnYvQ2JmOGpuL1l0bC9ibitxLzQvL0lUN1IvcXYzZjhBcmQvM1BsL3U4WXI1L3dEMlBmOEFrdTM3VW4vWTV4ZitreTE5QWZDZlFOYzhLZkN6d2JvbmlmVXY3WjhTYWJvdGxaYXBxUG52UDlxdW80RVNhWHpKQUhmYzZzMjVnR09ja1pOZlAvN0h2L0pkdjJwUCt4emkvd0RTWmFBUHF1aWlpZ0Q4VVBpUi93QWxiK0pmL1k1Ni93RCtuUzVyQXI5R1BGSC9BQVRZOENlS1BGbXY2OC9qZnh4WVRhenFkM3FzMXRhVDZkNU1jdHhPODBpcHZzbVlMdmtiQVppUU1jbXN6L2gxNzRDLzZLRjhRUDhBdi9wZi93QWdWNmtNVkNNVkZwNkhCS2hKeWJQbEw5a0gvazdiNFMvOWhEVVAvVFBmMSt1MWZKbmhEL2duUDRYOEJlTHRKOFQ2RjhUUGlCWTY1cE1ra3RuZGI5SWs4cG5oa2hjN1gwOHEyWTVaRitZSDcyUnlBUjY5L3dBS2I4WGY5RjIrSUgvZ0Q0ZS8rVlZjVmVvcWsrWkhWU2c0UnN6MVd2eklpLzVHUHh6L0FOam40ay85UE41WDNGL3dwdnhkL3dCRjIrSUgvZ0Q0ZS84QWxWWG1JL1lGMFZibSt1QjhVL2lCNXQ5ZTNPb1hEZjhBRW4rZWU0bWVlWi8rUWR4dWtrZHNEQUdjQUFBQ3ZTeXJHMDhEWGRTb20wMWJUMVhtdXg1dVo0T3BqYUtwMDJrMDc2K2o5ZTU4NlY1RCswamV3MkdrZURaWjM4dEc4UXBFRGduNW50THBGSEhxekFmalgzWC9BTU1GYVA4QTlGVStJSDVhTi84QUs2dm5yOXRIOWp6UmZCWGhYNGNUeWVQZkdXc1JYL2p6UjlOa2p2anBvOGxKbmtScFl6RlpSbnpGQk8zY1dYbmxUeFh2NHJQY1BXb3lwd2pLNzdwZjVuaFlYSmNSUnJScVNsR3k4My9rZks5RmZvTC9BTU92ZkFYL0FFVUw0Z2Y5L3dEUy93RDVBby80ZGUrQXYraWhmRUQvQUwvNlgvOEFJRmZQZlhLZlpuMGYxZWZkSGRmOEU4ZitUU2ZDZi9ZUTF2OEE5UEY3WDBmWGczdzgvWld2ZmhUNFJ0UERIaFg0emZFRFM5RHRKSjVZYlg3UG9VMnhwcG5tbE82VFRHWTVra2R1VHhuQXdBQlhTZjhBQ20vRjMvUmR2aUIvNEErSHYvbFZYa3lkMjJlZ2xaV09UK052L0p4WHcxLzdGWHhKL3dDbGVpVmJvMXY5bDNVUEVmaVBUZGQxSDR6L0FCQXVOVjAyMHViRzF1UHMrZ3I1Y053OER6THRYU3dwM05iUUhKQkkyY0VaYkwvK0dZdFQvd0NpMC9FRC93QUJ0Qi8rVmRlVGlNTE90VTVvdEhMVm95bks2T1Qxdi9rc1h3US83R3E3L3dEVEJxOWZUOWVMK0hmMmFGMGZ4dDRhOFNhbjhSL0dIaWlUdy9keTMxbllhb21seDIvblNXczlxV2Y3Tll3eUhFZHpMZ2J3TWtFZzRyMml1ekQwblJwOHNqYWxCd2paaFJSUlhTYWhYeXY4SEkyVC9nb0grMFFXQkFmUlBEcktmVWVSSVA1ZzE5VVY4djhBd20vNVA3K1BuL1l2K0hmL0FFWFBRQjlRVVVVVUFGRkZGQUJSUlJRQVVVVVVBZVZmczAvOGs2MWYvc2MvRm4vcVE2alhxdGVWZnMwLzhrNjFmL3NjL0ZuL0FLa09vMTZyUUI1Visxai9BTW1zZkdUL0FMRXpXZjhBMGhtcjFXdkt2MnNmK1RXUGpKLzJKbXMvK2tNMWVxMEFGZVZlSFA4QWs2ZjRoLzhBWW1lR3YvUzdYYTlWcnlydzUveWRQOFEvK3hNOE5mOEFwZHJ0QUhxdEZGRkFIbFg3SjMvSnJId2Ivd0N4TTBiL0FOSVlhOVZyeXI5azcvazFqNE4vOWlabzMvcEREWHF0QUhsWHhrLzVLTDhDZit4enVmOEExSHRacjFXdkt2akovd0FsRitCUC9ZNTNQL3FQYXpYcXRBQlhsWDdKMy9Kckh3Yi9BT3hNMGIvMGhocjFXdkt2MlR2K1RXUGczLzJKbWpmK2tNTkFIcXRlVmZzMC93REpPdFgvQU94ejhXZitwRHFOZXExNVYrelQvd0FrNjFmL0FMSFB4Wi82a09vMEFlcTBVVVVBRkZGRkFCUlJSUUFVVVVVQUZGRkZBQlhLZURkRTEzU2ZFZmp1NjFlLysyYWZxZXRSM2Vqdytjei9BR1MwR25XY0xSYlNNSm00aHVaTnE1SDczZDFZZ2RYWEYrQXZEbHRvZmlyNGtYc0dzd2FwTHJHdnhYMDlyRVJ1MDUxMHV3dHhCSmhqOHhXM1Nia0tkczY4WXd6QUhhVkRkLzhBSHUzNGZ6cWFvYnYvQUk5Mi9EK2RSUDRXTmJvNVh3ZC95TDF0L3ZTZitodFRMMy9rYzlML0FPdlNmLzBKS2Y0Ty93Q1JldHY5NlQvME5xWmUvd0RJNTZYL0FOZWsvd0Q2RWxmTXIvZEtQL2JuNW85UC9sOVAvdDc5VGRybS9FSC9BQ04zaFgvcnJjLytpR3JwSzV2eEIveU4zaFgvQUs2M1Avb2hxNk1iL0NYK0tIL3BjVE9oOGI5SmZrenBLd2RYL3dDUnQ4UGY3dHovQU9nTFc5V0RxLzhBeU52aDcvZHVmL1FGcDR2K0d2OEFGRC8wdUlxUHhQMGY1TTNxNS9YZitSbThPLzc4L3dENkFLNkN1ZjEzL2tadkR2OEF2ei8rZ0NqR2Z3bC9pai82VWdvL0g4bitUT2dyRTFML0FKR3JSUDhBcmxjL3lTdHVzVFV2K1JxMFQvcmxjL3lTcXhYd0wvRkgvd0JLUk5MNG42UDhtYjBQK3RUL0FIaFduV1pEL3JVLzNoV25YclVkbWMwd3JCOGIvd0RJc2FoLzF3ay85RnRXOVdENDMvNUZqVVArdUVuL0FLTGF0S253TXhsc3pIOEpmOGl0by84QTE1dy8rZ0NzcXcvNUtYckgvWU90di9RNWExZkNYL0lyYVA4QTllY1Avb0FyS3NQK1NsNngvd0JnNjIvOURscmllMFA2Nk14NlJPcnJpcFArU3oyLy9Zdnkvd0RwVEhYYTF4VW4vSlo3Zi9zWDVmOEEwcGpxcXV5OVVPZlQxTzFya2svNUt0Si8yQkYvOUtEWFcxeVNmOGxXay83QWkvOEFwUWFkVDdQcUUrbnFkYlhJUy84QUpWNGYrd1FmL1J4cnI2NUNYL2txOFA4QTJDRC9BT2pqUlUrejZvSjlQVTYrdVhoLzVLWGMvd0RZSWgvOUhTVjFGY3ZEL3dBbEx1Zit3UkQvQU9qcEtkVGVQcU9YUTZpcjJrZmZuLzREL1dxTlh0SSsvUDhBOEIvclc4ZHkrcHBVVVVWc1dGRkZGQUJYbFg3V1AvSnJIeGsvN0V6V2YvU0dhdlZhOHEvYXgvNU5ZK01uL1ltYXovNlF6VUFlcTBVVVVBZVZmQnYvQUpLTDhkdit4enR2L1VlMGF2VmE4cStEZi9KUmZqdC8yT2R0L3dDbzlvMWVxMEFlVmZ0TGY4azYwai9zYy9DZi9xUTZkWHF0ZVZmdExmOEFKT3RJL3dDeHo4Si8rcERwMWVxMEFjVjhFUERkajROK0MvZ0hRTk0xcTM4U2FicFhoL1Q3RzExcTAyK1RmeFJXMGFKY0p0Wmh0a1ZRNHd6REREQlBXdkNmMlJ4NVA3Ukg3VTl1dktMNHJzNWNucmw3UUUvaHhYdTN3UXN2RHVuZkJmd0RhZUVMKzQxVHduQjRmMCtMUjc2N1VyTmMyUzIwWWdrY0ZFSVpvd2hJMkx5VDhvNkR3cjlrei9rNVA5cWovc1p0UC84QVNPZ0Q2cW9vb29BS0tLS0FDaWlpZ0Fvb29vQUsrV1ArQ2laYUg0VGVCcnBTRSt5K1A5Qm1MbitERnhqUDYxOVQxOHEvOEZKY1IvczhhZmNZeTF2NHIwV1ZSbmdrWGFEbjh6UUI5VlUxM0VhTXh5UUJrNEJKL0lkYWRUWGRZMFozWUtxakpZbkFBOWFBUEZsL2JIK0Zpd1hGMWM2bHIrbDZkYTNxNmRlYXBxdmhEV0xLeHNiaHBGajJYTnpOYUpGYjRhUkFUSzZoZHczRUN2YVVkWkVWMFlNckRJWUhJSTlhL05yeGY4US9BdmlMNFlmSGsydngyc0pmN1I4UmFuTFkrQWJhOTArNnRmRUNzWXZMaEVjQ0xxRWkzSkhsN3JlNFQ3MlJ3R0I2YjQyZkV1NjhHYVg4WlUxenhEcmZ3KzFYV2ZobHBPdStIL0Q2K0lidTNrdE5WU085TThkZ2lTZ3A1VFIyNGxTRUJOcVprWGFXSkFQMEJyanZIL3hTMG40Y2FoNFZzOVR0dFJubThTYXJGbzltMWxhTkxGSE00SkRUU2NKR3ZIOFJ5ZjRRMkRqNFUxdjQzMkRYL3dBWC9GSitOdXRKTG9makh3eU5GMDYvMTRhZkhaeHpDd041QTluaUlsVkgyeUdTR2RHQytSS1hYemxsa085NGsrS2VoNi80djhNMy9pRHhackQvQUJGc2ZpbXR0ZCtEN2U3dWJrVytscmNTL1laSTlOajNLWVd0bXM1UmVSeGd5Tk5qekNIMlVBZlhudy8rTkduL0FCUTBXZlZQRDJoYTVjVzF0cjF6b0Z5dDFieDJrdHU4RWpSeVR2SE5JamlJTXYzY2ViOHcvZDljZWhWK2UvaG40MmVIdE11L0RrK2svRkN3MDYxdmZqbnJLWGRsWTYxYnBEcUZsSzF5NnZLUWR6eFpNQkdHQ0h6a0xCaVl5SXZnL3dERit5czcvd0NHZXRYWHh5MUR4UHFlcWZGTFcvRDBxNm40b2llM3VOTEM2aDVTL1pveWtMQm5OZzZ5YkNWTnhDc1pTTjRrQUIraHRGZkNIN01uaSsyK0lIeHk4TXkzUHhIdnJ2VjdHMjFZNnRZM0h4REU4SGlDOWFZRzNudGRIanZYZTNqU0ZiaDJnbXQ0UkVIUmZLSlRjbjNmUUFWOHYvQ2Ivay92NCtmOWkvNGQvd0RSYzlmVUZmTDN3bmRSKzM5OGVrTERjZkQzaDRoYzhrQkpzL3pINTBBZlVORkZGQUJSUlJRQVVVVVVBRkZGRkFIaW5oMzRWL0ZQd05GcXRoNGIrSUhnK0hSYnJXdFUxZTNoMVR3YmRYTnhEOXR2cDd4bzNsVFZZbGZhMXd5aGhHdVFvNHpXdC93am54di9BT2loL0QvL0FNSU8rLzhBbHpYcXRGQUhoWHhDK0UzeGgrSlhnRHhMNFExUDRrZUI0Tk4xL1RMblNycVcwOEMzaXpKRlBFMFRzaGJXR0FZSzVJSkJHY1pCNlYwSC9DT2ZHLzhBNktIOFAvOEF3Zzc3L3dDWE5lcTBVQWVWZjhJNThiLytpaC9EL3dEOElPKy8rWE5jL1pmQ2I0dzJIai9XZkY4ZnhJOERuVXRWMHl4MHFlSnZBdDU1S3hXc3QzTEd5aisyTWhpMTdLR0pKQkNwZ0RCSjkxb29BOHEvNFJ6NDMvOEFSUS9oL3dEK0VIZmYvTG1qL2hIUGpmOEE5RkQrSC84QTRRZDkvd0RMbXZWYUtBUGxyOW15YnhmNGcrRU9nNlo4TS9qVDhPL0ZuaGZ3eGF3ZUhZdFFYd1BldStiYTNpVUxJdzFkUVg4c3hzY0tCODNBSFN2VVArRWMrTi8vQUVVUDRmOEEvaEIzMy95NXI1Vi80SXFmOG1zZUtmOEFzYzdyL3dCSWJHdnYrZ0R3cnhOOEp2akQ0cTFyd25xZDM4U1BBOGR4NGExTjlWczFoOEMzZ1dTVnJLNXN5c2dPc0VsZkx1NURnRUhjcUhPQVFlZy80Uno0My84QVJRL2gvd0QrRUhmZi9MbXZWYXdmR3ZqalJ2aDlvYmF0cmx4TEJhZWJIQWlXMXJMZFR6U3V3Vkk0b0lWZVNWeVR3cUt4Nm5HQWFBT0kvd0NFYytOLy9SUS9oLzhBK0VIZmYvTG11ZjhBaDc4SnZqRDhOZkFIaHJ3aHBueEk4RHo2Ym9HbVcybFdzdDM0RnZHbWVLQ0pZa1p5dXNLQ3hWQVNRQU01d0IwcjFUd1I0LzBENGphUkpxZmgzVUJxTm5GTzFySzNsUEUwVXlnYjRuUjFWa2tRbmE2TUF5TUdWZ0dWZ09ob0E4cS80Uno0My84QVJRL2gvd0QrRUhmZi9MbW0vQjd3OTRsOEErRzlUOE91K2srSXJ5MjFyVWIyODFKV2wwNk9XZSt1cE5SY1IyK0p5aUliellNeXNTRXlUelhvc1hpR3h1WjlPanQ1Skx0TCtKNXJlNXRZWG10MlJkdVMweUtZMHp1RzBNdzNjN2M0T01sdkQrdldlcjZ0ZGFacStuUVcrb1hDM0podTlOa21kR0VNY1JBWlowQkdJZ2Z1OXpRQnErSE5YazF2Uy90TTBDVzB5enoyN3hSeUdSUTBVcnhuREZWeUNVejBIV3RPc253dm8wMmc2UUxXNXVVdkxocmk0dVpKb29URWhhV1o1U0FwWmlBQytPV1BTdGFnQW9vb29BS0tLS0FDaWlpZ0Fvb29vQUs0cndCWWFCWitLL2lWTm8rb1RYdW8zZmlDR2JXb0pWd3RwZURTdFBSWWsrVVpVMnlXc21jdHpLM1BHMWUxcml2QUZ6NGRuOFYvRXBORnRMaTIxS0R4QkRIcmtzeEpXNHZmN0swOWtlUDVqaFJiTmFKd0YrWkg0L2lZQTdXb2J6L2ozYjhQNTFOVU4zL3g3dCtIODZpZndzYTNSNVJwUHhFaTBPeit3VGFScUxTd1NTS1dTSWxUODU1Qi9HcXQ3OFRZVHI5bGZMb21xTkhGQkpHdzhnNXl4VWorUnIxR2l2a0hnTVp5S21zUm9yVzl4ZE51dmtldXNSUjVuSjA5WDU5L2tlZS84TGp0L3dEb0E2ci9BTitheU5VK0p5WHV1NkplSm9XcUNLeWVacE13bkpEUmxSajhUWHJPQjZVWUhwU3FZSEhWWThzc1QxVCtCZEdtdXZkRGppS0VIZFV2L0puMTA3SG52L0M0N2Y4QTZBT3Evd0RmbXN5KytLRWR6cm1sWGk2RnF2bDJ3bURnd25QektBUDVWNnJnZWxHQjZVNTRISFZGYVdKNnAvQXVqVDcrUW8xNkVYZFV2L0puMStSNTcvd3VPMy82QU9xLzkrYXl0UytLRWQ1ck9rM1NhRnF2bDJyU2x3WVQvRW9BL2xYcStLTUQwb3FZSEhWRnl5eFBWUDRGMGFmZnlIR3ZoNHU2cGY4QWt6L3lQUGYrRngyLy9RQjFYL3Z6VkNmNG9SWG11YWRkRFE5VVdLM2ptVnQwSkJ5MjNIL29KcjFIQTlLTVU1NExIVFNVc1QxVCtCZEhmdjVDVmVoSFZVdi9BQ1ovNUhIYVY4VHJlLzFTenRWMG5VWTJtbVNJTzhSQ3JsZ01uMjVyMGVzeUgvV3AvdkN0T3Zld05PdFRqSlZxbk8vU3h3VjVRazF5UnQ4N2hXRDQzLzVGalVQK3VFbi9BS0xhdDZzM1hyZEx1d01FbzNSeUVvdzlRVklOZWhOWGkwY2t0VWNoNFcxZXdqOE02U3B2cllFV2tRUDc1ZjdnOTZ5ckxWN0JQaVJxenRmV29WdE90Z0NabDVPK1QzOTZ5Qit6cDRKVUFDeXVnbzRBRjAvRlJTZnMyZUJwWDNteXV0MkFNL2FuNlY1VCtzV2l1VmFlYi95T1IrMTAwV25uL3dBQTlEL3QzVGYrZ2paLzkvMS94cmpaTlpzUCtGeDJ6L2I3WFovWUVvM2VjdU0vYVkrTTVyTi80WnE4RGY4QVBsZGYrQlQwMy9obWJ3SnYzL1licmRqR2Z0VDlLSi9XWlc5MWI5My9BSkEvYlBvdnYvNEI2Ti9idW0vOUJHMC83L3IvQUkxeXFhenAvd0R3dE9SL3Q5cnMvc1ZSdTg1Y1o4ODhkYXhmK0dhdkEzL1BsZGYrQlQwbi9ETS9nVGZ1K3czTy9HM2Q5cWZPUFNpVHhNcmU0dFBOL3dDUVAyenRvdnYvQU9BZWkvMjdwdjhBMEViUC92OEFyL2pYSlM2MXAvOEF3dFNCL3Q5cnMvc2dqZDV5NHo1cDk2eVArR2F2QTMvUGxkZitCVDAzL2htYndKdjMvWUxuZmpHNzdVK2NlbEVuaVpXOTFhZWIvd0FnZnRuMFgzLzhBOUcvdDNUZitnalovd0RmOWY4QUd1YmgxaXdiNGtYTHJmMnBYK3lZbHo1eTR6NTBudlhQL3dERE5YZ2Ivbnl1di9BcDZkRCt6YjRHaFlzdGxkYmlNRS9hbXppbTNpWk5lNnRQTi81RGZ0bmJSZmYvQU1BOUJuMTdUb1laSkRmVzJGVXNjVEwySDFyYTBHWVhFYnlyOTExUmhuMElOZVUvOE03ZUN2OEFuenV2L0FwNjlYMEtKWUVlSkJoRVZGVWVnQU5kVkYxWEw5NGt2UjMvQUVOWU9iZnZJMWFLS0s3VGNLS0tLQUN2S3Yyc2YrVFdQakovMkptcy93RHBETlhxdGVmL0FMUXZoYlZQSFB3QytKZmh2UkxYN2JyV3NlR2RUMCt4dHZNV1B6cDViV1NPTk56a0t1V1lETEVBWjVJRkFIb0ZGZVZmOExrOFhmOEFSQ2ZpQi80SGVIdi9BSmEwZjhMazhYZjlFSitJSC9nZDRlLytXdEFCOEcvK1NpL0hiL3NjN2IvMUh0R3IxV3ZuWHdCNHY4ZWVGZkZmeEsxTzcrQjNqaVMzOFMrSUlkVnMxaDFEdytXamlYU3RQc3lzZ09xQUJ2TXRKRGdFamF5SE9TUU8xLzRYSjR1LzZJVDhRUDhBd084UGYvTFdnQS9hVy81SjFwSC9BR09maFA4QTlTSFRxOVZyNS84QWlSNGk4YmZGRFNkRTBHMytEdmpEUlA4QWlwdEExQ2JVZFV2dEUrejI4RnBxOXBkek80aDFHU1E0aWdmQVJHSk9Cam12b0NnRGl2Z2hlK0hkUitDL2dHNzhJV0Z4cGZoT2Z3L3A4dWoyTjJ4YWEyc210b3pCRzVMdVN5eGxBVHZia0g1ajFQaFg3Sm4vQUNjbisxUi8yTTJuL3dEcEhYdXZ3UThTV1BqTDRMK0FkZjB6UmJmdzNwdXErSDlQdnJYUmJUYjVOaEZMYlJ1bHVtMVZHMk5XQ0RDcU1LTUFkSzhLL1pNLzVPVC9BR3FQK3htMC93RDlJNkFQcXFpaWlnQW9yODF2Mm4vMm4vaS80US9hUCtJWGh6dzU4UXIzUWRCMGk2czRMT3d0dEwwNlZZMWZUclNkenZtdHBISk1rMGg1WTR6Z1lBcnpML2hyNzQ4LzlGYTFYL3dUYVA4QS9JVmRVY1BVbWxKR0VxMEl1elAxMm9yOGVOVS9iUDhBajlZMzJqd3gvRmpVaXQ1ZE5CSVcwWFNNaFJCTEprZjZGMXpHUHd6V2ovdzE5OGVmK2l0YXIvNEp0SC8rUXFmMVdveGUzZ2ZydFJYNUUvOEFEWDN4NS82SzFxdi9BSUp0SC84QWtLdnNqOWxhMCtJdnh4K0J1aCtNOWQrTnZqSzAxUyt1dFJna2gwN1RkQlNBTGIzOXhib1ZENlk3WktRcVRsanlUakF3Qm5Vb3pwSzhpNFZJejBSOVhWK2RQL0JZZndWNC9mNGRhRDRzOE1hN3E1OExRM01OanJlZzIwckdEelBORDJsMXNIY1MvSVQ2dERpdnNIL2hUZmk3L291M3hBLzhBZkQzL3dBcXE0RDRvZkQzeGhwbmlINGI2RS94bjhaYWpwL2lieEUrbTNzZDlwZmg2VFlrV21YOThqeGoreXdBNG1zb2VXRERHN0F6aGhnYW5vbjdNM2d6eFY0RCtCM2hUUy9IR3U2aDRqOFltMEZ6cTE5cWR5MDh2MmlUNTJpRE1UOHNlNFJqSEIyWjZrMTZoWGxYL0NtL0YzL1JkdmlCL3dDQVBoNy9BT1ZWSC9DbS9GMy9BRVhiNGdmK0FQaDcvd0NWVkFIcXRGZm5PbnhmK01MYXQ0a3RUOFkvRWZsNmI0ZzFiU29UL1pPaVphSzF2NTdhTm0vNGwvTEZJbExFWUJKT0FCd0p2K0ZzL0YvL0FLTEo0ay84RldpZi9LK3ZkcDVMaTZzSTFJcFdhdnYzUEVxWnhoYVU1VTVOM1R0dDJQMFNvcjg3ZEwrTFh4ZnZ2aUI0SjBLVDR4K0l4YWEzcVUxbmNPdWxhSjVpSWxoZDNBS0grejhBNzdkQnlEd1c0emdqM1A4QXNUNGcvd0RSYi9Hdi9ndTBELzVXVjRlT1g5blZmWTEvaXRmVFU3S09ObzE0YzhOajZmcU80aFc1Z2toY3VFa1VvVEc1UmdDTWNNcEJCOXdRUlh6Si9ZbnhCLzZMZjQxLzhGMmdmL0t5dlMvMlpmRTJ1ZUsvaEpEZWVJdFhuMTdWYmZXdGIwMTlSdVlZWXBaNDdYVnJ1MmhMckRISEdHOHFHTUVxaWdrWnh6WE5TeEVLemFpZFVLa1o2SW04Q2ZCR2Z3Vk5vOGR6OFF2Rm5pblNOR2lXUFQ5SDFzYWVZSUNrZmx4c1hndElwcFdSQ1FETEkrU2R6Qm5Dc1BUcUtLNkRVSytWZmhYL0FNcEVQam4vQU5pem9YL29MMTlWVjhxL0N2OEE1U0lmSFA4QTdGblF2L1FYb0ErcXFLS0tBQ2lpaWdBb29vb0FLS0tLQUNpaWlnQW9vb29BS0tLS0FDaWl2SC8yczczNGk2TjhCdkUrcy9DelVWc1BHT2tRL3dCb3dSdmFSM0l1b284dE5DRWRTTnhUY1Z3TWxsVWR6UUI4d2Y4QUJGVC9BSk5ZOFUvOWpuZGYra05qWDMvWDVPZjhFV2RRK0kybzMvaW5UTFhVVnMvaFhwY3JYOTVhbTBqWnJ6VTU0MGlSQktWM0JWamgzc0ZQQlZNakRtdjFqb0FLOG4vYVQwZXoxN3dOWTJWL3BmaVc4dDMxS09UKzB2Q0RTalU5R0tSeXlDK2dFU3N6dEdVeHNDdHYzN1FraFlSdjZ4UlFCOGg2WnEzalcrOEo2Vy9qUzI4WTZqNEpsOFIzMGQxcjNoM1JOUTBUWDlSdFZ0ayt4M1YzWldJUzhqL2ZyTkEzbHhvWEVVRWhSWW5OSGdMd2o0cjhWL0ZMUU5BOGRhOThTNXRHajhNWExSSkJjYWxwZHJ2Rjg0czN1TDIwU0hkZG15S2VZa2t4K2NuS2h3dVByeWlnRDg5ZkJCOFYrQ2ZoRDhNOUIwYVQ0dDZIUGIvRGZWckhVckNEUU5XbVd5MWxZYlV3bERMYXlZY3RIY0pHQVRFaXFQSkNid1gzTFh4TjR4MGZ3bjhRN0JiL0FPS0VvbjBId3Bjd1grdGFicmFTM0Y5SmRsTlNnaGxFQWVBdWt0ckc0czA4eU1QSThVYlNSc0srN3F3UEcvZ1hSdmlMb1IwalhiZWFhMDg2TzRSN1M3bXRMaUdXTmd5U1JUd3Vrc1Rnajd5TXB3U000SkJBUExQMlJvcEl2QU9zZmJOUzErNzFTVFdMaWFlejhRejYxTExwNlBob2JlTjlXaml1SkkxaUtBU2lKRmR0L0JZTWE5eXJuL0JYZ2JTZkFHbFNhZnBBdm5pbG1OeExQcWVwWE9vWE0waENydWtudUpKSlhJVlZVYm1PRlZRTUFBVjBGQUJSUlJRQVVVVVVBRkZGRkFCUlJSUUFWeFhnRHhEcCt0ZUsvaVZaMldqUTZaYzZSNGdoc3I2NmlJM2FqTTJsYWZPSjN3bytZUlR4UThsamlCZWNZQTdXdVQ4RitJTlgxbnhKNDl0TlMwd1dGbnBPdFJXV21YQWhkUHR0dWRPc3AybUxOdytKcDU0dHk4ZnVkdjNsYWdEcktaTEdKb3loSlVIdU90UG9wTlhWbUJVL3M1Zitlc242ZjRVZjJjdi9BRDFrL1QvQ3JkRloreWgySzVtVlA3T1gvbnJKK24rRkg5bkwvd0E5WlAwL3dxM1JSN0tIWU9abFQremwvd0Nlc242ZjRVZjJjdjhBejFrL1QvQ3JkRkhzb2RnNW1WUDdPWC9uckorbitGSDluTC96MWsvVC9DcmRGSHNvZGc1bVZQN09YL25ySituK0ZIOW5ML3oxay9UL0FBcTNSUjdLSFlPWmxWTEJVZFc4eVE0T2NISCtGV3FLS3VNVkhZVGJlNFZVMUtLU1dGQkdoa1lObkFJSEdENjFib3B0WEVZZjJTNi81OW4vQU8rbC93QWFQc2wxL3dBK3ovOEFmUy80MXVVVkhJaWJHSDlrdXY4QW4yZi9BTDZYL0dqN0pkZjgrei85OUwvalc1UlJ5SUxHSDlrdXYrZlovd0R2cGY4QUdqN0pkZjhBUHMvL0FIMHYrTmJsRkhJZ3NZZjJTNi81OW4vNzZYL0dqN0pkZjgrei93RGZTLzQxdVVVY2lDeGgvWkxyL24yZi92cGY4YVBzbDEvejdQOEE5OUwvQUkxdVVVY2lDeGgvWkxyL0FKOW4vd0MrbC94cTdwa0VzUG1tU014N3NZQklQcjZHcjlGTlJ0cU93VVVVVll3b29vb0FLS0tLQUNpaWlnQW9vb29BS0tLS0FPVStFK3Y2NTRyK0ZuZzNXL0UrbS8yTjRrMUxSYks5MVRUdkllRDdMZFNRSTgwWGx5RXVtMTJaZHJFc01ZSnlLOEEvWlIvZGZ0Ti90VlFOeElQRWVteUVmN0xXV1YvbFh2OEE4Si8rRW4vNFZaNE4vd0NFMi81SFAreGJMKzNQOVYveC93RGtKOW8vMVg3di9XNy9BTG55L3dCM2pGZUFmc3QvOG5ZL3RYZjloclJmL1NBMEFmVlZGRkZBSDVFL3RmZjhuYmZGci9zSWFmOEErbWV3cnlldldQMnZ2K1R0dmkxLzJFTlAvd0RUUFlWNVBYdlVQNGNUeWF2eHN4UEVIL0lXOE0vOWhCLy9BRWt1SzI2eFBFSC9BQ0Z2RFA4QTJFSC9BUFNTNHJiclZic2g3SUsvVC84QTRKNC84bWsrRS84QXNJYTMvd0NuaTlyOHdLL1Qvd0Q0SjQvOG1rK0Uvd0RzSWEzL0FPbmk5cmh4bndvNnNOdXo2UHJ5cjR5ZjhsRitCUDhBMk9kei93Q285ck5lcTE1VjhaUCtTaS9Bbi9zYzduLzFIdFpyeWp2UFZhS0tLQVB6SWkvNUdQeHovd0JqbjRrLzlQTjVWbXEwWC9JeCtPZit4ejhTZitubThxelg2N2dmOTFwZjRZL2tqOHB4dis5VmY4VC9BRFluaDcva3Mzd3Avd0N3NWRmK21mVWErdWErUnZEMy9KWnZoVC8ySExyL0FOTStvMTljMStTOFcvOEFJeC83ZFg2bjAyV2Y3c3ZtRmFYN0pYL0pIWnYreHE4VWYrbi9BRkNzMnRMOWtyL2tqczMvQUdOWGlqLzAvd0NvVjRPWC9GSStodzI3UFpLS0tLOXM3d3I1VitGZi9LUkQ0NS85aXpvWC9vTDE5VlY4cS9Ddi9sSWg4Yy8reFowTC93QkJlZ0Q2cW9vb29BSytVdjIzUERkeHBpZUNmRWVuK0t2RitrM21yZU1kQTBDNHQ5SThUWDloYS9ZNWJrcE1pdzI4cUx1a1Y4R1FndjhBS3UxbHhYMWJYQy9GYjRKK0V2alhaNlZhK0xyVFVMeTMwdTdXL3RFc2RZdmRQOHU0VWdwTG0ybWpMT2hBS3MyU3B5VndTYUFQSFBpTCswWGEvc3hhakw0UXROSjFQeGJvL2h2VElOZTE3VnRiMTJXVytzN0c4MUkyOFN3bVNPUjd4NHlaUGxsa2pJamlRZVk3RTB6dzMrMlRxMm8vRm1Ud3JxM2dPMTAvUlI0M3VQQXE2eGFhODF6S2J4TFEzVVVodDJ0WXdJM1FZSjh3bFc3TU9hOWU4Y2ZBTHdKOFI5ZTB2V2ZFV2lQcU9vYWRIRkFqL2JyaUpMaUtPWlo0NHJsRWtWTHFOWlVXUUpPSkZEWklHV09mS2ZncCt5bkw0YStNSGo3eDU0NDAvVGI3VUwzeFZjZUlQRGJXR3VYdHhGWnJOQUlHTWxvNlJ3TE9FWC9XaFhiRWhYY0FpbGdENllvb29vQStkZmhMOEpkSytKV2dhOXIrdjY5NDRuMUtYeGI0a3RpYlR4MXJkbkNrVUd0M3NFTWFRd1hhUnhxa1VVYUJWVURDaXUxLzRacDhJLzhBUVgrSUgvaHgvRVAvQU1uVWZzMC84azYxZi9zYy9Gbi9BS2tPbzE2clFCODFmdEMvQkxSZkEzd0MrSmZpVFJQRVB4QXN0YTBmd3pxZW9XTnovd0FMRDErVHlaNHJXU1NOOXIzcFZzTW9PR0JCeHlDSzlBLzRacDhJL3dEUVgrSUgvaHgvRVA4QThuVWZ0WS84bXNmR1Qvc1ROWi85SVpxOVZvQThxLzRacDhJLzlCZjRnZjhBaHgvRVAveWRYbitpL0JMUmJ2NCsrTXZEY3ZpSDRnUG91bitHZEQxQzJ0ditGaDYrUExudUxyVm81bjNDOTNIY3RyQU1Fa0Rad0FTMmZwV3ZLdkRuL0owL3hELzdFencxL3dDbDJ1MEFIL0ROUGhIL0FLQy94QS84T1A0aC93RGs2ay80WnA4SW4vbUwvRUQvQU1PUDRoLytUcTlXb29BK1EvMk9mMlN2QWVqL0FMTlB3OXY3VzY4WDJsNzRnMFd5MTdVbjAzeG5xK25wUGQzTnZISkk1aXRibUtQSXlFQjI1Mm91U1NNbjJmOEE0WnA4SS84QVFYK0lIL2h4L0VQL0FNblVmc25mOG1zZkJ2OEE3RXpSdi9TR0d2VmFBUG1yNGwvQkxSZkQvalQ0VDJGaDRoK0lGdmFhNTRtbjAvVUkvd0RoWWV2dDU4QzZOcWR5RXliMGxmMzF0QzJWd2ZreG5CSVBvSC9ETlBoSC9vTC9BQkEvOE9QNGgvOEFrNmo0eWY4QUpSZmdULzJPZHovNmoyczE2clFCNVYvd3pUNFIvd0NndjhRUC9EaitJZjhBNU9yei93RFo2K0NXaStPZmdGOE5QRW10K0lmaUJlNjFySGhuVE5RdnJuL2hZZXZ4K2RQTGF4eVNQdFM5Q3JsbUp3b0FHZUFCWDByWGxYN0ozL0pySHdiL0FPeE0wYi8waGhvQVArR2FmQ1AvQUVGL2lCLzRjZnhEL3dESjFIN016M0gvQUFxNjR0N2kvd0JRMVA3RDRtOFNhZkRjYXBmVFh0eDVGdnJkOUJDanpUTThqN0lvMFFGMkp3bzVyMVd2S3YyYWYrU2RhdjhBOWpuNHMvOEFVaDFHZ0QxV2lpaWdBb29vb0FLS0tLQUNpaWlnQW9vb29BSzVUd2JKNG1meEg0N0d2THQwdE5halhRRGlNYnJIK3pyTXVmbDUvd0NQczNnK2Y1dVA3dTJ1cnJsUEJ1aWE3cFBpUHgzZGF2Zi9BR3pUOVQxcU83MGVIem1mN0phRFRyT0ZvdHBHRXpjUTNNbTFjajk3dTZzUUFEcTZLSzVmNG1ueG9QQkdwSDRlTG9MK01QM2YyRWVKbW1YVC93RFdwNW5tbUVHVC9WK1p0Mmo3MjNQR2FBT29vcjVjbXVmMjBvazNMWmZBcVk1KzZseHJPZjFVVkhEcVg3YUt2bVhSZmdrNlk2SmVhcXAvTXFhQVBxZWl2bHFmVy8yeTRkdXp3eDhHNTg5ZkwxTFVoajgxRkpCNGsvYklWajUzZzM0UnlMamdKcTErcC9WVFFCOVRVVjhzeitMdjJ3NG5BWDRmL0N5WVl6dVRXN3NENmNxS1dEeHIrMSt1N3p2aHQ4TTVQVFpyOXl1UHpRMEFmVXRGZkswdnhCL2E5amNxdndtK0gwZ0g4UytKSmNIODFCcVNENGovQUxXeXFmTytEdmdTUnM4R1B4UzZqOVl6UUI5UzBWOHJOOFUvMnRReEErQnZnNWdEMUhpNGMvOEFqbFN4ZkZqOXExSXo1dndGOEt5dU9mM2ZqTkZ6N1lNWi9uUUI5U1VWOHEvOExsL2F0LzZOMThQL0FQaGIyLzhBOFJVbytOZjdVa1VHWC9acjBlZVFkUkY0K3RWejlBWXY2MEFmVXRGZkZQeEIvYkkvYUIrRjBmaDUvRXY3TnRocDZhL3JOdG9HbmtlT3JXVHpiMjRKRU1aMlJIYUNWUHpOaFJqa2l1eGY0LzhBN1RrTUtrL3NvdzNFblFpTDRrYWN2NDRhTCt0QUgxTFJYeXIvQU1ORC90Ty85R2pmK1pLMHYvNDNVa3Y3UnY3UnR1RTh6OWt5NzNNT2tYai9BRXlRRDhRdEFIMU5SWHlyL3dBTkxmdEUvd0RScG1vZitGMXAzL3hOUG0vYWUrUEVEN1cvWlMxMG5yOG5pelQySDVnRVVBZlU5RmZLeS90U2ZIUXNOMzdLWGlFTG5ranhUWUUveXBaUDJyL2pIRzVVL3NyK0x5Ung4dXRXUkg1ZzRvQStxS0srVm8vMnN2akFYQWY5bGp4aXFkeXVzV1pJL0RJcHAvYkIrSjRQL0pybnhBLzhDYlgvQUJvQStxNksrVlUvYkQrSmFuTTM3THZ4RFdNQWttT2EyZHVuWWJobWovaHMvd0FkL3dEUnNQeFEvd0MvRUgveGRBSDFWUlh5cVAyMC9Hc1FMVC9zeC9GUll4M2hzNEpHei91aVNqL2h0M3hQL3dCR3ovR0Qvd0FFOFgveHlnRDZxb3J4ejRJL3RBYXY4WDlhMUN3MUg0VCtOL2g3SGFXNG5XODhVMktRUXpuY0Y4dENySExjNXg2Q3ZZNkFDaWlpZ0Fvb29vQUtLS0tBQ2lpaWdBb29vb0E1VDRUNkJybmhUNFdlRGRFOFQ2bC9iUGlUVGRGc3JMVk5SODk1L3RWMUhBaVRTK1pJQTc3blZtM01BeHprakpyd0Q5bHYvazdIOXE3L0FMRFdpLzhBcEFhOTErQ0hodXg4Ry9CZndEb0dtYTFiK0pOTjBydy9wOWphNjFhYmZKdjRvcmFORXVFMnN3MnlLb2NZWmhoaGduclhoWDdMZi9KMlA3VjMvWWEwWC8wZ05BSDFWUlJSUUIrUlA3WDMvSjIzeGEvN0NHbi9BUHBuc0s4bnIwZjlzL1FiYlZQMnZmaXhMTkxlb3d2dFBVQzJ2cDRGeC9aRmdmdW82Z25ucmpQNVY0Ny9BTUlmWWY4QVB4cXYvZzN1L3dENDdYdVViK3ppZVhWdHpzUEVIL0lXOE0vOWhCLy9BRWt1SzI2NHpYUEN0bEZxZmg1UlBxUkVsOHl0dTFTNVlnZlpwendUSjhweUJ5TUhHUjBKRmJIL0FBaDloL3o4YXIvNE43di9BT08xcXVhNzBJZHJJMjYvVC84QTRKNC84bWsrRS84QXNJYTMvd0NuaTlyOHBmOEFoRDdEL240MVgvd2IzZjhBOGRyOUYvMkUvZ1I0YjhVZnN3ZUdOU3ZOVDhaUTNFdDlyQ3NtbmVPTmFzb0FFMVc3UWJZWUx0STFPRkJKQ2dzY3Njc1NUeFl1L0tyblRoN1hkajdTcnlyNHlmOEFKUmZnVC8yT2R6LzZqMnMwZjhNMCtFZitndjhBRUQvdzQvaUgvd0NUcTgwK0xIN1BuaGV3OGVmQmlDTFZmSERKZStMYmkzbE0zajdYWldWUm9XclNaalo3MG1KdDBhamVoVmlwZE03WFpUNVozSDFCUlhsWC9ETlBoSC9vTC9FRC93QU9QNGgvK1RxUCtHYWZDUDhBMEYvaUIvNGNmeEQvQVBKMUFIdzdGL3lNZmpuL0FMSFB4Si82ZWJ5ck5jUkY4THRHT3Y4QWpKUHR2aVBiRDR0MSszVS84Sk5xV1NzZXJYU0tXUDJqTE1Rb0xPMldZNVppV0pKc2Y4S3IwWC9uOThTZitGUHFmL3lSWDZ4Z25WK3EwclJYd3JyNUx5UHk3R0tuOVpxM2IrSjlQUDFPdThQZjhsbStGUDhBMkhMci93Qk0rbzE5YzE4TDZGOExORmwrTFB3enRUZStJeEZkYXpjeHlNdmlmVWxrQUdsWDdqWTR1TnlIS0FibElKQlpTZHJNRDlSZjhLRDhNLzhBUVQ4YS93RGhkNjUvOG1WK1ZjVmE1aDcrajVWdHIzOUQ2VExWSDZ1clB2MC80SjZOV2wreVYveVIyYi9zYXZGSC9wLzFDdkovK0ZCK0dmOEFvSitOZi9DNzF6LzVNcjAvOWpqVDR0SitCa2RqQTA3dzIzaVh4TENqWE03enlsVjE2L0FMeVNGbmRzRGxtSllua2trNXJ3OEJibWxZOS9EMnU3SHR0RkZGZXlkd1Y4cS9DdjhBNVNJZkhQOEE3Rm5Rdi9RWHI2cXI1VitGZi9LUkQ0NS85aXpvWC9vTDBBZlZWRkZGQUJYeTUrMHYrMUg0bytESHhoOEdlSGREaThQYW5wRi9jNlhEcXRsUEhNK29SSmVYcld3azNpUkk0VXdwMkVMT3pzSHlpS204L1VkY2o0cStFSGdQeDNxNmFyNGw4RStIZkVPcUpBbHF0OXF1a3dYTTZ3cko1cXhoNUVMYkJKODRYT0EzUFhtZ0Q1Ny9BT0Nndnd4OFYrUFBDUGgzVk5DTVRhVm9BMUM2dkpaN3lLMmowbWMyMytqYXd6U01veGFiWldKVGRJQkxsRmJCeHpQaG40N2VMdEkvYXRzN2JYdkQxb2t2aUtUU3RMZUM5Z2NhbFkybDNiNm5QYkxFUXdXTlUvczd6TGhDakV5M0xMdkN3UmcvWm1xNlBZYTdaTlo2blpXMm8yYk1qdGIzY1N5eGxrWU9oS3NDTXF5cXdQWWdFY2lxZHo0UDBHOThUV2ZpTzQwVFRwL0VObEM5dGE2dkxhUnRkd1JOOTZOSlNONnFjOHFDQWFBTmlpaWlnRDVxK0NXdGZGTzA4TCtJWXZEZmczd2ZxdWlyNHo4VmZaN3pWUEZ0MVkzRW4vRS92eTIrRk5NbVZNTnVBeEkyUUFlQ2RvOUEvd0NFaitOLy9SUFBoLzhBK0Y1ZmYvS2FqOW1uL2tuV3IvOEFZNStMUC9VaDFHdlZhQVBsL3dEYWIxLzR3emZzMi9GZVBVL0F2Z2V6MDEvQ1dyTGRYRnA0MHZKNW9valp5NzNTTnRKUU93WEpDbDBCSUFMTG5JOUwvd0NFaitOLy9SUFBoLzhBK0Y1ZmYvS2FqOXJIL2sxajR5ZjlpWnJQL3BETlhxdEFIbFgvQUFrZnh2OEEraWVmRC84QThMeSsvd0RsTlhtbWdhLzhZUiswbDQ2a2o4QytCMjFKdkNYaDVaN2R2R2w0SVVpRjVyWGx1c245a2tzek1aUXlsRkNoRUlaOTVDZlVGZVZlSFA4QWs2ZjRoLzhBWW1lR3YvUzdYYUFEL2hJL2pmOEE5RTgrSC84QTRYbDkvd0RLYWovaEkvamYvd0JFOCtIL0FQNFhsOS84cHE5Vm9vQStYLzJaTmY4QWpERCt6YjhLSTlNOEMrQjd6VFU4SmFTdHJjWGZqUzhnbWxpRm5Gc2Q0MTBsd2pGY0VxSGNBa2dNMk1uMHYvaEkvamYvQU5FOCtILy9BSVhsOS84QUthajlrNy9rMWo0Ti93RFltYU4vNlF3MTZyUUI4djhBeFkxLzR3djQ4K0REWGZnWHdQQmNKNHR1R3MwaDhhWGtpelMvMkZxd0tTTWRKVXhyNVprYmNBNTNLaTdRR0xwNlgvd2tmeHYvQU9pZWZELy9BTUx5Ky84QWxOUjhaUDhBa292d0ovN0hPNS85UjdXYTlWb0E4cS80U1A0My93RFJQUGgvL3dDRjVmZi9BQ21yelQ5bVRYL2pERCt6YjhLSTlNOEMrQjd6VFU4SmFTdHJjWGZqUzhnbWxpRm5Gc2Q0MTBsd2pGY0VxSGNBa2dNMk1uNmdyeXI5azcvazFqNE4vd0RZbWFOLzZRdzBBSC9DUi9HLy9vbm53LzhBL0M4dnYvbE5WVDlsT1MrbStFdDNKcWR2YjJlcFA0dDhVdGRXOXBjTlBERktmRUdvYjBTUmtRdW9iSURGRUpBQktybkE5Z3J5cjltbi9rbldyLzhBWTUrTFAvVWgxR2dEMVdpaWlnQW9vb29BS0tLS0FDaWlpZ0Fvb29vQUs0dndGNGFpMEx4VjhTTDJQVm9OU2ZXdGZpdjVMYUlqZHA3THBkaGIrUkp5Zm1JdDFsNUErV2RlTzU3U3VLOEFhYm9WajRyK0pVK2s2bEpmWDk3NGdobjFpQnhnV2QyTkswK05ZbDRHUWJlTzJrNm5tVTg5Z0FkclJSUlFBVVVVVUFGRkZGQUJSUlJRQVVVVVVBRkZGRkFCUlJSUUI4c2Y4RkFsalh3djhHWjVXS3JiL0ZUdzlLU1ArdXNnUDZFMTdGOFRmaXZkZUVQRVBoM3duNGQwU1B4TDQwMThUeldlbjNONzlpdFliYURaNTl4Y1RpT1JvNDE4eU5SdGpkbWQxQVhHNWw4ZC93Q0NoeFNMNGEvRGk0Y0Z2cy94RjBDVUFkOFRzUDVFMTMveGI4SmVKOUgrTGZnNzRuK0ZOQ2Z4WkpwZW4zbWhhcm9OdmRRMjkxTmFYTXNFZ210Mm5aSWk4YndBbEhrUU1ySERaQUJYMm9wN2RmdWR2dmRrK3liZW00K2pmWCtyL2hkcnU5RHNmQ3ZqM1ZaZE4xKzU4YmVINC9BNjZJQTl4ZHo2aWs5aExFSXQ4bHhGY0ZVL2NyaGhtUlkzQVVsa1FFWnRXM3hjOEMzdmhxejhSVy9qVHc5UDRmdlpYaHRkV2kxV0JyU2VSRmRuUkpRK3htVllwQ1FDU0JHeFAzVGp6ejRyNlY0OCtKM3dwbHU3UHd4L1oycTJXc2FickZuNFUxSzZnRnplUldsMUZQSmJ6elJ5U1FLOHZsdHMydXlLUkdYZmxnbm1HdS9CVFcvRW5qN1MvR3Q1OEtwcDExSHg5YWErMmszY21seTNHajI4Tmd0ckxjeWszQmpFa3NzY1VoVzNlVWxZWTJQei9LR3J0MmVtcVh5YmlyL2k3OXVYWFI2TFJSdjVOL05KdTM0TFhyZlRVK2lJZmpQNEwxYU9HTHcvNG0wWHhUcXQ1cDB1cWFicEdqNnRhUzNXcFFJV0JlM0RTcXJxWFJrM2xnZ1lFRmhnNHkvZ2w4ZVBEbnhxOEo2UmZXV29hWGJlSXJuUzdiVkwvd0FOUTZuRmMzZW1yTWl1b21WY01CaGhoaXFnNUJIV3ZFUEFudzE4WWFOcjNnKzRYNFlham9wWDRsYS80aDFTNkZ6cFkyMmQxRGR4d1R5K1hkRnBDVnVvRktxR2NDM2NZd3NlKzU4RnZnbnJlbWFYNEFzTmUrSHY5aTIzZ1R3MXFHalhzY3Nsakt2aUtTNVdNU0pBa1V6S1lIYU41R056NVRGM2p5bkxsVTM3amt1eWE5Yk52OGVWZDMwVzZMa2tueTM2Ny84QWJ6WDZYWFpOWGZVOTJpK0wvaGpTZkNPazYxNHA4VWVGZEJTL3NqZkxNbXZSU1dUeEtVRHlRM0VnaTgySlRKSCs4MnFQblhPTWpPZy9qM1RvTlR2elBxdWd3NkhaNlJGcThsODJyTDUwY0xHVDk5SkVWQ3BiN1l5Vm5NaERFT01BSmsvTVhoUDRSYTdwSC9Dajc2OCtEVjVMcUhoUHdwcVdsWGNqUzZSSmNXY25sS2x0Q3NodStkMnlUYVZZcW9uRzRybDl1SDRVK0IzaWlENFhlSWRDMUg0TjNpNmhmL0N2VHZEazZ6VDZSSkhlNnBhQ2FORk9Mc2dsZk1pWkpIQUFXTHFHVlZLcVBsVTVSVjdYc3Uray93RDVGZk5yZTZLakdMYVRkcjIvOUtpbitEZjNkRDdFOFBlUFBEUGk1dFNYUXZFV2s2MDJtU2VUZkRUcjZLYzJrbU03SmRqSFkyT2NOZzRyTDhGZkdiNGYvRXJVTG14OEkrT3ZEWGlxK3RvL05udHRFMWUzdkpJa3lCdVpZM1lxTWtESjR5YStjajRIdmRCMFg0bXJybncvdlBDbmhHLytHZW1hQkhtLzAyMWplNGhqdTFlMFF3enlHTmlieEkxWW9VTEsyQ1J0MzlwK3pZZGIwL3gzNGtoOGFhSHFXaitNOVMweXlrWXlXRmhaV2NsbmE3NFlpc05ycU42Vmt6SXdMeU9nWUJRaWdSc0J0S01WVWNFNzl2UGUvd0NDdmJ0MU9mbWZLbmJ0Znl1b3Y4MjQrcTI3ZlJWRkZGWmxoUlJSUUFVVVVVQUZGRkZBQlJSUlFBVVVVVUFGRkZGQUJSUlJRQnhYd1FzdkR1bmZCZndEYWVFTCs0MVR3bkI0ZjArTFI3NjdVck5jMlMyMFlna2NGRUlab3doSTJMeVQ4bzZEd3I5bHYvazdIOXE3L3NOYUwvNlFHdmRmZ2hlK0hkUitDL2dHNzhJV0Z4cGZoT2Z3L3A4dWoyTjJ4YWEyc210b3pCRzVMdVN5eGxBVHZia0g1ajFQaFg3TkhIN1puN1dhamhmdDNodzQ5enB6NW9BK3FxS0tLQVB5Si9hKy93Q1R0dmkxL3dCaERULy9BRXoyRmVUMTZ4KzE5L3lkdDhXdit3aHAvd0Q2WjdDdko2OTZoL0RpZVRWK05tSjRnLzVDM2huL0FMQ0Qvd0RwSmNWdDFpZUlQK1F0NFovN0NELytrbHhXM1dxM1pEMlFWK24vQVB3VHgvNU5KOEovOWhEVy93RDA4WHRmbUJYNmYvOEFCUEgvQUpOSjhKLzloRFcvL1R4ZTF3NHo0VWRXRzNaOUgxNVY4WlArU2kvQW4vc2M3bi8xSHRacjFXdkt2akoveVVYNEUvOEFZNTNQL3FQYXpYbEhlZXEwVVVVQWZtUkYvd0FqSDQ1LzdIUHhKLzZlYnlyTlZvditSajhjL3dEWTUrSlAvVHplVlpyOWR3UCs2MHY4TWZ5UitVNDMvZXF2K0ovbXhQRDMvSlp2aFQvMkhMci9BTk0rbzE5YzE4amVIdjhBa3Mzd3AvN0RsMS82WjlScjY1cjhsNHQvNUdQL0FHNnYxUHBzcy8zWmZNSzB2MlN2K1NPemY5alY0by85UCtvVm0xcGZzbGY4a2RtLzdHcnhSLzZmOVFyd2N2OEFpa2ZRNGJkbnNsRkZGZTJkNFY4dWZET0pZLzhBZ29YOGFXVWN5ZUZORFp2cm1VZnlBcjZqcjVmK0czL0tRajR5L3dEWXA2SC9BT2hUVUFmVUZGRkZBQlJSUlFCOCsvR2I5dXI0VGZzK2ZGU1B3TDhRZFUxRHc5ZXk2VEhxOFdwSFQ1TG0wa1I1WGpXSWVRSGtFbVkzYm1NTGdmZXlRSzVmL2g2UCt6Ri8wVTMvQU1vR3FmOEF5TlJwMy9LVUhWLyt5VFEvK25ZMTlWVUFmS3YvQUE5SC9aaS82S2IvQU9VRFZQOEE1R28vNGVqL0FMTVgvUlRmL0tCcW4veU5YMVZSUUI4ci9zMS90S2VDMitHZDNjVzF0NHcxT3p2ZkZIaVMrdHJ6Uy9BK3QzdHZORFBybDlORTZTdzJiSTJVa1hJQnlweXJBTXBBOVQvNGFXOEkvd0RRSStJSC9odVBFUDhBOGcwZnMwLzhrNjFmL3NjL0ZuL3FRNmpYcXRBSHkvOEF0Ti90QitGOWEvWnQrSytuMitsZU9JN2k3OEphdGJ4dmQrQWRkdG9WWnJPVlFYbGtzbFNOY25sM1lLb3lTUUFUWHBmL0FBMHQ0Ui82Qkh4QS93RERjZUlmL2tHajlySC9BSk5ZK01uL0FHSm1zLzhBcEROWHF0QUhsWC9EUzNoSC9vRWZFRC93M0hpSC93Q1FhODAwRDlvUHd2RiswbDQ2MUJ0SzhjRzNuOEplSHJkRVh3RHJyVEJvN3pXbVl0RUxMZWlrU3J0ZGxDc1E0VWtvNFg2Z3J5cnc1L3lkUDhRLyt4TThOZjhBcGRydEFCL3cwdDRSL3dDZ1I4UVAvRGNlSWY4QTVCby80YVc4SS84QVFJK0lIL2h1UEVQL0FNZzE2clJRQjh2L0FMTW43UWZoZlJmMmJmaFJwOXhwWGppUzR0UENXazI4ajJuZ0hYYm1GbVd6aVVsSlk3SmtrWEk0ZEdLc01FRWdnMTZYL3dBTkxlRWYrZ1I4UVA4QXczSGlILzVCby9aTy93Q1RXUGczL3dCaVpvMy9BS1F3MTZyUUI4di9BQlkvYUQ4TDMvano0TVR4YVY0NFZMTHhiY1hFb204QTY3RXpLZEMxYVBFYXZaQXl0dWtVN0VETUZEdmphak1QUy84QWhwYndqLzBDUGlCLzRianhELzhBSU5IeGsvNUtMOENmK3h6dWYvVWUxbXZWYUFQS3YrR2x2Q1AvQUVDUGlCLzRianhEL3dESU5lYWZzeWZ0QitGOUYvWnQrRkduM0dsZU9KTGkwOEphVGJ5UGFlQWRkdVlXWmJPSlNVbGpzbVNSY2poMFlxd3dRU0NEWDFCWGxYN0ozL0pySHdiL0FPeE0wYi8waGhvQVArR2x2Q1AvQUVDUGlCLzRianhEL3dESU5WUDJVOVRoMXI0UzNlb1c2WEVkdmQrTGZGTnhHbDNiU1cweXEzaURVR0FlS1JWZU5zSGxIVU1weUNBUVJYc0ZlVmZzMC84QUpPdFgvd0N4ejhXZitwRHFOQUhxdEZGRkFCUlJSUUFVVVVVQUZGRkZBQlJSUlFBVnhYZ0NidzdMNHIrSlM2TEJjUTZsSDRnaFRYSG1KS3kzdjlsYWVVYVBrL0w5bU5vdkFIeksvSGM5clhGZUFOZTB6Vi9GZnhLdExEU0k5TnV0SzhRUTJlb1hLRVoxQ2M2VnA4NG5iQUhJaW1oaDV5Y1FEbkdBQUR0YUtLS0FDaWlpZ0Fvb29vQUtLS0tBQ2lpaWdBb29vb0FLS0tLQVBsYi9BSUtOdUlQZ240V3VOb1o0UEcraHlKbnBrWEkveE5mVk5mSzMvQlNaakgremxheXFCNWtYaW5SWFJpQWRyQzhUa1Y5VTBBRkZGRkFCUlJSUUFVVVVVQVZkVTB1eTF6VEx2VHRTdElOUTArN2llM3ViUzZpV1dLYU5nVlpIUmdReWtFZ2dqQkJyRjhFZkRYd2g4TTdLNHMvQi9oWFJQQ2xuY1NlZE5iNkpwME5uSEsrQU56TEVxZ25BQXllY0N1a29vMkRjS0tLS0FDaWlpZ0Fvb29vQUtLS0tBQ2lpaWdBb29vb0FLS0tLQUNpaWlnRGl2Z2g0a3NmR1h3WDhBNi9wbWkyL2h2VGRWOFA2ZmZXdWkybTN5YkNLVzJqZExkTnFxTnNhc0VHRlVZVVlBNlY4dmZDTDR0K0J2aGgrMmorMU92akx4cDRlOEpOZTNuaDQycTY3cXNGa1p3bW5IZnM4MTEzYmR5NXhuRzRaNjE5Vi9DZlg5YzhWL0N6d2JyZmlmVGY3RzhTYWxvdGxlNnBwM2tQQjlsdXBJRWVhTHk1Q1hUYTdNdTFpV0dNRTVGYzNyZjdNSHdqOFVlTE5ZOFQ2NzhOdkRIaURYOVhhSnJ5KzFuUzRyMlNReG9JMHg1eXNFd29BK1VET0JuT0JRQkQvQU1OWS9CRC9BS0xKOFA4QS93QUtpeC8rTzBmOE5ZL0JEL29zbncvL0FQQ29zZjhBNDdSL3d5ZDhFUDhBb2pmdy93RC9BQWw3SC80MVIvd3lkOEVQK2lOL0QvOEE4SmV4L3dEalZBSDVlL3RYL0VYd3BxbjdVbnhOMUd5OFQ2TmQ2ZmUzZW5UMnQzQnFFVHhUeG5TTEVCMGNOaGx5Q01na2NHdkxmK0U1OE4vOURCcFgvZ2JIL3dERlY3SCswOTRlMHJ3biswNzhUOUkwUFRMUFJ0SnRMM1Q0N2F3MCszU0NDRlA3SHNQbFNOQUZVZXdGZWIxN2xHL3M0bmwxYmM3T00xenhsb0UycCtIbmoxelRYV0srWjVHVzdqSVJmczA2NVBQQXl3R2ZVajFyWS80VG53My9BTkRCcFgvZ2JILzhWUjRnL3dDUXQ0Wi83Q0QvQVBwSmNWdDFxdWE3MUlkckl4UCtFNThOL3dEUXdhVi80R3gvL0ZWK2kvN0NmN1Jud244SWZzd2VHTksxMzRuK0RkRjFTRysxaDVMTFVmRUZwYnpvcjZyZHVoWkhrREFNakt3SkhJWUVjRVY4QjErbi93RHdUeC81Tko4Si93RFlRMXYvQU5QRjdYRmk3OHF1ZE9IdGQyTzYvd0NHc2ZnaC93QkZrK0gvQVA0VkZqLzhkcnpUNHNmdE4vQjdVZkhud1l1TFQ0citCN3Ezc1BGdHhjM2tzUGlPemRiYUk2RnEwUWtrSWt3aW1TV05OeHdOMGlEcXdCK29LOHErTW4vSlJmZ1Qvd0JqbmMvK285ck5lV2R3ZjhOWS9CRC9BS0xKOFA4QS93QUtpeC8rTzBmOE5ZL0JEL29zbncvL0FQQ29zZjhBNDdYcXRGQUg1TlJmR0R3R05mOEFHVWg4YmVIQkhQNHQxKzVoZisxb01TUlNhdGRTUnlLZC9Lc2pLeXNPQ0dCSEJxeC93dVB3RC8wUEhodi9BTUcxdi84QUYxMDBYL0l4K09mK3h6OFNmK25tOHF6WDZ4Z2xWK3EwclNYd3JwNUx6UHk3R09uOVpxM1QrSjlmUDBPUDBMNHhlQVlmaXo4TTd5VHh2NGNTMHROWnVaYmk0YlZyY1J3b2RLdjBETzIvQ2d1NkxrOTJVZFNLK292K0drdmhILzBWUHdWLzRVTnAvd0RISzhNOFBmOEFKWnZoVC8ySExyLzB6NmpYMXpYNVZ4VnBtSHY2dmxXMm5mMVBwTXRjZnE2c3UvWC9BSUI1ei93MGw4SS8raXArQ3Y4QXdvYlQvd0NPVjZmK3h4cVZuclB3TWoxRFQ3cUMrc0x2eEw0bG50N3Eya0VrVTBiYTlmc3JveWtobElJSUlPQ0RWYXRMOWtyL0FKSTdOLzJOWGlqL0FOUCtvVjRlQXR6U3NlL2g3WGRqMlNpaWl2Wk80SytXL2h4TXEvOEFCUkQ0eFFuTzkvQ0dpdVBUQWVRSC93QkNGZlVsZktudzcvNVNQZkYzL3NUTkkvOEFSalVBZlZkRkZGQUJSUlJRQjhyZUgyTC9BUEJUVHhadUpPejRZMmlybnNQN1FKd1B4cjZwcjVWOE8vOEFLVFh4ZC8yVE96LzlPQnI2cW9BS0tLS0FQS3YyYWY4QWtuV3Ivd0RZNStMUC9VaDFHdlZhL01xQzF2NVBFZmpob2ZGUGkvVFlqNHo4U1l0ZEw4V2FuWlc2ZjhUbTh6c2hodUVqWEo1TzFSa2trOGtrMnZzZXFmOEFRNytQL3dEd3V0YS8rU3E3bzRPcEtLa210VGxlSWhGdE5IMnQrMWovQU1tc2ZHVC9BTEV6V2Y4QTBobXIxV3Z5bCtNZHBxSy9DSHh3eitNUEc5MUdOQ3ZpWWJ2eG5xMDhNZyt6djhyeHZjbEpGSTRLc0NwR1FRUVRYWC9ZdFU1LzRyZngvd0QrRjFyUC93QWxVL3FWUzlycit2a0gxbUZyMlorbGRlVmVIUDhBazZmNGgvOEFZbWVHdi9TN1hhK0tmc2VwNC81SGZ4Ly9BT0YxclA4QThsVnlHbVdtb240dStKZ1BHSGpkWEdoNlZtZGZHZXJMTTQrMGFqaFdrRnp2WlFRU3Fra0tYY3FBWGJJOEZVWFZCOVpnK2pQMWFvcjgxUHNlcDlmK0UzOGY0OWYrRTYxbi93Q1NxUHNlcWQvRy9qOGY5ejFyUC95VlQrbzFPNi9yNUMrc3c3TSsxdjJUditUV1BnMy9BTmlabzMvcEREWHF0ZmxKOEhMVFVXK0VYZ2NwNHc4YjJxSFFyRXJCYWVNOVdnaGpIMmRNS2thWElTTlIwQ3FBb0FBQUE0cnNQc2VwNS81SGY0Z2YrRjFyUC95VlNXQ3FOWHV2NitRM2lZSjJzejdXK01uL0FDVVg0RS85am5jLytvOXJOZXExK1V2amkwMUVlSi9oNkc4WWVONVdPdVNoV204WjZ0SThSL3N5KythTm11U1kyd0N1OU1FcXpybmF6QTlmOWoxTTlQRy9qOC85ejFyUC93QWxVTEJWSDFRZldZZG1mcFhYbFg3SjMvSnJId2IvQU94TTBiLzBoaHI0cEZucVovNW5meC9qL3NldFovOEFrcXVQK0RscHFMZkNMd09VOFllTjdWRG9WaVZndFBHZXJRUXhqN09tRlNOTGtKR282QlZBVUFBQUFjVWZVcWw3WFg5ZklQck1ON00vVnV2S3YyYWYrU2Rhdi8yT2Zpei9BTlNIVWErS1RaNm1QK1ozOGY4QXIveVBXczlQL0FxdnJIOWh4V1g5bkhTMWVlNHVuR3UrSVEwOTNPODgwaC90dSt5enlPUzdzZXBaaVdKeVNTVFdOWER5b3BPUnBUcXhxT3lQZXFLS0s1allLS0tLQUNpaWlnQW9vb29BS0tLS0FDdVM4RmVJTlIxbnhMNC9zNzdTMTArMjBuVzRyS3h1RmlaRGZRblRiS2N6RW5oeUpaNW90eThmdVFPcW11dHJsUEJ0eDRrbThSK08wMTJQeTlMaTFxTk5CYmFnMzJQOW5XYk9mbDVQK2xOZURMYzhZKzZGb0E2dWlpaWdBb29vb0FLS0tLQUNpaWlnQW9vb29BS0tLS0FDaWlpZ0Q4NmYrQ3hQaWI0a2VFdmgzNGRrMGVlMWwrSFdwWGNNR3BRdGFocHJhL2hrOCszY1NkUWpoQ01kQVk4WitjVjloL3N4YXA0OTEvNEhlRmRaK0prMEVuakRWYlVYOTFEYld3dDB0a2srYUtJb09qS2hYZG5uY1dIYXV5OGUvRC93OThUL0FBeFA0ZThVYVhCckdqVHlReXkybHdNb3pSU0xJaFAwWkZOZERRQVVVVVVBRkZGRkFCUlJSUUFVVVVVQUZGRkZBQlJSUlFBVVVVVUFGRkZGQUJSUlJRQVVVVVVBRkZGRkFCUlJSUUJ5bnduL0FPRW4vd0NGV2VEZitFMi81SFAreGJMKzNQOEFWZjhBSC81Q2ZhUDlWKzcvQU5idis1OHY5M2pGZFhYSi9DVFFkZDhMZkNud1hvdmlqVURxM2lYVHRGc3JQVk5RTTd6bTV1NDRFU2FYekhBWjl6aG0zTU1uT1R5YTZ5Z0Fvb29vQS9JbjlyNy9BSk8yK0xYL0FHRU5QLzhBVFBZVjVQWHJIN1gzL0oyM3hhLzdDR24vQVBwbnNLOG5yM3FIOE9KNU5YNDJZbmlEL2tMZUdmOEFzSVAvQU9rbHhXM1dKNGcvNUMzaG4vc0lQLzZTWEZiZGFyZGtQWkJYNmY4QS9CUEgvazBud24vMkVOYi9BUFR4ZTErWUZmcC8vd0FFOGY4QWswbnduLzJFTmIvOVBGN1hEalBoUjFZYmRuMGZYbFh4ay81S0w4Q2YreHp1Zi9VZTFtdlZhOHErTW4vSlJmZ1Qvd0JqbmMvK285ck5lVWQ1NnJSUlJRQitaRVgvQUNNZmpuL3NjL0VuL3A1dktzMVdpLzVHUHh6L0FOam40ay85UE41Vm12MTNBLzdyUy93eC9KSDVUamY5NnEvNG4rYkU4UGY4bG0rRlAvWWN1djhBMHo2algxelh5TjRlL3dDU3pmQ24vc09YWC9wbjFHdnJtdnlYaTMva1kvOEFicS9VK215ei9kbDh3clMvWksvNUk3Ti8yTlhpai8wLzZoV2JXbCt5Vi95UjJiL3NhdkZIL3AvMUN2Qnkvd0NLUjlEaHQyZXlVVVVWN1ozaFh5cDhPLzhBbEk5OFhmOEFzVE5JL3dEUmpWOVYxOHFmRHY4QTVTUGZGMy9zVE5JLzlHTlFCOVYwVVVVQUZGRkZBSHl0NGNSai93QUZNdkY3YlR0SHd6c3dXeHdDZFFiSDhqK1ZmVk5mSy9nNlJuLzRLVC9FTU1TUW53KzA1VkhvUHRiSCtaTmZWRkFCUlJSUUIrYWxuL3lIZkhIcC93QUpuNGsvOVBONVYzL1ArZjhBUGFxVm4veUhmSEhiL2lzL0VuL3A1dkt1bm5qM3I2YWovRGo2SThXcDhiOVRqdmpQL3dBa2Y4ZC85Z0svNmY4QVh2SlhZbi9QclhIZkdZNStEL2pyL3NBMzNmOEE2ZHBLN0kvNTYxUytKLzEzRjlsQWV2MS9DdU4wcy84QUY0UEUvd0QyQWRKLzlLTlNyc2VuOHE0L1MvOEFrc0hpZm9QK0pGcFB0L3k4YWpSTGRmMTBCYk03SG5QdlFQVWRLUURQYi9QL0FOYWw3K25TckpPTitER2YrRlBlQmNmOUFHeDZmOWU4ZGRsLytvY1Z4dndaL3dDU1ArQmVtZjdCc08vL0FFN3BYWlk5QjJ4MDdWRVBoUTViczQzeDEveU0vd0FPL3dEc095OWMvd0RRTHY4QXZYWkUrL3IxL25YRytPai9BTVZSOE96L0FOUjJVK3YvQURDNyt1eTZkS0Z1L3dDdWlCN0lCMS9JVnh2d1lQOEF4Wjd3THovekFiSHAvd0JlOGRkaUQwNS9YMzRyanZnei93QWtmOEMrdjlnMkgvcFBILzhBV29meEwrdXdkRHNlbkE0OWhYMUwrdy8vQU1tNjZiLzJIdkVYL3A4dnErV3VNZTM2VjlTL3NQOEEvSnV1bS84QVllOFJmK255K3J6OGQ4TVRyd3Z4TTlGK012eFBzdmd6OE10ZjhaWDlwTnFFT21RcXlXVnVRc2x6TTdySERFcFBBTHlPaTVQQTNaN1Y1M0I4VS9IMmhmdEplQy9oN3I4dmh1NzB6WHZETjVxMXdkTnNMaUthMnVyZG9WWlVsZTRZUEdUS2NaalZzS1BYanRQMmd2aFcvd0Fhdmc5NGo4SHdYY2RoZTMwY1V0bmN6THVqaXVvSmtuZ1p3T1NnbGlqM0FjNHpqbXVZMTc0SStLdkUzeCs4Si9FMlh4UHBHbVcrajZSTnBNdWdSYVZOTzdSM0JqYTQyM291WS9tRFJEWS9rREF6bFNUeDQ1NkoxbnhkK1BIZ2Y0RTZkWjMzalhXSk5MZ3UvT01JdDdDNXZaR1dLTXlUU0dPM2prY0lpRGN6a0JWR01rWkZZZjdRL3dBWHRTK0dudzcwYlZ2QzQwNjd2OWQxclROR3NyNitWcDdHM0YzT2lDNGtXTjBNaUJXT0FycnVabEc0WnJoUGp2OEFzWmY4TFo4RVcvaEhSdkhlc2FKNGZmN2Erb1dmaUc0dmZFZ3ZKWnJjUlFTYnJ1N0xvWUdIbW9vWW9IK1lLSEFjZXl3ZkRxMXZQaFRZK0MvRU1HaytKb290TGdzTGxkUjB3UzJOMUpIR29EdmF1N2ZKdlFONVpja2NEZGticUFQRFBCWDdiMmllSkkvaGJQckZ6WStHSWZFV2syOTVxeTNGdmNYSGwzbHlrSGtXc1R4L0xFb054RkpKUE44aUpOYXFSbTVWazB2aVArMUpyUHcvOEovRkMxLzRSNTlYOGJlRUx5M3M0WTlLZ2psZ3VGdllpK25UK1JOY3d2SUhjaTNhQ0tSNVRLRDVhc0dCRlh4NSt3NXBIalRTZkIxbkg0amswNTlNam10dGJuV3hEdHJFRTkxYTNWeUZBZFJidTBsb2dSaHZXT05pZ1FoVTJlcGZEejRYWGZobjRxZkUzeHhxVTFzMTM0cnVMR0czdDdWaXdoc3JPQXh3NzJLcVRJenlUdVFPRkRxb0xZTEVBOFh2djIzRThQOEF4RThGVDYvYnJvL3cyOFErRGJyeEhKTU5MazFDL3RYaG5SQk04bW56M1VJdG5pZnpNZ0VJTWI1QVNWVzlxLzdZVnhvUDdURjE0UnZvZExoK0h0dEdZWk5VQ1NQY2h4cFg5cC9iUklybEd0ekgrNENDTXNaTUVPYzdLNnI0L3dEN0wxeDhhdkV6NjFaZUxGOE96M1BodTg4SlhpU2FaOXJENmZlSC9TdkwvZXg3SmlGakNTSGNxWWZLUHVHM3A5Uy9aNDhNWC9pRHdWZml3MDVJL0RsckZhUEpKcDBiMzE5RmI3R3M0Wkx2NzRnaWxVVG1MQkRTcEUyVkNNcmdFUDdQM3gzMDc0MDZWcW1MNjFHdjJNN05lYVBCYlN4UHA4VFN5SkhFN3VTazdvME1zVHpRa3hHV0tWVkoyRTE2elhobjdQMzdMZG44QnZGUGlQVjR0ZWsxbGIrTDdEcDhEMnZrbXlzdnR0M2VDSjIzdDV6K1pleUR6TUo4cUlOdWR6TjduUUFWeW5nM1NOZjAzeEg0N3VOWXZmdFduYWhyVWR6b3NYbWwvczFtTk9zNG1qd1I4bWJtSzZmYU1qOTV1NnNRT3JyalBBbmh4TkU4VS9FYThUV0lkVGJXTmVpdm50WWpsdE9LNlhZVy9rUHljTVJBSnVnNG5YanVRRHM2S0tLQUNpaWlnQW9vb29BS0tLS0FDcVd0WHNtbmFUZFhNUVZwSW95eWgrbWZlcnRaZmlmL0FKRisvd0QrdVJyT3Eyb1NhN01pYmFpMmprUCtGZ2FpU1FEWm5Cd2NRTi84Y28vNFQvVXYrblQvQUw4Ti93REhLOCs4S096NmZkRmlXUDIyY2MvNzliTmZBUE1NV25iMmovQStTZU14Q2R1YzZqL2hQOVMvNmRQKy9EZi9BQnlqL2hQOVMvNmRQKy9EZi9ISzVlaWwvYU9ML3dDZmovQVgxekVmem5VZjhKL3FYL1RwL3dCK0cvOEFqbEgvQUFuK3BmOEFUcC8zNGIvNDVYTDBVZjJqaS84QW40L3dENjVpUDV6cVArRS8xTC9wMC83OE4vOEFIS1ArRS8xTC9wMC83OE4vOGNybDZLUDdSeGYvQUQ4ZjRCOWN4SDg1MUgvQ2Y2bC8wNmY5K0cvK09VZjhKL3FYL1RwLzM0Yi9BT09WeTlGSDlvNHYvbjQvd0Q2NWlQNXoxclFOUWwxVFNZYm1ZSUpXTEJ2TEJDOE1Sd0NUNlZvMWkrRC9BUGtYcmIvZWsvOEFSalZ0Vjk5UmJsU2pKN3RJK3RwdHVFVyt3VVVVVnNhQlJSUlFBVVVVVUFGRkZGQUJSUlJRQVVVVVVBZVArSlBFbnhGMS93Q05HdWVFUENHdWVGL0QrbTZQNGYwdlZaSmRiOFAzT3B6VHkzZHpxTVJVR08rdGdpcXRpaHhoaVM1NUdBS3Qvd0RDT2ZHLy9vb2Z3LzhBL0NEdnYvbHpSNGMvNU9uK0lmOEEySm5oci8wdTEydlZhQVBLditFYytOLy9BRVVQNGY4QS9oQjMzL3k1cTE4R1BGdmlyWDc3NGdhTjR2dk5IMUhVdkRIaUJOS2p2dEUwNld3aG5pZlRiRzhER0dTNG5JWU5lT3VmTUlJUUhBNXIwdXZLdmczL0FNbEYrTzMvQUdPZHQvNmoyalVBZXEwVVVVQWNYOEUvRGx0NE8rRFBnTFFMUFdZUEVkcHBXZ1dGakRyRnFRWXI5SXJlTkZuVERNTnJoUTR3ekRERGs5YTdTdUsrQ0Zob0dsZkJmd0RaZUZOUW0xYnd0YmVIOVBoMG5VTGhkc2wxWnJiUmlDVnh0WEROR0ZZamF2SjZEcFhhMEFGRkZGQUg0OGZ0bjY5YmFYKzE3OFdJcG9yMTJOOXA3QTIxalBPdVA3SXNCOTVFWUE4ZE01L092SGYrRXdzUCtmZlZmL0JSZC84QXhxdmMvd0JyNy9rN2I0dGY5aERUL3dEMHoyRmVUMTdsRy9zNG5sMWJjN09NMXp4VlpTNm40ZVlRYWtCSGZNemJ0THVWSkgyYWNjQXgvTWNrY0RKeGs5QVRXeC93bUZoL3o3NnIvd0NDaTcvK05VZUlQK1F0NFovN0NELytrbHhXM1dxNXJ2VWgyc2pFL3dDRXdzUCtmZlZmL0JSZC93RHhxdjBYL1lUK08vaHZ3djhBc3dlR05Odk5NOFpUWEVWOXJETStuZUI5YXZZQ0gxVzdjYlpvTFI0Mk9HQUlERXFjcWNNQ0I4QjErbi8vQUFUeC93Q1RTZkNmL1lRMXYvMDhYdGNXTHZ5cTUwNGUxM1k3ci9ocGJ3ai9BTkFqNGdmK0c0OFEvd0R5RFhtbnhZL2FEOEwzL2p6NE1UeGFWNDRWTEx4YmNYRW9tOEE2N0V6S2RDMWFQRWF2WkF5dHVrVTdFRE1GRHZqYWpNUHFDdkt2akoveVVYNEUvd0RZNTNQL0FLajJzMTVaM0IvdzB0NFIvd0NnUjhRUC9EY2VJZjhBNUJvLzRhVzhJLzhBUUkrSUgvaHVQRVAvQU1nMTZyUlFCK1RVWHhSMFlhLzR5ZjdGNGoyemVMZGZ1RkgvQUFqT3BaQ3lhdGRPb1lmWjhxd0RBTWpZWlRsV0FZRUN4L3d0VFJmK2ZMeEovd0NFeHFmL0FNajEwMFgvQUNNZmpuL3NjL0VuL3A1dktzMStzWUpWZnF0SzBsOEs2ZVM4ejh1eGpwL1dhdDAvaWZYejlEajlDK0tlaXhmRm40WjNSc3ZFWml0ZFp1WkpGWHd4cVRTRUhTcjlCc1FXKzV6bHdkcWdrQU14RzFXSStvditGK2VHZitnWjQxLzhJVFhQL2tPdkRQRDMvSlp2aFQvMkhMci9BTk0rbzE5YzErVmNWYVpoNytyNVZ0cDM5VDZUTFhINnVyTHYxLzRCNXovd3Z6d3ovd0JBenhyL0FPRUpybi95SFhwLzdIR29SYXQ4REk3NkJaMGh1ZkV2aVdaRnVZSGdsQ3RyMStRSGprQ3VqWVBLc0F3UEJBSXhWYXRMOWtyL0FKSTdOLzJOWGlqL0FOUCtvVjRlQXR6U3NlL2g3WGRqMlNpaWl2Wk80SytWUGgzL0FNcEh2aTcvQU5pWnBIL294cStxNitWUGgzL3lrZStMdi9ZbWFSLzZNYWdENnJvb29vQUtLS0tBUGxYd1oveWtvK0kzL1pQOU8vOEFTcHErcXErV1BCY1ROL3dVaitKRW8rNHZnSFRGUDFOeStQNUd2cWVnQW9vb29BL0srNytIMmw2NTR2OEFIbDdjM1d0eHpTK00vRWU1YlBYNysyaUdOWXUxK1dLS1pVWGdET0FNa2tua2tsMy9BQXFuUlA4QW45OFMvd0RoVTZwLzhrVjBkbi95SGZISHAvd21maVQvQU5QTjVWMy9BRC9uL1Bhdm82VUl1bkhUb2p4NmtuenZYcWVTZkZyNGFhUFlmQ3J4bmRSWG5pQnBJZEZ2WkVFM2lYVVpZeVJBNUFaSG5LdU9PVllFSG9RUlhWZjhLbzBRRS82YjRrNDlQRk9xZi9KRkh4bi9BT1NQK08vK3dGZjlQK3ZlU3V4UCtmV3JVSTh6MC9yVW5tZHR6anYrRlVhSnR4OXQ4U1k2ZjhqVnFtUC9BRW9ybGROK0dta1A4VlBFVnQ5czhRZVhIb3VtU0t3OFM2aUhKYWUvQkJjVDdtSHlEQ2trTGxpQUN6WjljUFg2L2hYRzZXZitMd2VKL3dEc0E2VC9BT2xHcFVTaEc2MC9xd0tUczlRLzRWVG9aNSsyK0pjZXYvQ1U2cC84a1VvK0ZHaUFBZmJmRW8vN21uVlAva2l1eDV6NzBEMUhTcTVJOWhjejdua1h3bCtHbWtYM3dxOEdYTXQ1NGdXV2ZSYktSbGg4UzZqRWdMUUljS2lUaFVHYzRDZ0FkQUs2di9oVkdoNUgrbStKZmIvaXFkVTZmK0JGSHdZei93QUtlOEM0L3dDZ0RZOVArdmVPdXkvL0FGRGlwaENQS3RCeWs3dlU4ajhaL0RUU0xmeEg0RGpTODhRRVQ2MUpHL21lSmRSZGdQN092VytVdE9TaHlnK1pjSEc0Wnd4QjZvZkNqUkQwdmZFbnIveU5XcWYvQUNSUjQ2LzVHZjRkL3dEWWRsNjUvd0NnWGY4QWV1eUo5L1hyL09oUWpkNmYxWUhKMldweHcrRk9pSC9sKzhTNC93Q3hxMVQvQU9TSzVQNFMvRFRTTDc0VmVETG1XODhRTExQb3RsSXl3K0pkUmlRRm9FT0ZSSndxRE9jQlFBT2dGZXVqcitRcmpmZ3dmK0xQZUJlZitZRFk5UDhBcjNqb2NJOHkwL3JRT1oyM0EvQ25STTUrMitKZW1mOEFrYXRVNmY4QWdSWDBoK3o3NG84Y2ZEZjlqL3czTDhPZmgzTDhVTlZYeFBydG8rbFRlSVl0T2VLMkdyNmlUTzF6Yzd2TUlaSTFJSkxONW03UEJyeURwd09QWVY5Uy9zUC9BUEp1dW0vOWg3eEYvd0NueStyZ3hzVW9xeU9yRE50dTV4My9BQTBQKzA3L0FOR2pmK1pLMHY4QStOMGY4TkQvQUxUdi9SbzMvbVN0TC84QWpkZlZWRmVRZWdmS3YvRFEvd0MwNy8wYU4vNWtyUy8vQUkzVlR3OSsyQjhXSXZqaDRCK0hIam45bnovaENaL0dEM0p0YjMvaE5iVFVOa052SDVrOG15S0xCMktWTzBzcE9lTTE5YTE4cmZIVlMzN2Uvd0N5K1FDUXRqNG9MWUhRZllveGsvalFCOVUwVVVVQUZGRkZBQlJSUlFBVnhYZ0RUZENzZkZmeEtuMG5VcEw2L3ZmRUVNK3NRT01DenV4cFdueHJFdkF5RGJ4MjBuVTh5bm5zTzFyaXZBRTNoMlh4WDhTbDBXQzRoMUtQeEJDbXVQTVNWbHZmN0swOG8wZkorWDdNYlJlQVBtVitPNUFPMW9vb29BS0tLS0FDaWlpZ0Fvb29vQUt5L0UzL0FDQUwvd0Q2NUd0U3N2eE4vd0FnQy84QSt1UnJLdC9EbDZNenFmQS9ROE84SjhhZmQvOEFYOWNmK2gxdFZpK0Uvd0Rqd3UvK3Y2NC85RHJhcjh3bHV6NGVXNFVVVVVoQlJSUlFBVVVVVUFGRkZGQUhxUGcvL2tYcmIvZWsvd0RSalZ0VmkrRC9BUGtYcmIvZWsvOEFSalZ0VituWWYrREQwWDVIM0ZMK0hIMFFVVVVWdWFoUlJSUUFVVVVVQUZGRkZBQlJSUlFBVVVVVUFlVmVIUDhBazZmNGgvOEFZbWVHdi9TN1hhOVZyeXJ3NS95ZFA4US8reE04TmY4QXBkcnRlcTBBRmVWZkJ2OEE1S0w4ZHY4QXNjN2Ivd0JSN1JxOVZyeXI0Ti84bEYrTzMvWTUyMy9xUGFOUUI2clJSUlFCeFh3UXVmRHQ3OEYvQU54NFF0TGl3OEp6ZUg5UGswZTB1eVRORFpHMmpNQ09TekVzc2V3SDVtNUI1UFd1MXJpdmdoNGgwL3hiOEYvQU91NlJvMFBoM1N0VDhQNmZlMmVqMjVCanNZWkxhTjQ0RTJxbzJvckJCaFFNTDBIU3Uxb0FLS0tLQVB5Si9hKy81TzIrTFgvWVEwLy9BTk05aFhrOWVzZnRmZjhBSjIzeGEvN0NHbi8rbWV3cnlldmVvZnc0bmsxZmpaaWVJUDhBa0xlR2Yrd2cvd0Q2U1hGYmRZbmlEL2tMZUdmK3dnLy9BS1NYRmJkYXJka1BaQlg2Zi84QUJQSC9BSk5KOEovOWhEVy8vVHhlMStZRmZwLy9BTUU4ZitUU2ZDZi9BR0VOYi84QVR4ZTF3NHo0VWRXRzNaOUgxNVY4WlA4QWtvdndKLzdITzUvOVI3V2E5VnJ5cjR5ZjhsRitCUDhBMk9kei93Q285ck5lVWQ1NnJSUlJRQitaRVgvSXgrT2YreHo4U2Y4QXA1dktzMVdpL3dDUmo4Yy85am40ay84QVR6ZVZacjlkd1A4QXV0TC9BQXgvSkg1VGpmOEFlcXYrSi9teFBEMy9BQ1diNFUvOWh5Ni85TStvMTljMThqZUh2K1N6ZkNuL0FMRGwxLzZaOVJyNjVyOGw0dC81R1A4QTI2djFQcHNzL3dCMlh6Q3RMOWtyL2tqczMvWTFlS1AvQUUvNmhXYldsK3lWL3dBa2RtLzdHcnhSL3dDbi9VSzhITC9pa2ZRNGJkbnNsRkZGZTJkNFY4cWZEdjhBNVNQZkYzL3NUTkkvOUdOWDFYWHl0OFBvbWovNEtPZkZsbUdBL2dyU0dVK284MXgvTUdnRDZwb29vb0FLS0tLQVBsYjRmU3RKL3dBRkhQaXlySElUd1ZwQ3FQUWVhNS9tVFgxVFh5cDhPLzhBbEk5OFhmOEFzVE5JL3dEUmpWOVYwQUZGRkZBSDVxV2YvSWQ4Y2R2K0t6OFNmK25tOHE2ZWVQZXVOdS9oOXBldWVML0hsN2MzV3R4elMrTS9FZTViUFg3KzJpR05ZdTErV0tLWlVYZ0RPQU1ra25ra2wzL0NxZEUvNS9mRXYvaFU2cC84a1Y5SFM1dlp4MDZJOGVwYm5mcUo4WmpuNFA4QWpyL3NBMzNmL3Aya3Jzai9BSjYxNUg4V3ZocG85aDhLdkdkMUZlZUlHa2gwVzlrUVRlSmRSbGpKRURrQmtlY3E0NDVWZ1FlaEJGZFYvd0FLbzBRRS93Q20rSk9QVHhUcW4veVJWcm01bnAvV3ZrVHBZN0hwL0t1UDB2OEE1TEI0bjZEL0FJa1drKzMvQUM4YWpTZjhLbzBUYmo3YjRreDAvd0NScTFUSC9wUlhLNmI4Tk5JZjRxZUlyYjdaNGc4dVBSZE1rVmg0bDFFT1MwOStDQzRuM01Qa0dGSklYTEVBRm15UG11dFA2dDZBcldaNjJCbnQvbi82MUwzOU9sY2Ivd0FLcDBNOC9iZkV1UFgvQUlTblZQOEE1SXBSOEtORUFBKzIrSlIvM05PcWYvSkZWNzNiK3Z1Rm9KOEdmK1NQK0JlbWY3QnNPLzhBMDdwWFpZOUIyeDA3VjVGOEpmaHBwRjk4S3ZCbHpMZWVJRmxuMFd5a1pZZkV1b3hJQzBDSENvazRWQm5PQW9BSFFDdXIvd0NGVWFIa2Y2YjRsOXYrS3AxVHAvNEVWTU9ibFduOWZjT1Zyc1BIUi80cWo0ZG4vcU95bjEvNWhkL1haZE9sZVIrTS9ocHBGdjRqOEJ4cGVlSUNKOWFramZ6UEV1b3V3SDluWHJmS1duSlE1UWZNdURqY000WWc5VVBoUm9oNlh2aVQxLzVHclZQL0FKSW9UbGQ2ZjFiMEIyc2pzUWVuUDYrL0ZjZDhHZjhBa2ovZ1gxL3NHdy85SjQvL0FLMUtQaFRvaC81ZnZFdVAreHExVC81SXJrL2hMOE5OSXZ2aFY0TXVaYnp4QXNzK2kyVWpMRDRsMUdKQVdnUTRWRW5Db001d0ZBQTZBVVBtNWxwL1dua0dsajF6akh0K2xmVXY3RC8vQUNicnB2OEEySHZFWC9wOHZxK0tUOEtkRXpuN2I0bDZaLzVHclZPbi9nUlgyaCt3bmFKWWZzMDZOYXhOSzBjT3RlSUkxYWFWcFhJR3Qzd0JaM0paanh5ekVrOVNTYTRNYmZsVnpxdzFydXg3L1JSUlhrSG9CWHlyOFpmK1VnbjdPdjhBMkJmRWYvcE9sZlZWZkt2eGwvNVNDZnM2L3dEWUY4Ui8razZVQWZWVkZGRkFCUlJSUUFVVVVVQUZjVjRBMTdUTlg4Vi9FcTBzTklqMDI2MHJ4QkRaNmhjb1JuVUp6cFduemlkc0FjaUthR0huSnhBT2NZQTdXdVM4RmVJTlIxbnhMNC9zNzdTMTArMjBuVzRyS3h1RmlaRGZRblRiS2N6RW5oeUpaNW90eThmdVFPcW1nRHJhS0tLQUNpaWlnQW9vb29BS0tLS0FDc3Z4Ti95QUwvOEE2NUd0U3N2eE4veUFMLzhBNjVHc3EzOE9Yb3pPcDhEOUR3N3dsL3g0WGY4QTEvWEgvb2RiZUt4ZkNYL0hoZC85ZjF4LzZIVzFYNWhMZG54RDNERlFTWHRyQzVTUzVpamNkVlp3Q0tucnlxYjRZYWQ0NThWZUo3Ni91N3lPV0srRUNKRElRb1VSSWVuNG1xaWsvaVk0cFBjOU0vdEt6LzUvSVA4QXY0S3NEREFFSElQSUk3MTVYZWZBTFFvYks1a1cvd0JRM0pFN0Q5NmVvVWtkNjcvd2l6UDRWMGRtWXV4dFk4c2VwK1VVU1VVcnhkd2FqdW1hMktNVVVWQklZb3hSUlFCNmg0UC9BT1JldHY4QWVrLzlHTlcxV0w0Ty93Q1JldHY5NlQvMFkxYlZmcDJIL2d3OUYrUjl2Uy9oeDlFRkZGRmJtb1VVVVVBRkZGRkFCUlJSUUFVVVVVQUZGRkZBSHovcStwZU9OUDhBMnAvR3YvQ0crSHZEK3ZiL0FBWjRkKzEvMjdyMCttZVZpKzF6WjVmbFdWejVtY3ZuT3pidFhHN2NkdlYvOEpIOGIvOEFvbm53L3dEL0FBdkw3LzVUVWVIUCtUcC9pSC8ySm5oci93Qkx0ZHIxV2dEeXIvaEkvamYvQU5FOCtILy9BSVhsOS84QUthc245bks1MXk3OFVmR3lYeEpwMm42VnJUZU00ZnRGbnBkKzk5Yngvd0RFZzBjTHNtZUdGbnl1MG5NYTRKSTVBM0gydXZLdmczL3lVWDQ3ZjlqbmJmOEFxUGFOUUI2clJSUlFCeWZ3azhRYXY0cytGUGd2WE5mMHdhTHJ1cDZMWlh1b2FhSVhoRnBjU1FJOHNQbHZsazJPekx0YmtZd2VhNnl1VStFOG5pYVg0V2VEWDhhTHM4WXRvdGsydHJpTVl2akFuMmdZaitUL0FGbS83bnkrbkdLNnVnQW9vb29BL05iOXAvOEFaZytML2kvOW8vNGhlSS9Ebnc5dmRlMEhWN3F6bnM3KzIxVFRvbGtWTk90SUhHeWE1amNFU1F5RGxSbkdSa0d2TXY4QWhrSDQ4LzhBUkpkVi93REJ6by8vQU1tMSt1MUZkVWNSVWdsRkdFcU1KTzdQeDQxVDlqRDQvWDE5bzgwZnduMUlMWjNUVHlCdGEwakpVd1N4NEgrbTljeUQ4TTFvL3dERElQeDUvd0NpUzZyL0FPRG5SLzhBNU5yOWRxS2YxcW9oZXdnZmtUL3d5RDhlZitpUzZyLzRPZEgvQVBrMnZzajlsYTcrSXZ3TytCdWgrRE5kK0NYaks3MVN4dXRSbmttMDdVdEJlQXJjWDl4Y0lGTDZtalpDVEtEbFJ5RGpJd1Q5WFVWblVyVHFxMGk0VTR3MVI1Vi93dVR4ZC8wUW40Z2YrQjNoNy81YTE0LyswaCswRHF2Z0RUL0JIeEc4VC9DSHh4b1hoUHdSNGdPcTZ0ZHpYR2lUTUlwOVB2ZE9qV09PSFVuWm1NOS9CeGdBTHZPZU1INjFyNVYvNEtqL0FQSmlmeE4vN2huL0FLZExTc0RVOVYvNFhKNHUvd0NpRS9FRC93QUR2RDMvQU10YVArRnllTHYraUUvRUQvd084UGYvQUMxcjFXaWdEODUwK0VIeGhYVnZFbDBmZzU0ajh2VXZFR3JhckNQN1cwVEt4WFYvUGN4cTMvRXc0WUpLb1lESUJCd1NPVE4vd3FiNHYvOEFSRy9Fbi9nMTBULzVZVitpVkZlN1R6ckYwb1JweGFzbGJic2VKVXlmQzFaeXFTVHUzZmZ1Zm5icGZ3bCtMOWo4UVBCT3V5ZkJ6eEdiVFJOU212TGhGMVhSUE1kSHNMdTNBUWYyaGduZmNJZVNPQTNPY0ErNS93QnQvRUgvQUtJaDQxLzhHT2dmL0xPdlp2Qy94czhHK012R3Q5NFQwalZaTG5YYlMza3V6REpZM0VNVThNY29pa2x0NW5qV0s0UkpHVkdhSm5Dc1FEZzEzTmVIam4vYU5YMjFmNHJXMDBPeWpncU5DSEpEWStZUDdiK0lQL1JFUEd2L0FJTWRBLzhBbG5YcGY3TXZoblhQQ253a2hzL0VXa1Q2RHF0eHJXdDZrK25YTTBNc3NFZDFxMTNjd2gyaGtrakxlVk5HU0ZkZ0NjWjRyMVNpdWFsaDRVVzNFNm9VNHcxUVVVVVYwR29WOHY4QWdqL2xJcjhUZit4RjBuLzBvbHI2Z3I1WjhGVGxmK0NqL3dBU1ljY1A0QzB4OCttTGx4LzdOUUI5VFVVVVVBRkZGRkFIeXo4T1lDMy9BQVVVK01NMjdoUEIrakp0K3J5SC93QmxyNm1yNVkrRjByU2Y4RkR2amVySElqOEw2RXEvVEVoL21UWDFQUUFVVVVVQWZtcFovd0RJZDhjZW4vQ1orSlAvQUU4M2xYZjgvd0NmODlxcFdmOEF5SGZISGIvaXMvRW4vcDV2S3VubmozcjZhai9EajZJOFdwOGI5VGp2alA4QThrZjhkLzhBWUN2K24vWHZKWFluL1ByWEhmR1k1K0QvQUk2LzdBTjkzLzZkcEs3SS93Q2V0VXZpZjlkeGZaUUhyOWZ3cmpkTFAvRjRQRS8vQUdBZEovOEFTalVxN0hwL0t1UDB2L2tzSGlmb1ArSkZwUHQveThhalJMZGYxMEJiTTdIblB2UVBVZEtRRFBiL0FELzlhbDcrblNySk9OK0RHZjhBaFQzZ1hIL1FCc2VuL1h2SFhaZi9BS2h4WEcvQm4va2ovZ1hwbit3YkR2OEE5TzZWMldQUWRzZE8xUkQ0VU9XN09OOGRmOGpQOE8vK3c3TDF6LzBDNy92WFpFKy9yMS9uWEcrT2oveFZIdzdQL1VkbFByL3pDNyt1eTZkS0Z1LzY2SUhzZ0hYOGhYRy9CZy84V2U4QzgvOEFNQnNlbi9YdkhYWWc5T2YxOStLNDc0TS84a2Y4Qyt2OWcySC9BS1R4L3dEMXFIOFMvcnNIUTdIcHdPUFlWOVMvc1A4QS9KdXVtLzhBWWU4UmYrbnkrcjVhNHg3ZnBYMUwrdy8vQU1tNjZiLzJIdkVYL3A4dnE4L0hmREU2OEw4VFBlYUtLSzhjOUVLK1dQakJFWnYrQ2dYN1BaVXIrNjBQeEU3QW5uQmhqWCtaL25YMVBYeXI4VlArVWlId00vN0ZuWGYvQUVGS0FQcXFpaWlnQW9vb29BS0tLS0FDdVU4RzNIaVNieEg0N1RYWS9MMHVMV28wMEZ0cURmWS8yZFpzNStYay93Q2xOZURMYzhZKzZGcnE2NVR3YnBHdjZiNGo4ZDNHc1h2MnJUdFExcU81MFdMelMvMmF6R25XY1RSNEkrVE56RmRQdEdSKzgzZFdJQUIxZEZGRkFCUlJSUUFVVVVVQUZGRkZBQldYNG0vNUFGLy9BTmNqV3BXWDRtLzVBRi8vQU5jaldWYitITDBablUrQitoNGY0Uy80OEx2L0FLL3JqLzBNMXRWaStFditQQzgvNi9yai93QkROYlZmbUV0MmZFUGNLNXJ3bi95R1BGdi9BR0ZQL2FLVjB0YzE0VC81REhpMy9zS2YrMFVwclpqV3pOelV2K1FiZS84QVhDVC9BTkJOVWZCMy9JcGFOLzE2Ui95cTlxWC9BQ0RMMy9yaEovNkNhbytEditSUzBiL3Iwai9sUzZDV3hyTzZ4cnVaZ2lqcXpIQUZRL2I3WC9uN2gvNzdIK05ZUHhHdGZ0M2hHNnRUSThTM0R4eE04Wnd3RE1BY1Z5Zi9BQXozb2E4ZjJucW5IL1RjMWNZeGF2SjJLU2phN1o2YkhkUXpOaU9lT1EraU1DYWtyenJ3bjhQclB3SjQydC9zVjVkM0MzVmpMdlM1azNBRU11Q1B6cjBXcGtrbm94TkpiSHFIZzcva1hyYi9BSHBQL1JqVnRWaStEdjhBa1hiYi9lay85R05XMVg2WmgvNE1QUmZrZmEwdjRjZlJCUlJYaURmRS93QWIvRTM0cGVNUENudzluMERRTks4SFBEWjZwcjNpSFRaOVMrMTM4c2F5L1pvTGVLNHR0cXhSc2hlVnBHeTBnVUp3V3JjMVBiNks4bWwrT0krSFBodXpmNHFXMGVpK0piaVc5a1hUUEM5dGVhNXV0SVpUaTVWYmVCcHZLV05vZDhqeG9xdTRCMjdsQnJlSVAydmZoQjRibmFDZnhyYlg5d3VrSnI1aDBhMXVOU2svczloa1hPMjJqa093S041T1BsVDUyd3ZOQUhzVkZmTkg3UVA3VDlqTjhDZmlocVB3cDhZV3NmaXp3MW9hNnpCZlNhWEpQQkxiTXpoWjdWNVFzTnlqR0tSQk5HWlkxWWZNRDkwOWg0aS9hYitHZDE0UjhTVHQ0K3VQQ2E2Wjluam52bjArUzN1NHZQYmJielc4TjFic0xoSlNDRWtTT1NOOE1WSndTQUQyZWl2SnJ6OXF6NFZXWGl2VlBEamVMb1o5VzByVklORzFHTzB0TGk0aXNMcVprU0pMaVdPTm80VmFTVkk5N3NxQ1RkR1dEcXlpamMvdE8vQ3Z3bEw0aHZ0WCtLRnE5bEY0a1h3NDYzdXhiZXcxRHlZdDFwRTZSS1hVYmc3dTdTQkdad3pxRjJxQWV6MFY1aEYrMG40QW44T1I2ekZxV3BTeHlhbkpveWFkSG9Pb05xaHZZNHpMSkIvWjRnKzFiMWpCa0k4cmhCdlB5ODEwWHd2K0tmaHY0eWVFb2ZFM2hPNnVyN1JKcFhpaXViclRybXlNakljTVZTNGpSbVVISTNBWXlHR2NnNEFPdG9vb29BOHE4T2Y4blQvRVAvc1RQRFgvQUtYYTdYcXRlVmVIUCtUcC9pSC9BTmlaNGEvOUx0ZHIxV2dBcnlyNE4vOEFKUmZqdC8yT2R0LzZqMmpWNnJYbFh3Yi9BT1NpL0hiL0FMSE8yLzhBVWUwYWdEMVdpaWlnRDVxMUx4ejhmL2hCNFY4QitHTkcrRGYvQUF1TzlzL0ROaEhyWGliL0FJVFMxMC9mcVNJWTdoZHR5bm1TNUtDVHpUamQ1dlFFR3NyL0FJYUgvYWQvNk5HLzh5VnBmL3h1dmR2Z240Y3R2QjN3WjhCYUJaNnpCNGp0TkswQ3dzWWRZdFNERmZwRmJ4b3M2WVpodGNLSEdHWVlZY25yWGFVQWZLdi9BQTBQKzA3L0FOR2pmK1pLMHY4QStOMGY4TkQvQUxUdi9SbzMvbVN0TC84QWpkZlZWRkFIeXIvdzBQOEF0Ty85R2pmK1pLMHYvd0NOMGY4QURRLzdUdjhBMGFOLzVrclMvd0Q0M1gxVlJRQjhxLzhBRFEvN1R2OEEwYU4vNWtyUy93RDQzUi93MFA4QXRPLzlHamYrWkswdi93Q04xOVZVVUFmS3YvRFEvd0MwNy8wYU4vNWtyUy8vQUkzUi93QU5EL3RPL3dEUm8zL21TdEwvQVBqZGZWVkZBSDVTZkRIOXVIOXFFL3RSK01mQ05yOE5yanhkYXJxOGd1L0JzbHlsdzJoQXR6R3VwUnFJMVVkQTBtVTdBQ3ZxYi9ncGxjM041K3dCOFFwN3l6T24zY3NXbFBOYU5Jc2hoYzZsYUZrM0x3MkR4a2NIRmZWT25hTnAram02TmhZMjFrYnFacm00K3pRckg1MHJmZWtmQUc1ajNZOG12anYvQUlLdGZFdnd0b3Y3SnZqVHdaZjY1YVduaW5XWXJDZlR0S2xmRTEwa2VwV3pTTWc3N1ZSaWZRQ2dEN1FxSzZXWjdXWmJhU09LNEtFUlNTb1hSV3h3V1VGU3dCNmdFWjlSMXJuUGgxOFQvQ254YjhQblhmQnV2V2ZpUFJ4TTF2OEFiYkY5OFhtS0FXVUh1UnVINTEwTjdaVytwV2M5cGR3UlhWcGNSdEZOQk9nZU9SR0dHVmxQQkJCSUlQWE5BSHhYOExmaUY4WXZHQy9CMDZuOFVXRW5qcDlkc2IvN0w0ZnNvMHRFczNrYU9hMkRJeFc0eEV5YnBESkZ0WVpoTEtXYjMzOW5ueFZyL3dBV2YyZGREMUxWOWJ1TGZ4RGUyMTFaemEzWlFRSlA1c1U4c0F1VmphTm9SSWZMRDRNWlRjVDhtM2l0ZTIvWnMrRWRuOWorei9DendWQjlqWm10dkw4UFdpK1FXKzhVeEg4cE9CbkhXdDdSdmhWNEo4T2VFcjN3cnBQZy9RTkw4TVh3a0Yxb2xscGtFTmxjQ1Jkc2draFZRamJsQUJ5RGtEQm9BK0t2aGo0aytKK2lmQzc0SytBdkJ2aTZSdFM4WWFkcXVwUmFucmQ3WldMd3ZhdkZpenRuL3N1NVNRTXNzMHpJOFR5RVJzUktpcVFlbzhhL0hINGc2UG8vaC9VYmZ4M2NhcjRtMHB0QXQvRUdrK0Y5RHQyOFBvWjc5WUxpZTV1N3VKWm1FNnRpT08yWkhRYlgyRkc4d2ZTeS9zOWZDeFBDNytHbCtHbmc5ZkRqM1l2MjBjYURhaTBhNUNiQk9ZZkwyR1RiOHUvR2NjWnhVdmliNENmREx4cGZRWHZpSDRjK0U5ZXZZTFpiT0c0MVBRN1c0a2pnVUVMRXJPaElRQW5DamdaUEhOQUh5ZjRaOFUrTHZCK3I2NXJGbDhVZGF2enFQeGtzOUduc0x5SFRKWWJ6VDVaTE8zTFpGcUpBREhKRWdhTjFVQlk5b0JKM1gwK00vajN4SDhYb1BBbWtmRnBWdHg4U3RSOE9YMGx0cCtuVDZuYjJRMGRycUJBZks4cU1KTkRjb0M4TE16SmhtUGx1cmZWOTU4SXZBdW8yMnZXOTM0SzhPM1VHditUL0FHdkZOcFVEcnFQazQ4bjdRQ21KZG1CdDM1MjRHTVZueC9BSDRZUXphVkxIOE9QQ1NTNlRNdHpwN3JvVnFHczVWV05Wa2hQbC91MkFoaEFaY0VDSkIvQ01BSGdIaGo0bGZHSHhIOFRML1VyZnhMb0ZwNE44T2VMcGZDdXA2WnExK2htdVlrWXdSeXRiUmFZSkk3bVZuaHVBNHV4RHNQOEFxbFU3bDdyOW1INGkrTHZFdXFhdnBIanJVdFFtMXRkTHNOU2h0Ym15c210SFNWcHZNdXJLK3MyTWR6YXlOdFdOWFJKVVdKZDRZdVdyMTJYNForRDV2R1gvQUFsMG5oVFE1UEZubEdEKzNtMDZFMzNsbFNoVHo5dS9idEpYR2NZT09sSGd6NForRC9oejl2OEErRVQ4S2FINFgrM3lDVzgvc2JUb2JUN1M0emhwUExWZDVHNXVUbnFmV2dEcGErVmZCbi9LU2o0amY5ay8wNy8wcWF2cXF2bFh3Wi95a28rSTMvWlA5Ty85S21vQStxcUtLS0FDaWlpZ0Q1VitGZjhBeWtRK09mOEEyTE9oZitndlgxVlh5NThLSVZiL0FJS0IvSG1ZNTNKNGQ4UG9QVEJTVW4vMEVWOVIwQUZGRkZBSGgrcS9zWGZDYldOWjFQVko5STF5SzcxSzl1TlJ1UlorTE5YdG9tbm5sYVdaMWlpdWxSTjBqdXhDcUJsamdWVy80WWcrRWY4QTBEZkV2L2hiYTUvOG1WN3pSVmMwdTVQS3V4NEJlL3NKL0J2VXJPZTB1OUc4UTNWcGNSdEZOQk40ejF0MGtSaGhsWlRlWUlJSkJCNjVxYi9oaDc0UkQvbUdlSmYvQUF0dGMvOEFreXZlYUtmUEx1SEt1eDROL3dBTVBmQ0xHUDdNOFM0OVArRTIxei81TXFGUDJFL2czSGVTM2E2TjRoVzdsalNLU2NlTTliRHVpRmlpbHZ0bVNGTHVRTzI5dlUxNy9SUnp5N2h5cnNlRGY4TVBmQ0kvOHd6eEwvNFcydWYvQUNaUVAySC9BSVJBZjhnM3hMLzRXMnVmL0psZTgwVWM4dTRjcTdINWcvc09mQTN3dDhTZmpqKzByNFE4UXY0aHUvRGZnWHhHbWsrSE5PaDhVYW5iSnA5cUxtL2lFU21LNFVzQWx2Q28zbGlOblhrNSt4ZitHSHZoRi8wRFBFdi9BSVcydC84QXlaWHp6L3dUaS81T24vYlEvd0N4elgvMHUxV3Z2K2pubDNEbFhZOEFuL1lUK0RkMUxiU3phTjRobWt0cERMQThualBXMk1UbFdRc3BONThwMnU2NUhaaU9oTlRmOE1QZkNML29HZUpmL0MyMXovNU1yM21pam5sM0RsWFk4Ry80WWcrRWYvUU44Uy8rRnRybi93QW1WRFpmc0ovQnZUYk9DMHRORzhRMnRwYnhyRkRCRDR6MXRFalJSaFZWUmVZQUFBQUE2WXIzK2lqbmwzRGxYWThHL3dDR0gvaEZuL2tHK0pmL0FBdHRjLzhBa3l2VlBoMThPdEErRkhoQ3o4TWVHTE9XeDBXMGtubGlobXU1cnA5ODB6elNzMHN6dkk1YVNSMkpaajk3MHJwYUtUazN1eHBKYkJSUlJVakN2bFg0cWY4QUtSRDRHZjhBWXM2Ny93Q2dwWDFWWHkxOFRJMGwvd0NDaHZ3V3kzenhlRk5jY0FIMU1hOC9tZnlvQStwYUtLS0FDaWlpZ0Fvb29vQUs0endKNGNUUlBGUHhHdkUxaUhVMjFqWG9yNTdXSTViVGl1bDJGdjVEOG5ERVFDYm9PSjE0N25zNjR2d0ZwV2g2ZjRxK0pFK2s2azk5ZjMydnhYR3J3TjBzN29hWFlSTEV2QTROdkhiU2QrWlR6MkFCMmxGRkZBQlJSUlFBVVVVVUFGRkZGQUJXWDRtLzVBRi8vd0JjaldwV1g0bS81QUYvL3dCY2pXVmIrSEwwWm5VK0IraDRmNFMvNDhMei9yK3VQL1F6VzNnbnRtc1R3bC94NFhuL0FGL1hIL29acm4vR0Z0NGwxanhNbGxvZXFwcHNVTm9zMG01YzdpV0kvcFg1bGE4bWZGV3V6dTlwOURYTmVFK05ZOFcvOWhUL0FOb3BYTG53ZDQvL0FPaHBpLzc0TmFud3V0TCt4WHhMQnFsMEx5K1hWRDVrd0dBMzdwTVZUaWxGNjNIYXllcDErcGY4Z3k5LzY0U2YrZ21xUGc3L0FKRkxSdjhBcjBqL0FKVmUxTC9rR1h2L0FGd2svd0RRVFZId2QveUtXamY5ZWtmOHF6NkVMWWc4Yi84QUlBUC9BRjhRL3dEb1lyZVBXc0h4dC95QUQvMThRLzhBb1lyZVBXbjlsQS9oUmgzZi9JNjZaLzE1VC84QW9TVnVWaFhmL0k2NlovMTVULzhBb1NWdTBuMEI5RDFEd2QveUx0dC92U2YrakdyYXJrTGZ4Wm9mZ2J3QWRiOFNhenAvaC9SYlZtOC9VZFV1a3RyZUhkTVVYZkk1Q3JsbVZSazhsZ09wcm1mK0dzZmdoLzBXVDRmL0FQaFVXUDhBOGRyOU53LzhHSG92eVB0cVg4T1BvajFXdkN6OE1QSDN3eCtMSGpEeFY4UFkvRHZpSFEvR1R4WHVwNkI0aDFDZlRIc3RRaWlqaEZ4YjNNVnZjYjBsalFCNG5qRzFrVmxmQksxdi93RERXUHdRL3dDaXlmRC9BUDhBQ29zZi9qdEgvRFdQd1EvNkxKOFAvd0R3cUxIL0FPTzF1YW5QYXQ4Ti9pZHBQeEgwWDRpYVBkK0h2RW12UHBFMmphdm9lcTNjMm0yU3hQT0o0bXRiaU8zbmZNVEFvZk1qUG1CaXhLRUJhOHhzdjJVL2lINEx0dFQwZnc4bmhYVk5KbStIMC9nK0c3dnRWdWJLUnJtZWFXZVNmeUV0SmhGRXJ6eUtzWWtjaFVYbms0OXYvd0NHc2ZnaC93QkZrK0gvQVA0VkZqLzhkby80YXgrQ0gvUlpQaC8vQU9GUlkvOEF4MmdEeEx4Qit5MThTZkgxaHFHamF4L3dpdWlhZGY4QXcwajhEU1h0anExemV6UlRveGNUaUZyU0lNaGI1Y2VZQ0J6ejkydHY0cy9BWDRuZkZ6dzc0MTFPOHRmQ1dtK0x0YzBxeDhQMm1tUTYxZFNXRnRhd1hUWFVsdzl5YklTUEs3c0ZFWWhWVlZBZDdGamoxTC9ockg0SWY5RmsrSC8vQUlWRmovOEFIYVArR3NmZ2gvMFdUNGYvQVBoVVdQOEE4ZG9BOGQ4VS9BcjR3ZUk0L2l4SU5JOEVXOXg0eThSNkhyVnRHZkUxNHlXOGRndG9ySTdmMmFDV2Y3Q21NREE4NXV2bGpmRnJId0IrTUYvcmZpVytpMHJ3UUUxTDRpNlg0MmdSL0V0NENJYlNLM2pNRGY4QUV1T0hiN0loM0RJSG1zT2RnTCt6L3dERFdQd1Evd0NpeWZEL0FQOEFDb3NmL2p0SC9EV1B3US82TEo4UC93RHdxTEgvQU9PMEFmTm54ZDBYeFQ4TWRkbXZ2RUdzK0RmQXQ3clhqdTY4VDZGNGhsOFZQWUxiSi9aZ3RKSVh1N25USmJlT1YwQ255WGlsRXF2THQybUFPZm8vOWx5VzAvNFU1cFZyWVJhY2JHMGxtaWl2OUkxazZ2YWFpeGN5UzNTWGZrUUNVeVN5U0Z5c1NxSlBNQ2phQlVuL0FBMWo4RVAraXlmRC93RDhLaXgvK08wZjhOWS9CRC9vc253Ly93RENvc2YvQUk3UUI2clJYbFgvQUExajhFUCtpeWZEL3dEOEtpeC8rTzE1L3dER3ovZ29MOEcvZzk0U3R0ZXRQR0dnK09sYStpdFo5TjhMNjVaM2Q3SEU0YmRNc1N5Zk1Gd01qSTY5ZlVBMWRYMUx4eHAvN1UvalgvaERmRDNoL1h0L2d6dzc5ci90M1hwOU04ckY5cm16eS9Lc3Juek01Zk9kbTNhdU4yNDdlci80U1A0My93RFJQUGgvL3dDRjVmZi9BQ21yei84QVoxK1BYZ1g5b0g0OCtPL0VuZ2JYb2RZMDZYd2Y0ZGhJMnRGTkZLbDVyUmtqZU53R0RLSlk4OFkrZFRraGdUOUswQWVWZjhKSDhiLytpZWZEL3dEOEx5Ky8rVTFaUDdPVnpybDM0bytOa3ZpVFR0UDByV204WncvYUxQUzc5NzYzai80a0dqaGRrend3cytWMms1alhCSkhJRzQrMTE1VjhHLzhBa292eDIvN0hPMi85UjdScUFQVmFLS0tBT0srQ0Zob0dsZkJmd0RaZUZOUW0xYnd0YmVIOVBoMG5VTGhkc2wxWnJiUmlDVnh0WEROR0ZZamF2SjZEcFhhMXhYd1F1ZkR0NzhGL0FOeDRRdExpdzhKemVIOVBrMGUwdXlUTkRaRzJqTUNPU3pFc3Nld0g1bTVCNVBXdTFvQUtLS0tBQ2lpaWdBcjhlUERmN1oveCsxanc3cGQvTjhXTlNXYTZ0WXAzV1BSZElDaG1RTVFNMlI0eWEvWWV2d1c4RGY4QUlrK0gvd0RzSDIvL0FLTFd1M0N3ak9UNWtjdGVUaWxabnVmL0FBMTk4ZWYraXRhci93Q0NiUi8vQUpDcjMvOEFZMDhmZkZqOW9qeEY0N3NQRWZ4bThVV1VPZzJ1bVQyemFYcGVoeHM3WEQzaXlCOStuUGtBVzBlTVk2dG5PUmo0b3I3TS93Q0NYWC9JN2ZGLy9zSDZELzZNMVN1akVVb1FwM2lqS2pPVXAyYlBxMy9oVGZpNy9vdTN4QS84QWZEMy93QXFxK1RQK0NsSDdLVi80citBTGVKZFErSTNpYnhocnZoNi90SXRMdHRhdGRLaml6ZVhjRnE2N3JXeWdjWk1pTnl4SHlENWVoSDZFVjRKKzNKL3liaHF2L1ljOFBmK251eHJ6cVVWT2NZdnEwZGRTVGhCeVhSSHg1OEtydng5OEcvQUdrZUVQQzN4UDF6UnRGMDJNckZhVzJtYVF5S3pNWGNocExGbk9YWmpsbUo1Nm11cy93Q0ZzL0YvL29zbmlUL3dWYUovOHI2dzZLL1V2N0x3WC9QcEg1bi9BR25qUCtmalBWZmdwNGcrS0h4SStIOFd1Nm44YWZGa0YyMnBhblpsTFRUTkNXUFpiMzl4YnhuRGFheHlVaFVubnFUZ0FjRHV2N0UrSVA4QTBXL3hyLzRMdEEvK1ZsY1greW4vQU1rWnQvOEFzT2E5L3dDbmk4cjEydnd6RjE2a01SVWpHVmtwUDh6N2lGYW80cHRuUmZzeStKdGM4Vi9DU0c4OFJhdlByMnEyK3RhM3ByNmpjd3d4U3p4MnVyWGR0Q1hXR09PTU41VU1ZSlZGQkl6am12Vks4Yi9aSy81STdOLzJOWGlqL3dCUCtvVjdKWHR3ZDRwbnJyWkJSUlJWRENpaWlnQXI1VjhHZjhwS1BpTi8yVC9Udi9TcHErcXErVmZCbi9LU2o0amY5ay8wNy8wcWFnRDZxb29vb0FLS0tLQVBsajRQVE5ML0FNRkFmMmhWYkdJOUQ4T291UFR5WkQvTW12cWV2bFg0TmY4QUtRVDlvci9zQytIUC9TZDYrcXFBQ2lpaWdBb3J6L3hUKzBMOExQQTJ1M1dpZUpQaVg0UDhQNjFhN2Z0R25hcHIxcmJYRU81UTY3NDNrRExsV1Zoa2NoZ2VocksvNGF4K0NIL1JaUGgvL3dDRlJZLy9BQjJnRDFXaXZLditHc2ZnaC8wV1Q0Zi9BUGhVV1A4QThkby80YXgrQ0gvUlpQaC8vd0NGUlkvL0FCMmdEMVdpdkt2K0dzZmdoLzBXVDRmL0FQaFVXUDhBOGRvLzRheCtDSC9SWlBoLy93Q0ZSWS8vQUIyZ0QxV3VZK0puajZ6K0ZuZ0RYdkYybzJWL3FHbmFMYXZlM1VHbVJDVzRNU2N1eXFXVUhhdVdQUFJUMTZWeVAvRFdQd1EvNkxKOFAvOEF3cUxIL3dDTzFGYy90VWZBdTh0NWJlZjR2L0R5YUNWQ2trVW5pYXhaWFVqQkJCbDVCSGFnRDg5LytDZEg3VTNoTlAydFBqWmFRYWZyZDdjZkZYeFFMN1FVdDdSR01VSW52NTNlNHk0OHNMSE9ySEc3N3JkY0RQNnhWK2JYN0dYdzErQW43TTN4ditLSGpDYjR4L0RxZXp1Ym8yWGhVZjhBQ1ZXTHZiNmZJRmxrSi9lOE51WlljOEhFTG5vNHI3US80YXgrQ0gvUlpQaC8vd0NGUlkvL0FCMmdEMVdpdkt2K0dzZmdoLzBXVDRmL0FQaFVXUDhBOGRvLzRheCtDSC9SWlBoLy93Q0ZSWS8vQUIyZ0QxV2l2S3YrR3NmZ2gvMFdUNGYvQVBoVVdQOEE4ZG8vNGF4K0NIL1JaUGgvL3dDRlJZLy9BQjJnRDFXaXZLditHc2ZnaC8wV1Q0Zi9BUGhVV1A4QThkcnYvQzNpelEvSE9oV3V0K0c5WjAveEJvdDF1K3o2anBkMGx6YnpiV0tOc2tRbFd3eXNwd2VDcEhVVUFhMUZGRkFCWHlwOFJQOEFsSTk4SXY4QXNUTlgvd0RSaTE5VjE4cWZFVC9sSTk4SXYreE0xZjhBOUdMUUI5VjBVVVVBRkZGRkFCUlJSUUFWeFhnQi9EcmVLL2lVTkZqdUUxSmZFRUkxd3paMnZlLzJWcDVReDgvZCt6RzBIR1BtRC9VOXJYRmVBTmIwclZmRmZ4S3RkTzBsZE92Tk04UVEybXBYS2tFMzl3ZEswK1paejdpR2FDTG4vbmlLQU8xb29vb0FLS0tLQUNpaWlnQW9vb29BS3kvRTMvSUF2LzhBcmthMUt5L0UzL0lBdi84QXJrYXlyZnc1ZWpNNm53UDBQRC9DWC9IaGVmOEFYOWNmK2htb292OEFrZTdyL3NIeC93RG9iVkw0Uy80OEx2OEE2L3JqL3dCRHFLTC9BSkh1Ny83QjhmOEE2RzFmbVhWbnhMNm05WE5lRVA4QWtMZUxQK3dwL3dDMGtycGE1cndoL3dBaGJ4Wi8yRlAvQUdrbEpiTVMyWnU2bC95RGIzL3JoSi82Q2FwZUQxUC9BQWlXamNIL0FJOUkrM3RWM1VlTk92TTlQSWsvOUJOZVYrSGZDbmp5WFFOT2tnOFJ3eHdOQXJSb1VIQ2tjRDhxcUtUV3JzVkZYVzU2QjQzQkdnSGcvd0RIeEQvNkdLM1QxcnlMWFBEdmpUVHJhMm4xTFhvcnV5VzdnRXNLcHl3TGl2WFcrOGFKSkpLenVFbFpMVXdydi9rZGRNLzY4cC8vQUVKSzNhd3J2L2tkZE0vNjhwLy9BRUpLM2FoOUNYME83dC9DZWgrT2ZBQjBUeEpvMm4rSU5GdW1iN1JwMnFXcVhOdk50bUxydmpjRld3eXF3eU9Db1BVVnpQOEF3eWQ4RVA4QW9qZncvd0QvQUFsN0gvNDFYZCtEditSZHR2OEFlay85R05XMVg2Ymgvd0NERDBYNUgyMUwrSEgwUjVWL3d5ZDhFUDhBb2pmdy93RC9BQWw3SC80MVIvd3lkOEVQK2lOL0QvOEE4SmV4L3dEalZlcTBWdWFubFgvREozd1Evd0NpTi9EL0FQOEFDWHNmL2pWSC9ESjN3US82STM4UC93RHdsN0gvQU9OVjZyUlFCNVYvd3lkOEVQOEFvamZ3L3dEL0FBbDdILzQxUi93eWQ4RVAraU4vRC84QThKZXgvd0RqVmVxMFVBZVZmOE1uZkJEL0FLSTM4UDhBL3dBSmV4LytOVWY4TW5mQkQvb2pmdy8vQVBDWHNmOEE0MVhxdEZBSGxYL0RKM3dRL3dDaU4vRC9BUDhBQ1hzZi9qVkgvREozd1EvNkkzOFAvd0R3bDdIL0FPTlY2clJRQjVWL3d5ZDhFUDhBb2pmdy93RC9BQWw3SC80MVhubnh5LzRKOGZCLzR4K0VMYlFMRHdsb0hnSGJmdzNVK3ArR05CczdXOWtpUU51aFdWWXhzRFpHU1F3K1g3cDdmVEZGQUh6Sit6Zit6MzREL1o1K1BQanJ3NzRIMEtMUzdLSHdmNGRtTXNqdE5QTExKZWF5c3NqU09TMlhFTVdRTUQ5MnVBQW9BK202OHE4T2Y4blQvRVAvQUxFencxLzZYYTdYcXRBQlhsWHdiLzVLTDhkdit4enR2L1VlMGF2VmE4cStEZjhBeVVYNDdmOEFZNTIzL3FQYU5RQjZyUlJSUUJ4WHdROFE2ZjR0K0MvZ0hYZEkwYUh3N3BXcCtIOVB2YlBSN2NneDJNTWx0RzhjQ2JWVWJVVmdnd29HRjZEcFhhMXlmd2s4UWF2NHMrRlBndlhOZjB3YUxydXA2TFpYdW9hYUlYaEZwY1NRSThzUGx2bGsyT3pMdGJrWXdlYTZ5Z0Fvb29vQUtLS0tBQ3Z3VzhEZjhpVDRmLzdCOXY4QStpMXI5NmEvQmJ3Ti93QWlUNGYvQU93ZmIvOEFvdGE5REIvRXpqeE95TnV2c3ovZ2wxL3lPM3hmL3dDd2ZvUC9BS00xU3ZqT3Zzei9BSUpkZjhqdDhYLyt3Zm9QL296Vks2c1YvRE1hSHhuNkJWNEorM0oveWJocXYvWWM4UGYrbnV4cjN1dkJQMjVQK1RjTlYvN0RuaDcvQU5QZGpYbVVQNHNQVmZtZGxiK0ZMMFo4bVVVVVYreUg1RWV0L3NwLzhrWnQvd0RzT2E5LzZlTHl2WGE4aS9aVC93Q1NNMi8vQUdITmUvOEFUeGVWNjdYODQ0My9BSHFyL2lmNXMvUllmQ2pTL1pLLzVJN04vd0JqVjRvLzlQOEFxRmV5VjQzK3lWL3lSMmIvQUxHcnhSLzZmOVFyMlN2b0lmQ2ozSTdJS0tLS3NvS0tLS0FDdmxYd1oveWtvK0kzL1pQOU8vOEFTcHErcXErVmZCbi9BQ2tvK0kzL0FHVC9BRTcvQU5LbW9BK3FxS0tLQUNpaWlnRDVkK0MwYW45dlA5cEZ5QnZYUy9EQ2crZ050Tm4rUXI2aXI1WitCczdTL3Q2L3RPS1FBSXJEd3VneDZmWTVUeitacjZtb0FLS0tLQVBLdmczL0FNbEYrTzMvQUdPZHQvNmoyalY2clhsWHdiLzVLTDhkdit4enR2OEExSHRHcjFXZ0R5cjR5ZjhBSlJmZ1QvMk9kei82ajJzMTZyWGxYeGsvNUtMOENmOEFzYzduL3dCUjdXYTlWb0E4cS9heC93Q1RXUGpKL3dCaVpyUC9BS1F6VjZyWGxYN1dQL0pySHhrLzdFeldmL1NHYXZWYUFDdkt2MmFmK1NkYXYvMk9maXovQU5TSFVhOVZyeXI5bW4va25Xci9BUFk1K0xQL0FGSWRSb0E5VnJ5cnc1L3lkUDhBRVA4QTdFencxLzZYYTdYcXRlVmVIUDhBazZmNGgvOEFZbWVHdi9TN1hhQVBWYThxOFIvOG5UL0R6L3NUUEV2L0FLWGFGWHF0ZVZlSS93RGs2ZjRlZjlpWjRsLzlMdENvQTlWcnlydzUvd0FuVC9FUC9zVFBEWC9wZHJ0ZXExNVY0Yy81T24rSWYvWW1lR3YvQUV1MTJnRDFXdkt2MmFmK1NkYXYvd0JqbjRzLzlTSFVhOVZyeXI5bW4va25Xci85am40cy93RFVoMUdnRDFXaWlpZ0FyNWM4Y0ZIL0FPQ2pQd3hVN1M2ZUJkVmJIY1p1SXhuK2Y2MTlSMThxK00vK1VsSHc1LzdKL3FQL0FLVkxRQjlWVVVVVUFGRkZGQUJSUlJRQVZ5SGdqeERlYTE0bStJTm5kYVVtbndhUnJrVmxhM0N4c3B2b20wMnhuTXpFOE1RODhrV1J4aUVEcURYWDF5bmcyODhSM1BpUHgzSHJjSGxhWmI2MUhGb1Q3Rlh6Ykk2ZFp1N1pISi8wcDd0Y25uNWNkQUtBT3Jvb29vQUtLS0tBQ2lpaWdBb29vb0FLeS9FMy9JQXYvd0Rya2ExS3kvRTMvSUF2L3dEcmtheXJmdzVlak02bndQMFBEL0NYL0hoZC93RFg5Y2YraDFGRi93QWozZC85ZytQL0FORGFwZkNYL0hoZC93RFg5Y2YraDFGRi93QWozZC85ZytQL0FORGF2ekxxejRsOVRlcm12Q0gvQUNGdkZuL1lVLzhBYVNWMHRjMTRRLzVDM2l6L0FMQ24vdEpLUzJZbHN6ZDFIL2tHM24vWENULzBFMVE4SC84QUlwNk4vd0Jla2Y4QUtyK28vd0RJTnZQK3VFbi9BS0Nhb2VEL0FQa1U5Ry82OUkvNVV1Z2ZaS25qM253OFArdnUzLzhBUmdybzIrOGE1eng3L3dBaSt2OEExOTIvL293VjBiZmVORDJRUDRVWVYzL3lPdW1mOWVVLy9vU1Z1MWhYZi9JNjZaLzE1VC8raEpXN1ErZ1BvZW9lRHY4QWtYYmIvZWsvOUdOVzFXTDRPLzVGMjIvM3BQOEEwWTFiVmZwdUgvZ3c5RitSOXRTL2h4OUVGRkZGYm1vVVVVVUFGRkZGQUJSUlJRQVVVVVVBRkZGRkFIei9BS3Y0eTFmd2wrMVA0MS9zcndKNGc4YS9hUEJuaDN6UDdDbjA2TDdOdHZ0Y3g1bjJ5N3Q4N3R4eHMzZmNiTzM1YzlYL0FNTGs4WGY5RUorSUgvZ2Q0ZS8rV3RIaHovazZmNGgvOWlaNGEvOEFTN1hhOVZvQThxLzRYSjR1L3dDaUUvRUQvd0FEdkQzL0FNdGF5ZjJjdFp2UEVIaWo0Mlg5L29Xb2VHYnVieG5EdjB2VkpMZDdpREdnYU9vM20zbGxpTzRBTU5zamNNTTRPUVBhNjhxK0RmOEF5VVg0N2Y4QVk1MjMvcVBhTlFCNnJSUlJRQnlud25rOFRTL0N6d2EvalJkbmpGdEZzbTF0Y1JqRjhZRSswREVmeWY2emY5ejVmVGpGZFhYS2ZDZlJOZDhNL0N6d2JvL2ltLzhBN1Y4VGFmb3RsYWFyZitjMDMybTdqZ1JacGZNY0JuM09HYmN3Qk9jbm11cm9BS0tLOHkvYUI4SldYakx3WloyTi93RERHMCtMRUNYNlREUmIyYTJpU0VpT1FmYU0zQkNrcnVLNEhQN3c5czBBZW0wVjgrZnN2ZkJrL0RQeFI0OTFtMCtIR21mQ3pSdGVYVDFoMEd4dUliaVJwNEZuRXM3TkQ4aUl5eVFxc2FrZ0dPUjhBeUhQMEhRQVYvUDk0TjhLMlZ4NFEwT1Y1OVNEU1dNREVSNnBjb29KalU4S0pBQVBZREFyK2dHdndXOERmOGlUNGY4QSt3ZmIvd0RvdGE3OElrNU81eVlodEpXRC9oRDdEL240MVgvd2IzZi9BTWRyNnkvNEp4L0NMUXZHSGkvNHB4WDkvd0NLSUZ0YkhSR2pPbCtMTlYwOW1MeWFpRzN0YjNNWmtIeURBY2tMbHR1TnpaK2FLK3pQK0NYWC9JN2ZGLzhBN0IrZy93RG96Vks2Y1ZGS25vakdnMjVuMWIvd3pUNFIvd0NndjhRUC9EaitJZjhBNU9yeFA5c2o0Q2VHZkR2d0MxSyt0ZFQ4YVN6THJPaFJoYjd4MXJkM0ZoOVlzMGJNVTE0eUVnTVNyRVpWc01wREtDUHNHdkJQMjVQK1RjTlYvd0N3NTRlLzlQZGpYbTBOYXNmVmZtZGRiU25MMFo4Ty93RENxOUYvNS9mRW4vaFQ2bi84a1VmOEtyMFgvbjk4U2Y4QWhUNm4vd0RKRmRmUlg2OTdDbC9JdnVSK1VlMnEvd0F6KzluUWZzMC9CZncvclB3bWd1cmpVUEZrY3AxbldvOXRwNHgxZTJqd21xM2FENUk3cFZ6aFFTMk1zY3N4TEVrK3BmOEFDZy9EUC9RVDhhLytGM3JuL3dBbVZrZnNwLzhBSkdiZi9zT2E5LzZlTHl2WGEvbnJHU2tzVFZTZjJuK1orZ3drK1ZhbG45ampUNHRKK0JrZGpBMDd3MjNpWHhMQ2pYTTd6eWxWMTYvQUx5U0ZuZHNEbG1KWW5ra2s1cjIydkcvMlN2OEFranMzL1kxZUtQOEEwLzZoWHNsZTlENFVlMUhaQlJSUlZsQlJSUlFBVjhxK0RQOEFsSlI4UnY4QXNuK25mK2xUVjlWVjh1K0ZvbGovQU9Da1hqcGxHQy93NjA1bVBxZnRzZy9rQlFCOVJVVVVVQUZGRkZBSHlyOENmK1QrUDJvdit2THd2LzZReVY5VlY4di9BQUUvNVBqL0FHcXYrdUhoTC8wZ3VLK29LQUNpaXF0OXFsbnBZZ043ZHdXZ25sV0NFenlxbm1TTjkxRnllV09EZ0RrMEFmUC9BSVE4QWE3NHErTFh4eHU5TStKWGlqd2RicDR0dFltc2RFdHRLa2hrWWVIOUlKa0p1N0tkOXhEQVlEaGNLTUtEa250ZitGTitMdjhBb3UzeEEvOEFBSHc5L3dES3FqNE4vd0RKUmZqdC93QmpuYmYrbzlvMWVxMEFmTC94WStFL2lpMThlZkJpS1g0eitPTHg3bnhiY1JSVFRXZWhCclZob1dyUDVrZXpURkJZcWpSNGNPdTJSenREQldYMHYvaFRmaTcvQUtMdDhRUC9BQUI4UGY4QXlxbytNbi9KUmZnVC93QmpuYy8rbzlyTmVxMEFmTC83VGZ3bjhVYWQremI4Vjd1NCtNL2pqVkxlRHdscTBzbGpkMmVoTERjcXRuS1RHNWoweEhDc0JnbEhWc0U0WUhCSHBmOEF3cHZ4ZC8wWGI0Z2YrQVBoNy81VlVmdFkvd0RKckh4ay93Q3hNMW4vQU5JWnE5Vm9BOHEvNFUzNHUvNkx0OFFQL0FIdzkvOEFLcXZOUDJmUGhQNG92L0FlcXl3ZkdmeHhweUw0dDhUeEdHMnM5Q0tzeWE3Zm8waDh6VEdPNlJsTWpBRUtHZGdxb3UxUjlRVjVWK3pUL3dBazYxZi9BTEhQeFovNmtPbzBBSC9DbS9GMy9SZHZpQi80QStIdi9sVlhtbWdmQ2Z4US93QzBsNDZ0RitNL2ppTzRpOEplSHBYdmxzOUM4NlpXdk5hQ3hzRHBoUUtoUmlwVkEyWlgzTXdDQlBxQ3ZLdkRuL0owL3dBUS93RHNUUERYL3BkcnRBQi93cHZ4ZC8wWGI0Z2YrQVBoNy81VlY1cHIvd0FKL0ZDZnRKZUJiUnZqUDQ0a3VKZkNYaUdWTDVyUFF2T2hWYnpSUTBhZ2FZRUt1WFVzV1F0bUpOcktDNGY2Z3J5cnhIL3lkUDhBRHovc1RQRXYvcGRvVkFCL3dwdnhkLzBYYjRnZitBUGg3LzVWVjVwb0h3bjhVUDhBdEplT3JSZmpQNDRqdUl2Q1hoNlY3NWJQUXZPbVZyeldnc2JBNllVQ29VWXFWUU5tVjl6TUFnVDZncnlydzUveWRQOEFFUDhBN0V6dzEvNlhhN1FBZjhLYjhYZjlGMitJSC9nRDRlLytWVlZQMlU3S2JUdmhMZDJseGYzR3FYRUhpM3hURkpmWGF4ck5jc3ZpRFVBWkhFYUlnWmlNa0lpcmtuQ2dZQTlncnlyOW1uL2tuV3IvQVBZNStMUC9BRklkUm9BOVZvb29vQUsrVnZHS00vOEF3VW4rSGhVRWhmaDlxSllqc1B0YWorWkZmVk5mTHZpYVJUL3dVazhGUmcvT3Z3NHYySTlBYjZQSDhqUUI5UlVVVVVBRkZGRkFCUlJSUUFWeW5nM1MvRUZoNGo4ZHo2emQvYWRPdnRhanVORWo4emQ5bnN4cDFuR3lZeDh1Ym1PNmZIUDM4OTY2dXVPOEMrSFcwVHhSOFJMdzZ2RnFRMWpYWXI1YmFOc3RwNFhUTEdEeUhHVGdrd0diSEhFNm5IT1NBZGpSUlJRQVVVVVVBRkZGRkFCUlJSUUFWbCtKditRQmYvOEFYSTFxVmwrSnYrUUJmLzhBWEkxbFcvaHk5R1oxUGdmb2VIK0V2K1BDNy82L3JqLzBPb292K1I3dS93RHNIeC8raHRVdmhML2p3dS8rdjY0LzlEcUtML2tlN3Y4QTdCOGYvb2JWK1pkV2ZFdnFiMWMxNFEvNUMzaXovc0tmKzBrcnBhNXJ3aC95RnZGbi9ZVS85cEpTV3pFdG1idW8vd0RJTnZQK3VFbi9BS0Nhb2VEL0FQa1U5Ry82OUkvNVZmMUgva0czbi9YQ1QvMEUxUThIL3dESXA2Ti8xNlIveXBkQSt5VlBIdjhBeUw2LzlmZHYvd0NqQlhSdDk0MXpuajMvQUpGOWYrdnUzLzhBUmdybzIrOGFIc2dmd293cnYva2RkTS82OHAvL0FFSkszYXdydi9rZGRNLzY4cC8vQUVKSzNhSDBCOUQxRHdkL3lMdHQvdlNmK2pHcmFyRjhIZjhBSXUyMys5Si82TWF0cXYwM0Qvd1llaS9JKzJwZnc0K2lDaWlpdHpVS0tLS0FDaWlpZ0Fvb29vQUtLS0tBQ2lpaWdEeXJ3NS95ZFA4QUVQOEE3RXp3MS82WGE3WHF0ZVZlSFA4QWs2ZjRoLzhBWW1lR3YvUzdYYTlWb0FLOHErRGYvSlJmanQvMk9kdC82ajJqVjZyWGxYd2Ivd0NTaS9IYi9zYzdiLzFIdEdvQTlWb29vb0E0djRKK0hMYndkOEdmQVdnV2Vzd2VJN1RTdEFzTEdIV0xVZ3hYNlJXOGFMT21HWWJYQ2h4aG1HR0hKNjEybGNWOEVOTjBMUnZndjRCMC93QUw2bEpySGhxMDhQNmZCcGVvekREM1ZvdHRHc01yREM0TElGWThEcjBIU3Uxb0FLODUrTkh4RDFMNFkyM2hiV29OT3Z0UzBFYXVZZGZHbWFiTnFGekZadFozWGx2SERDck9UOXFGb3BJVTRWMnpnWkk5R3J4YjlxZncxcVhpZndsNFp0N093dnRYMHlIWG81dFgwdXcxbE5La3U3VDdOY0x0ODlwWXNiSlhnbENoc3MwU2c4WklBTC93UjhWZkVyV3RWMWUwK0llazJsanYwelQ5WnNYc0xLV0NPMSsxUGRMSnAwa2p5T3MwOXVMZUl1NmJjL2FGK1JSdExldFY0SCt5dkI4UURhWDExNDVDMjB2OWphTFpTMjM5cnhhZzArcFFRU1IzdDZER3pMRWszK2pnSm5KTUxNUUM1cjN5Z0FyOEZ2QTMvSWsrSC84QXNIMi8vb3RhL2VtdjUvdkJ2akxRTFh3aG9jTTJ1YWJETkhZd0k4Y2wzR3JLd2pVRUVFOEVIdFhmaEdsSjNPVEVKdEt4MmRmWm4vQkxyL2tkdmkvL0FOZy9RZjhBMFpxbGZESC9BQW5QaHY4QTZHRFN2L0EyUC80cXZyTC9BSUp4L0c3NGRlQi9GL3hUbThSK1B2Qy9oK0c4c2RFUzJrMVRXYmEyV2RvNU5STWdRdTQzRlJKSGtEcHZYUFVWMDRxU2RQUm1OQk5UUDAzcndUOXVUL2szRFZmK3c1NGUvd0RUM1kxMDMvRFdQd1EvNkxKOFAvOEF3cUxIL3dDTzE0bisyUiswajhKUEZId0MxTFR0RytLWGd2VnRRZldkQ2xXMHNmRU5wTkt5UjZ4WnlTTUVXUW5Db2p1eHh3cWtuZ0d2Tm9hVlkrcS9NNjYydE9Yb3p4S2l1US80WEg0Qi93Q2g0OE4vK0RhMy93RGk2UDhBaGNmZ0gvb2VQRGYvQUlOcmYvNHV2MTcyOUwrZGZlajhvOWpWL2xmM00raXYyVS8rU00yLy9ZYzE3LzA4WGxldTE4ei9BTE5QeDYrR1dnL0NhQ3oxUDRpK0U5T3V4ck90U20zdTljdFlwQWo2cmR2RzIxbkJ3eU1yQTl3d0k0TmVwZjhBRFNYd2ovNktuNEsvOEtHMC93RGpsZnoxakl5ZUpxdEw3VC9NL1FZUmZLdEQxajlrci9ranMzL1kxZUtQL1QvcUZleVY0bCt4eHFWbnJQd01qMURUN3FDK3NMdnhMNGxudDdxMmtFa1UwYmE5ZnNyb3lraGxJSUlJT0NEWHR0ZTlENFVlMUhaQlJSUlZsQlJSUlFBVjhyK0hKV0gvQUFVdjhZUmcvSTN3MHNtSTl4ZnRqK1pyNm9yNVY4Ty84cE5mRjMvWk03UC9BTk9Cb0ErcXFLS0tBQ2lpaWdENW0rSUg3S25qNjQrTUhpMzRnL0MvNDJYUHd6di9BQllsbW1zMmt2aG16MWVLYjdKQ0liZnl6TVZNZUFaU2NaM0YrMjBWbmY4QURQSDdUdjhBMGR6L0FPWTEwdjhBK09WOVZVVUFmS3YvQUF6eCswNy9BTkhjL3dEbU5kTC9BUGpsZUZmdG1mc3AvdE1lTC9nMk5KbCtNdHo4WXZ0R3FXcXA0WnR2QmxocFJMYmppWnJtTjh4cW5VbGlGNTVOZm8vUlFCK2V2N0N2dzkvYVkrRHQ5OFJOSjFhODhMK05yYXoxUzN0cit3MXp4SGMyODhWK2RNc0pRNjNLMkZ3MGlyYlNXc08wc0ZCaElVWUFadnJYL2hJL2pmOEE5RTgrSC84QTRYbDkvd0RLYWo0Ti93REpSZmp0L3dCam5iZitvOW8xZXEwQWZML3hZMS80d3Y0OCtERFhmZ1h3UEJjSjR0dUdzMGg4YVhraXpTLzJGcXdLU01kSlV4cjVaa2JjQTUzS2k3UUdMcDZYL3dBSkg4Yi9BUG9ubncvL0FQQzh2djhBNVRVZkdUL2tvdndKL3dDeHp1Zi9BRkh0WnIxV2dENWYvYWIxL3dDTU0zN052eFhqMVB3TDRIczlOZndscXkzVnhhZU5MeWVhS0kyY3U5MGpiU1VEc0Z5UXBkQVNBQ3k1eVBTLytFaitOLzhBMFR6NGYvOEFoZVgzL3dBcHFQMnNmK1RXUGpKLzJKbXMvd0RwRE5YcXRBSGxYL0NSL0cvL0FLSjU4UDhBL3dBTHkrLytVMWVhZnMrYS93REdHTHdIcXE2ZjRGOEQzVnVmRnZpZG1lNThhWGtMQ1U2N2ZtVkFxNlM0S3JJWFZXeUN5cXJGVUxGRitvSzhxL1pwL3dDU2Rhdi9BTmpuNHMvOVNIVWFBRC9oSS9qZi93QkU4K0gvQVA0WGw5LzhwcTgwMERYL0FJd2o5cEx4MUpINEY4RHRxVGVFdkR5ejI3ZU5Md1FwRUx6V3ZMZFpQN0pKWm1ZeWhsS0tGQ0lRejd5RStvSzhxOE9mOG5UL0FCRC9BT3hNOE5mK2wydTBBSC9DUi9HLy9vbm53LzhBL0M4dnYvbE5YbW12Ni84QUdFL3RKZUJaSlBBdmdkZFNYd2w0aFdDM1h4cGVHRjRqZWFMNWp0Si9aSUtzckNJS29SZ3dkeVdUWUEvMUJYbFhpUDhBNU9uK0huL1ltZUpmL1M3UXFBRC9BSVNQNDMvOUU4K0gvd0Q0WGw5LzhwcTgwMERYL2pDUDJrdkhVa2ZnWHdPMnBONFM4UExQYnQ0MHZCQ2tRdk5hOHQxay9za2xtWmpLR1Vvb1VJaERQdklUNmdyeXJ3NS95ZFA4US84QXNUUERYL3BkcnRBQi93QUpIOGIvQVBvbm53Ly9BUEM4dnY4QTVUVlUvWlRrdnB2aExkeWFuYjI5bnFUK0xmRkxYVnZhWERUd3hTbnhCcUc5RWtaRUxxR3lBeFJDUUFTcTV3UFlLOHEvWnAvNUoxcS8vWTUrTFA4QTFJZFJvQTlWb29vb0FLK1ZmRVgvQUNrMThJLzlrenZQL1RnSytxcStXZGRnTXY4QXdVeDhMTUNBSXZoaGR1Yzl4L2FLait0QUgxTlJSUlFBVVVVVUFGRkZGQUJYRmVBTkswWFR2RmZ4S3VOSzFOcisrdjhBeEJEYzZ0YnNNQ3l1aHBXbnhMQ09Ca0dDSzNsNy93Q3VQUFlkclhGZUFIOE90NHIrSlEwV080VFVsOFFRalhETm5hOTcvWldubERIejkzN01iUWNZK1lQOVNBZHJSUlJRQVVVVVVBRkZGRkFCUlJSUUFWbCtKdjhBa0FYL0FQMXlOYWxaZmljNDhQMzVQVHlqV1ZiK0hMMFpuVStCK2g0ZjRTQi9zKzc0L3dDWDY0LzlETlJSQS84QUNkM2ZIL01Qai84QVEycmw3cndyNDV0ZFJ2aHBldFc4RmhKY1BMRkd5OHFHT2NWbXkrRGZpUWRUYStqOFFXcXpORUlUOGgrNkNUL1UxK2JLS2JiNWtmR2NxZlU5WXhYTmVFQWY3VzhXY2Y4QU1VLzlwSlhJL3dEQ05mRkQvb1lyVC92ZzFUc2ZCSHhKMCthOWxoOFEyb2U4bTgrWEtIbDlvWFA1QVVLQ3MvZVFLQ3R1ZXI2bHhwdDV4L3l3ay84QVFUVkR3ZUQvQU1Jbm8zSC9BQzZSL3dBcTRDYndyOFRwNFpJbjhSV3V4MUtuNUQwSXdhanNmQi94TDA2eXQ3V0h4RGFpR0JCR2cySG9PbExrVnJjeURsVnJYUjNIajNJOFBBNC81ZTdmL3dCR0N1allIY2E4ZzFQd1Q4U3RXdGZzOC9pRzFNZTlaTUJEMVU1Rld6NGIrS0dmK1JpdGYrK0RSeUszeElPVld0YzdpN0IvNFRYVE9QOEFseW4vQVBRMHJiZGhHcFp1RkhVMTVQSDROK0pEYWxGZXkrSUxVeXhSdEV2eUhveEJQOGhWOVBEZnhCbGtqUzYxeTJrdGl3ODFBcHlWenlLSEJmeklIRmR6NmE4SGY4aTdiZjcwbi9veHEycXhmQnd4NGR0Z096U2YrakdyYXI5SXcvOEFCaDZMOGo3S2wvRGo2SUtLS0szTlFvb29vQUtLS0tBQ2lpaWdBb29vb0FLS0tLQVBuL1Y5UzhjYWYrMVA0MS80UTN3OTRmMTdmNE04Ty9hLzdkMTZmVFBLeGZhNXM4dnlySzU4ek9Yem5adDJyamR1TzNxLytFaitOLzhBMFR6NGYvOEFoZVgzL3dBcHFQRG4vSjAveEQvN0V6dzEvd0NsMnUxNnJRQjVWL3drZnh2L0FPaWVmRC8vQU1MeSsvOEFsTldUK3psYzY1ZCtLUGpaTDRrMDdUOUsxcHZHY1AyaXowdS9lK3Q0L3dEaVFhT0YyVFBEQ3o1WGFUbU5jRWtjZ2JqN1hYbFh3Yi81S0w4ZHYreHp0djhBMUh0R29BOVZvb29vQTRyNElUZUhibjRMK0FaZkNFRnhhK0U1UEQrbnZvOEYyU1pvN0kyMFpnVnlTVHVFZXdIazhnOG11MXJpdmdocjJtZUtmZ3Y0QjFyUmRJajhQNk5xWGgvVDd5eTBpRWdwWXdTVzBieHdMZ0FZUlNGR0FCOHZRVjJ0QUJYQWZHbndmQjQyOExXdGpjZkQzdzM4U2tqdlVtR2srS0hqVzJpSVJ4NTZtU0NZYnh1Mmo1UWNTTnlPaDcrdm5UOXJPUHhScTExNE44TzJPZytHdGQwZlhkV2hzYlNIVmRYdjlQblcvd0RLdVpYWXlXMkFJbHQ0cFd3V3l6RGFGSkswQVZmMlh2QkZ0NEcrTC94YnRvZkFmaHI0WnlUMitqVEh3OTRjZEpvNUUyM1lXOTh4SVlncXlFUEVJUW9DdGF5dmpNcFp2cFd2bmo5bDNSSi9BbmpMNGhlRHRTOEtlR1BEZXIyTWVtNmc5eDRldmJxOWUvZ25Gd3NjazgxeVBNSlZyZVpGVmlTTnJIQURLVDlEMEFGZmd0NEcvd0NSSjhQL0FQWVB0LzhBMFd0ZnZUWDRMZUJ2K1JKOFAvOEFZUHQvL1JhMTZHRCtKbkhpZGtiZGZabi9BQVM2L3dDUjIrTC9BUDJEOUIvOUdhcFh4blgyWi93UzYvNUhiNHYvQVBZUDBILzBacWxkV0svaG1ORDR6OUFxOEUvYmsvNU53MVgvQUxEbmg3LzA5Mk5lOTE0SiszSi95Ymhxdi9ZYzhQZitudXhyektIOFdIcXZ6T3l0L0NsNk0rVEtLS0svWkQ4aVBXLzJVLzhBa2pOdi93Qmh6WHYvQUU4WGxldTE1Rit5bi95Um0zLzdEbXZmK25pOHIxMnY1eHh2KzlWZjhUL05uNkxENFVhWDdKWC9BQ1IyYi9zYXZGSC9BS2Y5UXIyU3ZHLzJTdjhBa2pzMy9ZMWVLUDhBMC82aFhzbGZRUStGSHVSMlFVVVVWWlFVVVVVQUZmS3ZoMy9sSnI0dS93Q3laMmYvQUtjRFgxVlh5cjRkL3dDVW12aTcvc21kbi82Y0RRQjlWVVVVVUFGRkZGQUJSUlJRQVVVVVVBZk92aEQ0My9EcjRhL0ZyNDQ2WjR1OGZlRi9DdXBTK0xiVzVqczliMW0yczVuaVBoL1NGRWdTUjFKVXNqamRqR1ZJN0d1MS93Q0dzZmdoL3dCRmsrSC9BUDRWRmovOGRyNU4rSi8vQUNjWDhaTWRmN2Vzdi9USHBsWk9UN2p0WHBVOEg3U0NsemIrUnh6eEhKSnhzZSsvRmo5cHY0UGFqNDgrREZ4YWZGZndQZFc5aDR0dUxtOGxoOFIyYnJiUkhRdFdpRWtoRW1FVXlTeHB1T0J1a1FkV0FQcGYvRFdQd1EvNkxKOFAvd0R3cUxIL0FPTzE4RGVPc254UjhPdW96cnN2L3BydjY3SEo5eDJxbGdiMzk3OFArQ1M4VDVIdnY3VGY3VGZ3ZTEvOW0zNHI2WnBueFg4RDZqcVY3NFMxYTJ0Yk8wOFIyY3MwOHIyY3FwR2lMSVN6TXhBQ2dFa2tBVjZYL3dBTlkvQkQvb3Nudy84QS9Db3NmL2p0ZkF2eG1PZmc5NDYvN0FOOXgvMjd2WFpFa1o1L09qNmpyYm0vRC9naDlaMHZZK3lQK0dzZmdoLzBXVDRmL3dEaFVXUC9BTWRyelQ5bno5cHY0UGFMNEQxVzMxRDRyK0I3QzRmeGI0bnVWaXVmRWRuR3pSUzY3Znl4U0FOSUNWZU4wZFc2TXJLUmtFR3ZBc242ZTFjZDhLTWp3dmU5ZitROXJYL3AwdXFQcU90dWI4UCtDSDFuUzlqNzUvNGF4K0NIL1JaUGgvOEErRlJZL3dEeDJ2Tk5BL2FiK0QwUDdTWGpyVTVQaXY0SFRUYm53bDRldG9MeHZFZG1JWlpZN3pXbWtqVi9Nd3pJczBSWlFjZ1NJVGpjTStCWlByK05jZHBaejhZUEUvSjUwTFNmVC9uNDFHaDRHMXZlL0QvZ2dzVGZvZmZQL0RXUHdRLzZMSjhQL3dEd3FMSC9BT08xNXByL0FPMDM4SHB2Mmt2QXVweC9GZndPK20yM2hMeERiVDNpK0k3TXd4U3lYbWl0SEd6K1poV2RZWlNxazVJamNqTzA0OEN5Zng5SzQ3VkQvd0FYZzhNYzUvNGtPcllQci9wR25VUEEyKzErSC9CQlltL1ErK2YrR3NmZ2gvMFdUNGYvQVBoVVdQOEE4ZHJ6VFFQMm0vZzlEKzBsNDYxT1Q0citCMDAyNThKZUhyYUM4YnhIWmlHV1dPODFwcEkxZnpNTXlMTkVXVUhJRWlFNDNEUGdXU1AvQUs5Y2RwWFB4ZzhUNHoveUFkSi85S05Sb2VCdGIzdncvd0NDQ3hOK2g5OC84TlkvQkQvb3Nudy8vd0RDb3NmL0FJN1ZUOWxQVnJIWC9oTGQ2bnBsN2I2anB0NzR0OFUzTnJlV2txeXd6eFA0ZzFCa2tSMUpES3lrRU1DUVFRUlh5RnVQK2ZYMHI2ay9ZZjhBK1RkZE4vN0QzaUwvQU5QbDlYUFh3L3NVbmU1dFNyZTBiVmozbWlpaXVNNkFyNWQxU1ZUL0FNRk1kQ2pCK2RmaFhjc1I3SFZFeC9JMTlSVjhxNmovQU1wUWRJLzdKTk4vNmRoUUI5VlVVVVVBRkZGRkFCUlJSUUFWeFhnRFc5SzFYeFg4U3JYVHRKWFRyelRQRUVOcHFWeXBCTi9jSFN0UG1XYys0aG1naTUvNTRpdTFya1BCSGlHODFyeE44UWJPNjBwTlBnMGpYSXJLMXVGalpUZlJOcHRqT1ptSjRZaDU1SXNqakVJSFVHZ0RyNktLS0FDaWlpZ0Fvb29vQUtLS0tBQ3NyeFVNK0hkUS93Q3VMZGExYWJKR2swYkpJcXVqREJWaGtFZTRxSng1NHVQY21TNWswZU11RjN0KzhqNi8zeC9qVGNML0FNOUkvd0R2NFA4QUd2WFA3QzAzL29IMnYvZmxmOEtQN0MwMy9vSDJ2L2ZsZjhLK1cvc0ovd0RQejhQK0NlRi9aZjhBZi9EL0FJSjVIaGYrZWtmL0FIOEgrTkdGL3dDZWtmOEEzOEgrTmV1ZjJGcHYvUVB0ZisvSy93Q0ZIOWhhYi8wRDdYL3Z5djhBaFIvWVQvNStmaC93US9zdisvOEFoL3dUeVBDLzg5SS8rL2cveG93di9QU1AvdjRQOGE5Yy9zTFRmK2dmYS84QWZsZjhLUDdDMDMvb0gydi9BSDVYL0NqK3duL3o4L0QvQUlJZjJYL2YvRC9nbmtlRi93Q2VrZjhBMzhIK05HRi81NlIvOS9CL2pYcm45aGFiL3dCQSsxLzc4ci9oUi9ZV20vOEFRUHRmKy9LLzRVZjJFLzhBbjUrSC9CRCt5LzcvQU9IL0FBVHlQQy84OUkvKy9nL3hvd3YvQUQwai93Qy9nL3hyMXord3ROLzZCOXIvQU4rVi93QUtQN0MwMy9vSDJ2OEEzNVgvQUFvL3NKLzgvUHcvNElmMlgvZi9BQS80SlQ4SEhQaDYySTVHNlRuL0FMYU5XMVRJb2tnaldPTkZqalhnS2d3QitGUHI2aW5Ea2dvZGxZOXlFZVdLajJDaWlpdEN3b29vb0FLS0tLQUNpaWlnQW9vb29BS0tLS0FQS3ZEbi9KMC94RC83RXp3MS93Q2wydTE2clhsWGh6L2s2ZjRoL3dEWW1lR3YvUzdYYTlWb0FLOHErRGYvQUNVWDQ3ZjlqbmJmK285bzFlcTE1VjhHL3dEa292eDIvd0N4enR2L0FGSHRHb0E5Vm9vb29BNUw0UStJTlI4Vy9DYndWcm1zYVd1aWF2cWVpV1Y3ZWFZa1RSQ3pta2dSNUlRamZNb1JtSzdUeU1ZTmRiWEtmQ2U0OFNYZndzOEd6K01vL0o4WVM2TFpQclVlMUYyWHhnUTNBd255akVtL2hlUFRpdXJvQUs4Yy9hdWgwNjQrRTBxYXYvd2lSMDAzc1BtcjR3dFo3bTNZODdCREhBUktiamZzMmJQbSs5Z1pyMk92Ti9pdFphWmVlTnZnOGRRdkh0cDRmRmMwdGxBdHQ1cTNVNDBYVkI1Yk51SGxnSVpKQStHK2FKVndOMjVRRHhIOWxDTFVyalQydnZodnFId3N1ZkM5MWZ3emEzTG85bHFZMUNjTXF0dWQ3aVl5RnpFUVVhVUVFRUVaQnI2MnI1Yi9BR0hiSFNyUFROU2doOFZueFJxdWw2Rm9tZ3hTeDZITHBOdStrMmkzTWRoY3hKSzd0T0ppYm9tY050Y3BoVlVJSytwS0FDdndXOERmOGlUNGYvN0I5djhBK2kxcjk2YS9uKzhHK0tySzM4SWFIRThHcEZvN0dCU1k5THVYVWtScU9HRVpCSHVEZzEzNFJwU2R6a3hDYlNzZG5YMlovd0FFdXY4QWtkdmkvd0Q5Zy9RZi9SbXFWOE1mOEpoWWY4KytxLzhBZ291Ly9qVmZXWC9CT1A0dTZGNFA4WC9GT1cvc1BGRTYzVmpvaXhqUy9DZXE2Z3lsSk5STGIxdDdhUXhqNXhndUFHdzIzTzFzZE9La25UMFpqUVRVejlONjhFL2JrLzVOdzFYL0FMRG5oNy8wOTJOZE4vdzB0NFIvNkJIeEEvOEFEY2VJZi9rR3ZFLzJ5UGozNFo4UmZBTFVyRzEwenhwRk0yczZGSUd2dkF1dDJrV0UxaXpkc3l6V2FvQ1FwQ3FUbG13cWdzd0I4MmhwVmo2cjh6cnJhMDVlalBFcUs1RC9BSVdwb3Y4QXo1ZUpQL0NZMVA4QStSNlArRnFhTC96NWVKUC9BQW1OVC84QWtldjE3MjlMK2RmZWo4bzlqVi9sZjNNK2l2MlUvd0Rrak52L0FOaHpYdjhBMDhYbGV1MTh6L3MwL0dqdy9vM3dtZ3RialQvRmtrbzFuV3BOMXA0TzFlNWp3K3EzYmo1NDdWbHpoZ0N1Y3FjcXdEQWdlcGY4TDg4TS93RFFNOGEvK0VKcm4veUhYODlZeU1uaWFyUyswL3pQMEdFWHlyUTlZL1pLL3dDU096ZjlqVjRvL3dEVC9xRmV5VjRsK3h4cUVXcmZBeU8rZ1dkSWJueEw0bG1SYm1CNEpRcmE5ZmtCNDVBcm8yRHlyQU1Ed1FDTVY3Ylh2UStGSHRSMlFVVVVWWlFVVVVVQUZmS3ZoMy9sSnI0dS93Q3laMmYvQUtjRFgxVlh5cjRkL3dDVW12aTcvc21kbi82Y0RRQjlWVVVVVUFGRkZGQUJSUlJRQVVVVVVBZm52OFVQK1RpdmpKLzJIckwvQU5NbW1WbGYvWDRGVnZqZDhRZkMvaFA5cGY0dzJtdCtKTkkwYTdmV3JHVllMKy9pZ2taRG91bWdNRmRnU0NWWVo5alhMZjhBQzUvaC93RDlEMTRhOVA4QWtNVy8vd0FYWDBOQ1VWU2pkbmsxWXR6ZWdlT3NmOEpQOE8rbi9JZGw3ZGYrSlhmMTJYOFdQZXZJdkdmeGI4RDNYaUx3SExENHo4UHl4MjJ0U3pUdW1xUU1zU0hUcjFBekVQd056b3VUeGxsSFVpdXIvd0NGei9ENGNmOEFDZGVHZ1A4QXNMMi8vd0FYV3FuRzcxL3F4bTR1eTBENHpIUHdlOGMvOWdHKzcvOEFUdkpYWW5qbmp2MnJ5UDRzL0Zyd1BxWHdyOFoybHA0ejhQM1YzY2FMZXhSUVE2ckE4a2p0QTRWVlVQa2tuQUFISnJxLytGei9BQSt6L3dBajE0YTUvd0NvdmJqL0FObm81NDh6MS9yVU9WMjJPeFBmbmdjZGZhdU8rRlAvQUNLOTkvMkhkWnovQU9EUzZvLzRYUDhBRC84QTZIcncxLzRON2Y4QStMcmxQaHA4V3ZBMWg0ZHZJN3J4bjRmdDVUcldyU2hKZFVnVmlqNmpjdWpZTDhobFpXQjdnZ2pnaWh6anpMWCt0QTVYYlk5Y0ovclhIYVgvQU1sZzhUOS8rSkRwWEhYL0FKZU5Tb0h4bitIMy9ROWVHdjhBd2NXLy93QVhYS2FiOFd2QThmeFU4UTNiZU0vRDR0Wk5GMHlLT2M2ckFFZDBudnk2cTIvQklEb1NNNUFkYzlSUTV4dXRRVVhaNkhybnFBZXRjZnFuUHhoOE1rZDlDMWJwL3dCZkduVW4vQzUvaCtPdmpydzBmKzR2Ym4vMmV1VTFMNHRlQm4rS25oMjdIalB3KzFyRm91cHhTVGpWSURHanRQWUZGTGI4QWtJNUE3N0dQWTBTbkcyL2I4d1VYZlk5Y0hUampqdC8rcXVQMHNmOFhoOFQrdjhBWVdsWTcvOEFMeHFWSi93dWY0ZjhmOFYxNGF6L0FOaGkzLzhBaS8xcmxOTitMWGdaUGlwNGh1ejR6OFByYXk2THBrVWR3MnFRQkdkSjc4dW9PL0JJRG9TQnlBNitvb2M0M1d2OVdCUmRub2V1L1hwNzE5U2ZzUDhBL0p1dW0vOEFZZThSZitueStyNG1uK05mdy9oZ2trWHh0NGRsS0tXRWNlclc1WnNEb0J2NUpyeS80ZGY4Rkt2SFhnbTY4QS9EN3doNFdhTHcrM2l1NHU3bWFHSmJyVWRidHJuV1pwMnQ3WlQrNlFzc3JRNVV1U3d5SFh0NStOa25HS1RPdkRKcHU1KzBWRmZLMy9EWmZqNlVsWVAyWWZpYXpmdytkRmJ4Zy9VbCtLUCtHdVBpeE1tNjMvWmE4YnR6Z2lmVWJTTDhzbm12Sk84K3FhK1hMbUZaZitDbmRrelp6SDhJWldYSHIvYktEK1JOTkg3VC93QWM1cGdzSDdLbmlGbEl5R204VTZmRjI3NTRINTF5M3d1SHhzOGFmdHI2VjhTL0Zmd1J1UEF2aG1Ud2RQNFR1cmlieE5ZM2h0ajlwTjRrK3lNaDNETWlRN1ZYamZ1TFlVaWdEN09vb29vQUtLS0tBQ2lpaWdBcmxQQnQ1NGp1ZkVmanVQVzRQSzB5MzFxT0xRbjJLdm0yUjA2emQyeU9UL3BUM2E1UFB5NDZBVjFkY3A0TjB2eEJZZUkvSGMrczNmMm5UcjdXbzdqUkkvTTNmWjdNYWRaeHNtTWZMbTVqdW54ejkvUGVnRHE2S0tLQUNpaWlnQW9vb29BS0tLS0FDaWlpZ0Fvb29vQUtLS0tBQ2lpaWdBb29vb0FLS0tLQUNpaWlnQW9vb29BS0tLS0FDaWlpZ0Fvb29vQUtLS0tBQ2lpaWdEeFRYN254WDRHK1B2aVh4SllmRHJ4QjR6MFhXUERPamFmRmM2RmQ2Wkg1TTlyZGFwSktraTNkNUEzM2J5RWdxR0J5M0lJclcvNFhKNHUvNklUOFFQOEF3TzhQZi9MV3ZWYUtBUEt2K0Z5ZUx2OEFvaFB4QS84QUE3dzkvd0RMV2o0RjZmci9BUGEzeFAxN1h2REdvZUV2K0VpOFRSNmhaYWRxazlwTGNlUW1rYWRhRjNOclBOR015MnN1QnZKd0FTQm12VmFLQUNpaWlnRGxQaFBwR3Y4QWg3NFdlRGRMOFYzdjlwZUtMSFJiSzIxYTk4MHkvYUx4SUVXZVRlUUMyNlFNZHhBSnptdXJyalBndDRjVHdmOEFCendKb01Xc1ErSVk5TDBHd3NWMWUzT1k3NFJXNklKME9XeXI3ZHc1UERkVDFyczZBQ3VWK0kzd3c4Ti9GblFJOUc4VVdFbDlZeHpyY3hlUmRUV3MwVW9WbERwTEM2U0lkcnVwMnNNcTdLY2drSHFxS0FNTFF2QTJnK0dOUWE5MG5TNE5QdUcwNjAwak1BS3FMUzFNeHQ0UXYzVlZEY1RZd0I5LzJHTjJpaWdBcjhGdkEzL0lrK0gvQVBzSDIvOEE2TFd2M3ByOEZ2QTMvSWsrSC84QXNIMi8vb3RhOURCL0V6anhPeU51dnN6L0FJSmRmOGp0OFgvK3dmb1Avb3pWSytNNit6UCtDWFgvQUNPM3hmOEErd2ZvUC9velZLNnNWL0RNYUh4bjZCVjRKKzNKL3dBbTRhci9BTmh6dzkvNmU3R3ZlNjhFL2JrLzVOdzFYL3NPZUh2L0FFOTJOZVpRL2l3OVYrWjJWdjRVdlJueVpSUlJYN0lma1I2Myt5bi9BTWtadC84QXNPYTkvd0NuaThyMTJ2SXYyVS8rU00yLy9ZYzE3LzA4WGxldTEvT09OLzNxci9pZjVzL1JZZkNqUy9aSy93Q1NPemY5alY0by93RFQvcUZleVY0Myt5Vi95UjJiL3NhdkZIL3Avd0JRcjJTdm9JZkNqM0k3SUtLS0tzb0tLS0tBQ3ZsWHc3L3lrMThYZjlrenMvOEEwNEd2cXF2bFh3Ny9BTXBOZkYzL0FHVE96LzhBVGdhQVBxcWlpaWdBb29vb0FLS0tLQUNpaWlnRDgrUGlmL3ljWDhaTWRmN2VzdjhBMHg2WldUays0N1ZxL0ZEL0FKT0srTW4vQUdIckwvMHlhWldWL3dEWDRGZlI0ZjhBaFJQSHJmeEdjZDQ2eWZGSHc2NmpPdXkvK211L3JzY24zSGF1TjhkWS93Q0VuK0hmVC9rT3k5dXYvRXJ2NjdMK0xIdldzZDMvQUYwTTNzampmak1jL0I3eDEvMkFiN2ovQUxkM3JzaVNNOC9uWEcvR1k1K0Qzam4vQUxBTjkzLzZkNUs3RThjOGQrMU5mRS82N2oreWhjbjZlMWNkOEtNand2ZTlmK1E5clgvcDB1cTdBOStlQngxOXE0NzRVLzhBSXIzMy9ZZDFuUDhBNE5McWsvaVg5ZGhkRHNzbjEvR3VPMHM1K01IaWZrODZGcFBwL3dBL0dvMTJCUDhBV3VPMHYva3NIaWZ2L3dBU0hTdU92L0x4cVZFdDEvWFJqV3pPeXlmeDlLNDdWRC94ZUR3eHpuL2lRNnRnK3Y4QXBHblYySHFBZXRjZnFuUHhoOE1rZDlDMWJwLzE4YWRUbHQ5MzVpanVkamtqL3dDdlhIYVZ6OFlQRStNLzhnSFNmL1NqVWE3QWRPT09PMy82cTQvU3gveGVIeFA2L3dCaGFWanYvd0F2R3BVcGJyK3VqR3RtZGp1UCtmWDByNkMvWk4rSFhoZng3K3p4NFprOFI2QnArdFRhWDRvMTYrc0pyeTNXU1MwbmoxNjlkSkluSXlqQmxCeXBHY1lQRmZQdjE2ZTlmVW43RC84QXlicnB2L1llOFJmK255K3J6OGQ4TVRxd3Z4TTk1b29vcnh6MFFvb29vQUtLS0tBQ2lpaWdBb29vb0FLNDd3TDRkYlJQRkh4RXZEcThXcERXTmRpdmx0bzJ5Mm5oZE1zWVBJY1pPQ1RBWnNjY1RxY2M1UFkxeFVYd3hYVHJqeDFkYVI0ajFqUmI3eGJmUmFsUGQyb3RaSHNwNDdTMnROMXVKWUhYRFIya1dSS3NnenVJeG5nQTdXaXVLZndCcnJlRFk5Rkh4SzhVSnFTemVhZkVhMjJsZmJuWEovZGxEWmZaOXZPTWlFTndQbTY1WFd2QVd1YXI0ZDByVGJYNGtlSjlIdkxNWW4xaXl0dExhNnZ1TVptV1d5ZUVldjdxT1A4QUxpZ0R0S0s0L3dBUStCdGExcTYwbVd6K0lmaVRRSTdKRlNlRFRyZlRIUy9JSUphWXoyY2pBbkdENVJqSEp3QnhpWFVQQnVyM25qSzIxcUh4MzRnc05OaTI3L0RsdkJweHNac0RuYzcyalhBejFPMlplbkdLQU9yb3JsTlA4RzZ2WitNcm5XcHZIZmlDL3dCTmwzYlBEbHhCcHdzWWNqamE2V2kzQngxRzZadXZPYWk4UGVCdGEwVzYxYVc4K0lmaVRYNDcxR1NDRFViZlRFU3dKSklhRXdXY2JFak9CNXBrSEF5RHprQTdDaXVKMGZ3QnJ1bWVITlUweTUrSlhpalZyMjh4NUdzM2x0cFMzVmovQU5jVmlza2hQL2JXT1NqL0FJUURYZjhBaERmN0YvNFdWNG8vdEx6dk4vNFNQN05wWDI3Ym4vVjdQc1gyZmIyejVPNy9BR3FBTzJvcmlkWThBYTdxZmh6UzlNdHZpVjRvMG05czgrZnJObmJhVTExZmY5ZGxsc25oSC9iS09PcHZFUGdiV3RhdXRKbHMvaUg0azBDT3lSVW5nMDYzMHgwdnlDQ1dtTTluSXdKeGcrVVl4eWNBY1lBT3dvcmxOUThHNnZlZU1yYldvZkhmaUN3MDJMYnY4T1c4R25HeG13T2R6dmFOY0RQVTdabDZjWW8wL3dBRzZ2WitNcm5XcHZIZmlDLzAyWGRzOE9YRUduQ3hoeU9OcnBhTGNISFVicG02ODVvQTZ1aXVQOFBlQnRhMFc2MWFXOCtJZmlUWDQ3MUdTQ0RVYmZURVN3SkpJYUV3V2NiRWpPQjVwa0hBeUR6bUhSL0FHdTZaNGMxVFRMbjRsZUtOV3ZiekhrYXplVzJsTGRXUC9YRllySklUL3dCdFk1S0FPMm9yaWY4QWhBTmQvd0NFTi9zWC9oWlhpaiswdk84My9oSS9zMmxmYnR1ZjlYcyt4Zlo5dmJQazd2OEFhbzFqd0JydXArSE5MMHkyK0pYaWpTYjJ6ejUrczJkdHBUWFY5LzEyV1d5ZUVmOEFiS09PZ0R0cUs0L3hENEcxcldyclNaYlA0aCtKTkFqc2tWSjROT3Q5TWRMOGdnbHBqUFp5TUNjWVBsR01jbkFIR0pkVThHNnZmK01MVFdZUEhmaURUZE9nMmVaNGV0WU5PYXh1TVp6dmFTMGU0RzdQT3laZWd4am1nRHE2SzVTejhHNnZiZU5KOWJrOGQrSUx2VEpOMjN3M05CcHdzSXNyZ2JYVzBXNTRQekRkTWVUemtjVkg0ZThFYXpvdXBhcmRYbnhCOFI2OUJlSzZ3V1dvVyttcEZZa3RrTkNZTE9OeVZIQTgxcEJqcUNlYUFPdm9yaXRFOEFhN3BYaC9WdE91dmlWNG8xbTh2VkFnMWE5dHRLVzVzRGpHWVZpc280aWUvd0M5ams2VUo0QTExZkJzbWluNGxlS0gxSnB2TkhpTnJiU3Z0eUxrZnV3Z3N2cyszakdUQ1c1UHpkTUFIYTBWeFdxK0FOZDFId3hwbWxXL3hLOFVhWGZXakV6YTNhVzJsTmQzbzU0bFdTeWVFQVpIK3JpVG9QZk1uaUx3THJldHZwQnMvaUo0bDBBV1VhcE91blcrbU9OUUl4bDV2UHM1TUU0T2ZLOHNmTWNBY1lBT3hvcmxOVThHNnZmK01MVFdZUEhmaURUZE9nMmVaNGV0WU5PYXh1TVp6dmFTMGU0RzdQT3laZWd4am1pejhHNnZiZU5KOWJrOGQrSUx2VEpOMjN3M05CcHdzSXNyZ2JYVzBXNTRQekRkTWVUemtjVUFkWFJYSWVIdkJHczZMcVdxM1Y1OFFmRWV2UVhpdXNGbHFGdnBxUldKTFpEUW1DempjbFJ3UE5hUVk2Z25tb2RFOEFhN3BYaC9WdE91dmlWNG8xbTh2VkFnMWE5dHRLVzVzRGpHWVZpc280aWUvd0M5ams2VUFkclJYRko0QTExZkJzbWluNGxlS0gxSnB2TkhpTnJiU3Z0eUxrZnV3Z3N2cyszakdUQ1c1UHpkTUdxK0FOZDFId3hwbWxXL3hLOFVhWGZXakV6YTNhVzJsTmQzbzU0bFdTeWVFQVpIK3JpVG9QZklCMnRGY2Q0aThDNjNyYjZRYlA0aWVKZEFGbEdxVHJwMXZwampVQ01aZWJ6N09UQk9Ebnl2TEh6SEFIR0p0VThHNnZmK01MVFdZUEhmaURUZE9nMmVaNGV0WU5PYXh1TVp6dmFTMGU0RzdQT3laZWd4am1nRHE2SzVPMThGNnhiK05wZGNrOGUrSWJuVEhMRmZEVXNHbkN3VEs0QURyYUM1NFB6RE01NTY1SEZKNGY4QUJXc2FOcldxWDE1NC93REVXdlcxNHJpSFRkUWcwMUlMRXMyUVlqQmFSeUVxUGxIbXU0eDEzSG1nRHJhSzRyUWZBR3U2Um9lcjJGMzhTdkZHdVhWOG15MzFTL3R0S1c0MDg0STNRaUd5amlKNUIvZXBJTXFPTVpCSWZBR3V4ZURaOUZiNGxlS0p0U2ttRXErSTN0dEtGOUV1Vi9kcWdzaGI3ZUNNdENXK1kvTjB3QWRyUlhGYWw0QTEyKzhLYWJwTUh4SzhVYWRmMnJsNXRldHJiU2plWGcrYjVaVmtzbWdBR1IvcTRrUHlqbnJsM2lQd0hyZXR4YU9sbjhSdkUzaDlyR0lSM0VtblcrbHVkUmI1Zm5uOCt5bENzY0gvQUZJakh6SGpwZ0E3T2l1VTFmd2JxK3BlTHJMV0xmeDM0ZzBuVHJmWjVuaCt6ZzA1cks1MmtrK1kwdG85d053T0RzbVhnREcwNUpMZndicThQamVUWFg4ZCtJSjlMZk9QRE1rR25EVDB5bTNoMXRCYzhINXVaeno2cjh0QUZYNElhYm9XamZCZndEcC9oZlVwTlk4TlduaC9UNE5MMUdZWWU2dEZ0bzFobFlZWEJaQXJIZ2RlZzZWMnRZL2czd25wdmdMd2hvZmhuUm9XdDlIMFd4ZzAyeWhkeTdKQkRHc2NhbGprc1FxZ1pQSnJZb0FLS0tLQUNpaWlnQXI4RnZBMy9JaytILzhBc0gyLy9vdGEvZW12ek44Ti93REJNejRvYVA0ZDB1d20xN3dpMDFyYXhRTzBkNWRGU3lvRkpHYlljWkZkdUZuR0Vuek01YThYSkt5UG1PdnN6L2dsMS95TzN4Zi9BT3dmb1A4QTZNMVNzRC9oMjc4Uy93RG9PZUZQL0F1NS93RGtldmYvQU5qVDlsM3hWK3p2NGk4ZDMvaVBVTkh2WWRldGRNZ3RsMHVhV1JrYTNlOGFRdnZpVEFJdVk4WXowYk9NRFBSaUtzSjA3UlpsUmhLTTd0SDFGWGduN2NuL0FDYmhxdjhBMkhQRDMvcDdzYTk3cjVJL2FxL2FYK0IvaURSTmUrRjNpTDRsZjhJdHJkbnFtbnpYWi9zRyt2UEplMHZiZTc4djVJd3JidkpDWkQ0Ry9QT01Ia3cxT2M2c2VTTGRtbm9tK3ZrZEZlU1ZPU2J0ZE04SW9yMWp3TDhFOUorTW5nNjM4VC9EYnh4WitKdElsbmt0emNYbW4zRmdBeWNNQUhVc1NENnFCNkUxcy84QURJWGpIL29KYUgvMy9tLytOVittL3dCcDROT3pxV2ZuZFA3bWo4MmVXWXYvQUo5dCtsbitSay9zcC84QUpHYmYvc09hOS82ZUx5dlhhby9CVDludnhGOE4vaC9Gb1dwM3VsejNhNmxxZDRYdEpaR2oyWEYvY1hFWXkwYW5JU1pRZU9vT0NSeWU2LzRWcnFmL0FEM3RQKysyL3dEaWEvQzhYUXFUeEZTVVkzVGsvd0F6N2lGR29vcE5HTCt5Vi95UjJiL3NhdkZIL3AvMUN2Wks0RDRIZUFOUStHZmdLVFJOVW10cDd0dGExblVnOW96TW5sM2VwM1YzRU1zcW5jSTUwRERHQXdZQWtZSjcrdmJnclJTUFhXeUNpaWlxR0ZGRkZBQlh5eG9NTFJmOEZNdkZUTjBrK0dOb3kvVCswV0g4d2ErcDYrVmRPSi80ZWdhd004SDRUUW5IL2NXTkFIMVZSUlJRQVVVVVVBRkZGRkFCUlJSUUIrYlB4dStJUGhmd24rMHY4WWJUVy9FbWthTmR2clZqS3NGL2Z4UVNNaDBYVFFHQ3V3SkJLc00reHJsditGei9BQS8vQU9oNjhOZW4vSVl0L3dENHV2MVBvcnZoaTVRaW9wYkhMTERxVW5LNStRdmpQNHQrQjdyeEY0RGxoOForSDVZN2JXcFpwM1RWSUdXSkRwMTZnWmlINEc1MFhKNHl5anFSWFYvOExuK0h3NC80VHJ3MEIvMkY3ZjhBK0xyOVQ2S3RZMlN2b1Q5V1hjL0lYNHMvRnJ3UHFYd3I4WjJscDR6OFAzVjNjYUxleFJRUTZyQThranRBNFZWVVBra25BQUhKcnEvK0Z6L0Q3UDhBeVBYaHJuL3FMMjQvOW5yOVQ2S1Byc3Izc0gxWld0Yy9MRC9oYy93Ly93Q2g2OE5mK0RlMy93RGk2NVQ0YWZGcndOWWVIYnlPNjhaK0g3ZVU2MXEwb1NYVklGWW8rbzNMbzJDL0laV1ZnZTRJSTRJcjllcUtQcnNyM3NIMVpXdGMvTEFmR2Y0ZmY5RDE0YS84SEZ2L0FQRjF5bW0vRnJ3UEg4VlBFTjIzalB3K0xXVFJkTWlqbk9xd0JIZEo3OHVxdHZ3U0E2RWpPUUhYUFVWOW9mczhmOG4yZnRjLzl5ai9BT211U3ZxcWg0MlR0b0N3eVhVL0xEL2hjL3cvSFh4MTRhUC9BSEY3Yy84QXM5Y3BxWHhhOERQOFZQRHQyUEdmaDlyV0xSZFRpa25HcVFHTkhhZXdLS1czNEJJUnlCMzJNZXhyOWVxS0hqWlA3SUxESmRUOHNQOEFoYy93L3dDUCtLNjhOWi83REZ2L0FQRi9yWEthYjhXdkF5ZkZUeERkbnhuNGZXMWwwWFRJbzdodFVnQ002VDM1ZFFkK0NRSFFrRGtCMTlSWDY5VVVQR3lkdEFXR1M2bjVZZjhBQzUvaDkvMFBYaHJqcC94Tjdmai9BTWZyN1EvWVR2YmZVdjJhZEd1N1NlSzZ0TGpXdkVFc004TGgwa1J0YnZpckt3NElJSUlJNjVyMytpc0sySWRaSk5HdE9rcWJ1bUZGRkZjaHVGRkZGQUJSUlJRQVVVVVVBRkZGRkFCUlJSUUFVVVVVQUZGRkZBQlJSUlFBVVVVVUFGRkZGQUJSUlJRQVVVVVVBRkZGRkFCUlJSUUFVVVVVQUZGRkZBQlJSUlFBVVVVVUFGRkZGQUJSUlJRQVVVVVVBRkZGRkFCUlJSUUFVVVVVQUZGRkZBQlJSUlFBVVVVVUFGRkZGQUJSUlJRQVVVVVVBRmZneCsyLy93QW5aZkU3L3NMTi93Q2dMWDd6MStESDdiLy9BQ2RsOFR2K3dzMy9BS0F0ZlVjUC93QWVmcCtxUEl6TCtISDFQMHMvNEpaLzhtbTZmLzJGcjMvME1WOWQxOGlmOEVzLytUVGRQLzdDMTcvNkdLK3U2OGZNUDk3cStyTzdEZndZZWdVVVVWNTUwaFJSUlFBVVVVVUFGRkZGQUJYeXJwMy9BQ2xCMWY4QTdKTkQvd0NuWTE5VlY4cTZkL3lsQjFmL0FMSk5ELzZkalFCOVZVVVVVQUZGRkZBQlJSUlFBVVVVVUFGRkZGQUJSUlJRQVVVVVVBRkZGRkFIeXIrengveWZaKzF6L3dCeWovNmE1SytxcStWZjJlUCtUN1AydWY4QXVVZi9BRTF5VjlWVUFGRkZGQUJSUlJRQVVVVVVBRkZGRkFCUlJSUUFVVVVVQUZGRkZBQlJSUlFBVVVVVUFGRkZGQUJSUlJRQVVVVVVBRkZGRkFCUlJSUUFVVVVVQUZGRkZBQlJSUlFBVVVVVUFGRkZGQUJSUlJRQVVVVVVBRkZGRkFCUlJSUUFVVVVVQUZGRkZBQlJSUlFBVVVVVUFGRkZGQUJSUlJRQVVVVVVBRkZGRkFCUlJSUUFVVVVVQUZGRkZBQlg0TWZ0di84QUoyWHhPLzdDemY4QW9DMSs1SGp2d0pvUHhNOEo2bDRhOFM2YkRxMmk2aEVZcmkxbUhERHFDRDFWZ2NFTU1FRUFnNUZmaTMrMWoreEw0cS9aNThmMnRucE5yZWVKUEMydDNJZzBXK2dpTWtyeXNmbHRaRlVmNjdzTUREZ1pIOFNyOVJrTXFjSzB1YVZwTmJmOEg5RHlNeFU1UVZsb2ZvUi93U3ovQU9UVGRQOEErd3RlL3dEb1lyNjdyNDIvWVQvWVRzL2dGcHR2NHg4WTI4Tjk4UTd1TE1jUnc4ZWtSc09ZMFBReWtIRE9PbktyeGt0OWsxNCtZU3B5eE01VTVYVGY5ZjhBRG5kaGxKVW9xU3NGRkZGZWVkSVVVVVVBRkZGRkFCUlJSUUFWOHE2ZC93QXBRZFgvQU95VFEvOEFwMk5mVlZmT254ai9BR01ySDR3L0dQOEE0V0VQaVI0NDhDNmovWXNXaW4vaEN0U1hUcG5qU2FTWDVwdGpFb1RKeW1NWlJEbmlnRDZMb3I1Vi93Q0dCZjhBcTQzOW9EL3d1ZjhBN1JSL3d3TC9BTlhHL3RBZitGei9BUGFLQVBxcWl2bFgvaGdYL3E0MzlvRC9BTUxuL3dDMFVmOEFEQXYvQUZjYiswQi80WFAvQU5vb0ErcXFLK1ZmK0dCZityamYyZ1AvQUF1Zi90RkgvREF2L1Z4djdRSC9BSVhQL3dCb29BK3FxSytWZitHQmYrcmpmMmdQL0M1LyswVWY4TUMvOVhHL3RBZitGei85b29BK3FxSytWZjhBaGdYL0FLdU4vYUEvOExuL0FPMFVmOE1DL3dEVnh2N1FIL2hjL3dEMmlnRDZxb3I1Vi80WUYvNnVOL2FBL3dEQzUvOEF0RkgvQUF3TC93QlhHL3RBZitGei93RGFLQVBxcWl2bFgvaGdYL3E0MzlvRC93QUxuLzdSUi93d0wvMWNiKzBCL3dDRnovOEFhS0FQcXFpdmxYL2hnWC9xNDM5b0Qvd3VmL3RGSC9EQXYvVnh2N1FIL2hjLy9hS0FEOW5qL2srejlybi9BTGxIL3dCTmNsZlZWZU0vcysvc3VhQit6eHFuaTdWdFA4VCtMUEdPdStLbnRXMVBXUEdHcGkvdTVSYkk2UXI1Z2pUaFZkaHprNHdNNEFBOW1vQUtLS0tBQ2lpaWdBb29vb0FLS0tLQUNpaWlnQW9vb29BS0tLS0FDaWlpZ0Fvb29vQUtLS0tBQ2lpaWdBb29vb0FLS0tLQUNpaWlnQW9vb29BS0tLS0FDaWlpZ0Fvb29vQUtLS0tBQ2lpaWdBb29vb0FLS0tLQUNpaWlnQW9vb29BS0tLS0FDaWlpZ0Fvb29vQUtLS0tBQ2lpaWdBb29vb0FLS0tLQVBLdjJtWHVQK0ZYVzl2YjMrb2FaOXU4VGVHOVBtdU5MdnBySzQ4aTQxdXhnbVJKb1dTUk44VWpvU2pBNFk4MGY4TTArRWY4QW9ML0VEL3c0L2lIL0FPVHFQMmx2K1NkYVIvMk9maFAvQU5TSFRxOVZvQThxL3dDR2FmQ1AvUVgrSUgvaHgvRVAvd0FuVWY4QUROUGhIL29ML0VEL0FNT1A0aC8rVHE5Vm9vQThxLzRacDhJLzlCZjRnZjhBaHgvRVAveWRSL3d6VDRSLzZDL3hBLzhBRGorSWYvazZ1NDhkZU45RStHM2hEVnZFL2lPK1RUZEUwdUJyaTZ1WEJPeFI2QVpMTVNRQW9CSkpBSEpyeEg0UmZGMzRyZnRHNlFmRi9oalRmRC93NzhDWERTSnBUK0o3Q2ZWTlMxSlZjZ1hCaWh1TGRJSTJIQVhmSWR5TVFTcFZqdkNqS2NYVTJpdXIvclg1R2NwcUw1ZXAyMy9ETlBoSC9vTC9BQkEvOE9QNGgvOEFrNm1TZnN4K0RadG5tYXA0OWsyTUdYZDhSZkVKMmtkQ1A5TzYxNDU4ZXYya2ZpOThHL2hEb3V2emFWNFh0dkY5L3dDSlg4T3c2TFBZM004Vi9nc2lYRVRDNGphTkhNTXNnREszeXpSTG5JM3ZxNkorMFA4QUViVHYydHRMK0VPb0o0WThjNmRMcFJ2ZFcxTHd6cDF6WlM2SklRN0tMZ1NYTTZCY0tnQUpWajU2SGpnUDBMQjFISG5UWFhyMjNNL2J4dnl2eS9FOVIvNFpwOEkvOUJmNGdmOEFoeC9FUC95ZFIvd3pUNFIvNkMveEEvOEFEaitJZi9rNnZKZkQvd0FiUGpINCsvYUgrS1B3NThOYWw0RUZoNFB0bzVvdFZ1OUN2WEVzOHFxMGRyTHR2aHRJeTZ0SXVlWWlSSHp0RzE4RmYybi9BQlI4ZWZoaDQwVFEvRFduNlg4VS9ERjZ1alhPblh0dzAybWk2TENQenk2WWZ5QVJLeFVaWUNNZ0ZqZ21aWVNwRmMyblMvbGZhNEt2RnUzcitHNTZCL3d6VDRSLzZDL3hBLzhBRGorSWYvazZqL2htbndqL0FOQmY0Z2YrSEg4US93RHlkWGkvdzcrT3Z4cytLWHhoK0t2Z2pRTlE4Q1MyM2daVmdHc1QrSEx4RXZiMWdRSUNnMUUrVU42U3FYM09RRXp0NXdQcWJ3aEpyVTNoVFJwUEVrZHJGNGhlemliVVk3RlNzQ1hCUUdSWXdXWTdRMlFNc2VCMU5aMXFFcU9rbXI2ZmlybHdxS3BzamdmK0dhZkNQL1FYK0lIL0FJY2Z4RC84blVmOE0wK0VmK2d2OFFQL0FBNC9pSC81T3IxV2l1WTFQQ3RFOEZXM3cxL2FTOEphWm8yc2VLSjlOMVh3bHJ0emQyZXQrS05TMWFGNVlMelIxaGtDWGR4S0VaVnVKaHVVQTRrSU9hOTFyeXJ4SC95ZFA4UFAreE04Uy84QXBkb1ZlcTBBRkZGRkFCUlJSUUFVVVVVQUZGRkZBQlJSUlFBVVVVVUFGRkZGQUJSUlJRQVVVVVVBRkZGRkFCUlJSUUFVVVVVQUZGRkZBQlJSUlFBVVVVVUFGRkZGQUJSUlJRQVVVVVVBRkZGRkFCUlJSUUFVVVVVQUZGRkZBQlJSUlFBVVVVVUFGRkZGQUJSUlJRQVVVVVVBRkZGRkFCUlJSUUFVVVVVQUZGRkZBQlJSUlFBVVVVVUFGRkZGQUJSUlJRQVVVVVVBRkZGRkFCUlJSUUFVVVVVQUZGRkZBQlJSUlFBVVVVVUFlVmZ0TGY4QUpPdEkvd0N4ejhKLytwRHAxZXExNVYrMHQveVRyU1AreHo4Si93RHFRNmRYcXRBQlJSUlFCNHIrMlI4SHRXK08zN092aXZ3am9EcU5iblNHNXM0cEpBaVR5UXlwS0lpVHdONFFxQ1NBR0tra0FHdm1yNHJlTHZHdXBmc2plQ1BCZmdid2Q4VGZDZnhMMG43RHBFbHZwbW1hdFpwWkNGZkttbU56YnFJSjRXOHZnbDM0bERiUVFTUHYraXUraGkzU2pHTGpkSjNYcjUrUnoxS1BPMjA3WFZqNEUrTy9oai9oSXZqZDhGUEJWOTRhOGQrS3ZodDRJa3Vielg5YjFUdzVxK3J4MzkwY2tJN3ZGSzl5cGFJY3J1aTJ6N1FkcTRYWStCUC9BQWxmZ240NmZFVHhucEhnL3dBVytDdmdGYnd2YjJQaFZ0SXV6TGVYcE1XWnJQU3dyU1FxN003YmxqUk5wdzJDcmhQdU9pdFhqcjAvWnVPbHJiK2QyL1h6NkVmVi9lNXIvd0JXdGIwUGdmOEFaTDhWZUsvaHo0VytLSGliVnZodDQwdnZpdDQzOFJUMzl0b1VuaHk4dFlXQkJNQWx2Sm8wdDRZaEpMTHVMU2ZLblFFNFUrb2ZzMmZDVy84QTJSZmc5NG44UytMb05ROFMrT2ZFbDQrcmFwWStIYkdmVUhNNURtSzJqV0ZHWThzMjZRallHa1B6YlFHUDFSUlVWY1k2amw3dGxKcS95MlhraHdvY2x0ZFZ0OCtwOGxmOEU0ZkNPcmVIZmhkNHExSHhYbzJzYVA0MzEvWDdqVk5XajFuU0xpeGY1OENNS1pVVVNMdzc1UW5hWlNEZzE5YTBVVnpWNnpyMVpWR3JYTnFjUFp3VU93VVVVVnptaDVWNGovNU9uK0huL1ltZUpmOEEwdTBLdlZhOHE4Ui84blQvQUE4LzdFenhMLzZYYUZYcXRBQlJSUlFBVVVVVUFGRkZGQUJSUlJRQVVVVVVBRkZGRkFCUlJSUUFVVVVVQUZGRkZBQlJSUlFBVVVVVUFGRkZGQUJSUlJRQVVVVVVBRkZGRkFCUlJSUUFVVVVVQUZGRkZBQlJSUlFBVVVVVUFGRkZGQUJSUlJRQVVVVVVBRkZGRkFCUlJSUUFVVVVVQUZGRkZBQlJSUlFBVVVVVUFGRkZGQUJSUlJRQVVVVVVBRkZGRkFCUlJSUUFVVVVVQUZGRkZBQlJSUlFBVVVVVUFGRkZGQUJSUlJRQVVVVVVBRkZGRkFIbFg3UzMvSk90SS83SFB3bi9BT3BEcDFlcTE1ViswdC95VHJTUCt4ejhKLzhBcVE2ZFhxdEFCWGpuN1VYN1FhZnMrL0RMV2Rjc2RNYlg5ZXQ3VXoyK25xY1J4THZXUHo1MnlOc1NzNmpqbHlRcTlTVjczNGkrSTllOEsrRnJtKzhOZUVycnh0ckkrVzMwbTF2YmV6M3Rna0Y1WjNWVVRJQUpHNXVSaFR6ajVlL2FmL1owOFFlTy9nZHE3YUZvSGl6eEo4VVBGTnZhbS9mL0FJU01XTm5BNlN4eU5IUGFHLzhBc29SRU1zYUpHSjhFQWwySk1yZDJGcDA1Vkl1cy9kdjNYNDY2THorNDU2MHBLTDVGclkyL2l0OGFQaUJwWDdJbnd0OFErSHRjdExENGcrTUk5QnNGdWJuVFVuZWU4dllveS9sUjVXTkh5WGZsSFhDbFFneUdYc1BFdjdZL2dud2Q0aDhTNksxcnIrdjJmZzViWlBFL2lPeXRZRFphUzBzdmxBVGxwSTNrY0VibVczamtPTWhRU3JLdmxPcitCUGlSYlhQN09OM3FIZ081L3dDRWMrSGVoUE5xOEZ4cTJuUXJEcVVkcUxlSjVuTndRSUkvTDg3ekkvTVlJNStRc05nOFZYVnREOFllSzlaYjRvK0R2R3ZoZjRkZkVueEZaNmpCcUhnOWxrOE82OG4ybDF0V3ZKSklCZFErWUkxWXFraU0rNFNDR0g1U2ZVaGhxVlNPcVRTdTlHcjZ2YnU5RmRMejdISktyT0w3YmIzN2IvZTlUN3AxejlvN3dycHFlRm9OTXR0WDhTYTc0b2lOem8vaC9UN0V3Mzl6QXYzcG1qdWpDSUl3TW5mTTBZSUh5N2p4WElwKzNCOE41UGg5NEo4WHhwcmI2ZjRzMUU2WmFRL1lOcjJzeU5pYjdTNVlSUkxHTXN4TW5LcXpMdUNzUjV6NHUrQ1B4SjhNZnRDL0VieE40TzhNd2FyRDRnOEwyWGg3d3JxcjNsdkRaK0hWQ0pGTUprWnhNcXA1Wm1Ia3hTYnR3WHUyS21rZnNaNm40ZjhBRkh3RjhFcmF2cUh3MzhEd1h1c2EzcXBsaVZOUzFTWS9MRTBKY3VVM0E4RkN2bHVVTEVrNDU0MGNJb3B5bDU3K1RkdnZzdTdkL2xxNmxhN3N2dzgxL3dBRi9jV2ZIdjdVSGh2OW9YUnZoaG9uZ254SjQ3OEVhbjRvOFRBNmZlNmRwQlEzbHZheVNKY2I1V2xTTXdjQm1WWGVSUUUzeEVOdE1kdisyZjR4OFIydnhxOFUyWGhWdkR2aEx3RlkzTmpaeTZuOW11NDV0V2hiTHBjK1ZjSzNQN3RFRURPbnp1elNOOGdyc1BpTDRFK0l1cmZ0aWVIdkd0bjRTL3Rmd3Y0YjhPejIyajNiNmpid3dSNmhPU0ozbFV2NW8vYzdrWFpHUXorV0daRkxTSjRmcEg3Tlh4ZHVmMlBJUGhWY2VEcDlQMXJ4RDRwaXV2RXQ5SnExa1g4bDdneXozSUNTc3JJcVIyZ0dHTWpNSlFZMVZFYVRvaEhET0ViMnRwdTA3WGJ2MnZaSkxYcXpLVHFwdmZyMDNzdFB4YlBjL3dCbWY5cDVQRTMvQUFnM3c3OFdYMnFhOThTZFM4T2YyL2ZhdC9aOFVGbDh6bGpCdWpDS1hqRENNN0VLaG8yVm04eFdBVFcvK0NoWHd1MFN3MWU5YTE4UzNOdnAydHJvREdQU2lqeTNHMEdRaU9Sa2RGakpDdDVpbzI0NFZXckQ4RGZDSHh4NEMvYWYrSVBqRzA4RHRjZUg3UHcxRG9maFNXVFU3Y3JKQkZDSkhRQXlHVHpwYmxVLzFnUlNIbWRwUVZVUytUZUdQMkp2R3R6NForRG5oN3hENGRFa1Y1NG91ZkZ2eEN2VGZXK1VsUW43TmI1V1F2SXBScFYvZDVDbVZ5Q0N6R3A5bGc1VGM1dXlkblpOZFUyL3UydDMwSHoxMUZKTFhYcDZKZjVuMTE4UC93QnBUd2Y4VGZpdDRtOEFhRU5TbTFUUWJWTHlhK2x0ZkxzN21OaUYzUVNFNWNaWVliYUZZSEtNNjgxNnRYekgrelg4THZHdmhINDlmR1h4VDRwOEpRNlhiK0lOUkVXbmFrdW9RdWgwNjJIbFdjY01VWlpnREdNdjVnaTJoWWdGYkxDUDZjcnljVENuQ2ZMVGVsbDF2cmJYOFRzcFNsS041YjZubFhpUC9rNmY0ZWY5aVo0bC93RFM3UXE5VnJ5cnhIL3lkUDhBRHovc1RQRXYvcGRvVmVxMXltd1VVVVVBRkZGRkFCUlJSUUFVVVVVQUZGRkZBQlJSUlFBVVVVVUFGRkZGQUJSUlJRQVVVVVVBRkZGRkFCUlJSUUFVVVVVQUZGRkZBQlJSUlFBVVVVVUFGRkZGQUJSUlJRQVVVVVVBRkZGRkFCUlJSUUFVVVVVQUZGRkZBQlJSUlFBVVVVVUFGRkZGQUJSUlJRQVVVVVVBRkZGRkFCUlJSUUFVVVVVQUZGRkZBQlJSUlFBVVVVVUFGRkZGQUJSUlJRQVVVVVVBRkZGRkFCUlJSUUFVVVVVQUZGRkZBQlJSUlFCNVYrMHQvd0FrNjBqL0FMSFB3bi82a09uVjZyWFArUFBBZWpmRXJ3elBvR3Z3WEUrbXl6Vzl5UmFYczluTWtzRTZUd3lKTkE2U1Jza3NVYmhsWUhLaXVLLzRacDhJL3dEUVgrSUgvaHgvRVA4QThuVUFlcTBWNVYvd3pUNFIvd0NndjhRUC9EaitJZjhBNU9vLzRacDhJLzhBUVgrSUgvaHgvRVAvQU1uVUFlbjNsbmI2alp6MmwzQkhkV3M4YlJTd1RJSFNSR0dHVmxQQkJCSUlQV3ZNdkQzN01udzc4TDNHalBZNlRxRDJ1aTNJdk5OMHk5MTIvdTlQc3BsM2JKSXJPYWQ0RVpDeEtFSU5oNVhCQU5OLzRacDhJLzhBUVgrSUgvaHgvRVAvQU1uVWY4TTArRWYrZ3Y4QUVEL3c0L2lIL3dDVHEwalVuQk5SYlZ5WEdNdFdqMVdpdkt2K0dhZkNQL1FYK0lIL0FJY2Z4RC84blVmOE0wK0VmK2d2OFFQL0FBNC9pSC81T3JNbzlWb3J5ci9obW53ai93QkJmNGdmK0hIOFEvOEF5ZFIvd3pUNFIvNkMvd0FRUC9EaitJZi9BSk9vQTlWb3J5ci9BSVpwOEkvOUJmNGdmK0hIOFEvL0FDZFIvd0FNMCtFZitndjhRUDhBdzQvaUgvNU9vQTlWb3J5ci9obW53ai8wRi9pQi93Q0hIOFEvL0oxSC9ETlBoSC9vTC9FRC93QU9QNGgvK1RxQUR4SC9BTW5UL0R6L0FMRXp4TC82WGFGWHF0ZWYrRHZnWDRVOERlS2s4U1dEZUlMM1dvN0tiVDRyblhmRStwNnQ1TUVyeFNTcEd0M2NTcW01cmVFa3FBVDVhODRyMENnQW9vb29BS0tLS0FDaWlpZ0Fvb29vQUtLS0tBQ2lpaWdBb29vb0FLS0tLQUNpaWlnQW9vb29BS0tLS0FDaWlpZ0Fvb29vQUtLS0tBQ2lpaWdBb29vb0FLS0tLQUNpaWlnQW9vb29BS0tLS0FDaWlpZ0Fvb29vQUtLS0tBQ2lpaWdBb29vb0FLS0tLQUNpaWlnQW9vb29BS0tLS0FDaWlpZ0Fvb29vQUtLS0tBQ2lpaWdBb29vb0FLS0tLQUNpaWlnQW9vb29BS0tLS0FDaWlpZ0Fvb29vQUtLS0tBQ2lpaWdBb29vb0FLS0tLQUNpaWlnQW9vb29BS0tLS0FDaWlpZ0Fvb29vQUtLS0tBQ2lpaWdBb29vb0FLS0tLQUNpaWlnQW9vb29BS0tLS0FDaWlpZ0Fvb29vQUtLS0tBQ2lpaWdBb29vb0FLS0tLQUNpaWlnQW9vb29BS0tLS0FDaWlpZ0Fvb29vQUtLS0tBQ2lpaWdELzlrPSIgaGVpZ2h0PSI2MTEiIHdpZHRoPSI3OTkiLz48Y2xpcFBhdGggaWQ9ImNsaXAxIj48cmVjdCBoZWlnaHQ9IjM0MTYxMTMiIHdpZHRoPSI0NDY3MjI1IiB5PSIwIiB4PSIwIi8+PC9jbGlwUGF0aD48L2RlZnM+PGc+PGcgdHJhbnNmb3JtPSJzY2FsZSgwLjAwMDEwNDk4NyAwLjAwMDEwNDk4NykiPjxnIHRyYW5zZm9ybT0ic2NhbGUoMSAxLjAwMDk4KSIgY2xpcC1wYXRoPSJ1cmwoI2NsaXAxKSI+PHVzZSB0cmFuc2Zvcm09InNjYWxlKDU1OTEuMDIgNTU5MS4wMikiIHhsaW5rOmhyZWY9IiNpbWcwIiBoZWlnaHQ9IjEwMCUiIHdpZHRoPSIxMDAlIi8+PC9nPjwvZz48L2c+PC9zdmc+;" vertex="1" parent="1">
          <mxGeometry x="40" y="47" width="666.27" height="510" as="geometry" />
        </mxCell>
        <mxCell id="Zq0cCl1Xw0VO6npBKItH-3" value="GBDT&lt;div&gt;Algorithm&lt;/div&gt;" style="rounded=0;whiteSpace=wrap;html=1;fontSize=14;" vertex="1" parent="1">
          <mxGeometry x="350" y="501" width="98" height="49" as="geometry" />
        </mxCell>
        <mxCell id="Zq0cCl1Xw0VO6npBKItH-4" value="&lt;font style=&quot;font-size: 14px;&quot;&gt;GOSS&lt;/font&gt;" style="text;html=1;align=center;verticalAlign=middle;resizable=0;points=[];autosize=1;strokeColor=none;fillColor=default;fontStyle=1" vertex="1" parent="1">
          <mxGeometry x="550" y="47" width="60" height="30" as="geometry" />
        </mxCell>
        <mxCell id="Zq0cCl1Xw0VO6npBKItH-5" value="&lt;font style=&quot;font-size: 14px;&quot;&gt;EFB&lt;/font&gt;" style="text;html=1;align=center;verticalAlign=middle;resizable=0;points=[];autosize=1;strokeColor=none;fillColor=default;fontStyle=1" vertex="1" parent="1">
          <mxGeometry x="215" y="45" width="50" height="30" as="geometry" />
        </mxCell>
        <mxCell id="Zq0cCl1Xw0VO6npBKItH-6" value="Histogram" style="text;html=1;align=center;verticalAlign=middle;resizable=0;points=[];autosize=1;strokeColor=none;fillColor=default;fontSize=14;fontStyle=1" vertex="1" parent="1">
          <mxGeometry x="62" y="81" width="90" height="30" as="geometry" />
        </mxCell>
      </root>
    </mxGraphModel>
  </diagram>
</mxfile>
